<?xml version="1.0" encoding="UTF-8" standalone="no"?>
<!-- Generator: Adobe Illustrator 21.0.2, SVG Export Plug-In . SVG Version: 6.00 Build 0)  -->

<svg
   xmlns:dc="http://purl.org/dc/elements/1.1/"
   xmlns:cc="http://creativecommons.org/ns#"
   xmlns:rdf="http://www.w3.org/1999/02/22-rdf-syntax-ns#"
   xmlns:svg="http://www.w3.org/2000/svg"
   xmlns="http://www.w3.org/2000/svg"
   xmlns:sodipodi="http://sodipodi.sourceforge.net/DTD/sodipodi-0.dtd"
   xmlns:inkscape="http://www.inkscape.org/namespaces/inkscape"
   version="1.1"
   id="Layer_1"
   x="0px"
   y="0px"
   viewBox="0 0 150.20001 70"
   xml:space="preserve"
   sodipodi:docname="develop.svg"
   inkscape:version="0.92.4 (ca053d0, 2019-01-16)"
   width="150.20001"
   height="70"><metadata
   id="metadata4190"><rdf:RDF><cc:Work
       rdf:about=""><dc:format>image/svg+xml</dc:format><dc:type
         rdf:resource="http://purl.org/dc/dcmitype/StillImage" /><dc:title></dc:title></cc:Work></rdf:RDF></metadata><defs
   id="defs4188" /><sodipodi:namedview
   pagecolor="#ffffff"
   bordercolor="#666666"
   borderopacity="1"
   objecttolerance="10"
   gridtolerance="10"
   guidetolerance="10"
   inkscape:pageopacity="0"
   inkscape:pageshadow="2"
   inkscape:window-width="1855"
   inkscape:window-height="1056"
   id="namedview4186"
   showgrid="false"
   inkscape:zoom="4.0291029"
   inkscape:cx="205.43489"
   inkscape:cy="29.818058"
   inkscape:window-x="65"
   inkscape:window-y="24"
   inkscape:window-maximized="1"
   inkscape:current-layer="Layer_1"><inkscape:grid
     type="xygrid"
     id="grid4238" /></sodipodi:namedview>
<style
   type="text/css"
   id="style3981">
	.st0{fill:#FFC10E;}
	.st1{fill:#FBBB80;}
	.st2{fill:#2DA34A;stroke:#2DA34A;stroke-miterlimit:10;}
	.st3{fill:#0094D4;}
	.st4{fill:#EE4023;}
	.st5{fill:#231F20;}
	.st6{fill:#FFFFFF;}
	.st7{fill:#959595;}
	.st8{opacity:0.94;}
	.st9{fill:#EF4D3D;}
</style>


<g
   class="st8"
   id="g4183"
   transform="matrix(0.90291903,0,0,0.84889625,-211.21358,3.385133)"
   style="opacity:0.93999999">
	<g
   id="g4139">
		<path
   class="st9"
   d="m 250.6,65.3 c -2.1,0 -4.2,-0.7 -6,-1.9 -2.3,-1.6 -3.8,-4 -4.3,-6.8 l -2.7,-15.3 c -0.5,-2.8 0.1,-5.5 1.7,-7.8 1.6,-2.3 4,-3.8 6.8,-4.3 L 377.9,5.9 c 5.7,-1 11.2,2.8 12.2,8.5 l 2.7,15.3 c 0.5,2.8 -0.1,5.5 -1.7,7.8 -1.6,2.3 -4,3.8 -6.8,4.3 L 252.5,65.1 c -0.7,0.1 -1.3,0.2 -1.9,0.2 z"
   id="path4137"
   inkscape:connector-curvature="0"
   style="fill:#ef4d3d" />
	</g>
	<g
   id="g4181">
		<g
   id="g4143">
			<path
   class="st6"
   d="m 251.7,54.5 -2.7,-15.1 4.6,-0.8 c 1.3,-0.2 2.6,-0.1 3.7,0.3 1.2,0.4 2.1,1.1 2.9,2.1 0.8,1 1.3,2.2 1.5,3.6 l 0.1,0.7 c 0.2,1.4 0.2,2.7 -0.2,3.9 -0.4,1.2 -1,2.2 -2,3 -0.9,0.8 -2.1,1.3 -3.4,1.5 z m 0.9,-13.1 1.8,10.1 1.5,-0.3 c 1.2,-0.2 2.1,-0.8 2.6,-1.7 0.5,-0.9 0.6,-2.1 0.4,-3.6 l -0.1,-0.8 c -0.3,-1.5 -0.8,-2.6 -1.6,-3.3 -0.8,-0.7 -1.8,-0.9 -3,-0.7 z"
   id="path4141"
   inkscape:connector-curvature="0"
   style="fill:#ffffff" />
		</g>
		<g
   id="g4147">
			<path
   class="st6"
   d="m 273.4,43.9 -6,1.1 0.7,4 7,-1.2 0.4,2.5 -10.1,1.8 -2.6,-15.1 10.1,-1.8 0.4,2.5 -7,1.2 0.6,3.6 6,-1.1 z"
   id="path4145"
   inkscape:connector-curvature="0"
   style="fill:#ffffff" />
		</g>
		<g
   id="g4151">
			<path
   class="st6"
   d="m 284.6,44.6 c -0.1,-0.6 -0.4,-1 -0.9,-1.2 -0.5,-0.2 -1.3,-0.4 -2.4,-0.6 -1.1,-0.2 -2.1,-0.4 -2.7,-0.6 -1.9,-0.6 -3,-1.7 -3.2,-3.3 -0.1,-0.8 0,-1.6 0.3,-2.3 0.3,-0.7 0.9,-1.3 1.7,-1.8 0.8,-0.5 1.7,-0.9 2.8,-1 1.1,-0.2 2.1,-0.2 3,0.1 0.9,0.2 1.7,0.7 2.3,1.3 0.6,0.6 1,1.4 1.1,2.3 l -3.1,0.5 c -0.1,-0.7 -0.4,-1.2 -0.9,-1.5 -0.5,-0.3 -1.1,-0.4 -1.9,-0.3 -0.8,0.1 -1.3,0.4 -1.7,0.8 -0.4,0.4 -0.5,0.9 -0.4,1.4 0.1,0.5 0.4,0.9 1,1.1 0.6,0.2 1.3,0.4 2.3,0.5 1.9,0.2 3.3,0.7 4.2,1.3 0.9,0.6 1.5,1.6 1.7,2.7 0.2,1.3 -0.1,2.4 -0.9,3.3 -0.9,0.9 -2.1,1.5 -3.8,1.8 -1.2,0.2 -2.3,0.2 -3.3,-0.1 -1,-0.3 -1.9,-0.7 -2.5,-1.4 -0.6,-0.7 -1,-1.5 -1.2,-2.4 l 3.1,-0.6 c 0.3,1.7 1.4,2.3 3.4,2 0.7,-0.1 1.3,-0.4 1.7,-0.8 0.2,-0.2 0.4,-0.6 0.3,-1.2 z"
   id="path4149"
   inkscape:connector-curvature="0"
   style="fill:#ffffff" />
		</g>
		<g
   id="g4155">
			<path
   class="st6"
   d="m 298.5,43 -5.5,1 -0.5,3.3 -3.3,0.6 3,-16.1 2.9,-0.5 8.3,14.1 -3.3,0.6 z m -5.1,-1.7 3.8,-0.7 -2.9,-5.3 z"
   id="path4153"
   inkscape:connector-curvature="0"
   style="fill:#ffffff" />
		</g>
		<g
   id="g4159">
			<path
   class="st6"
   d="m 309.4,38.6 -2.5,0.4 1,5.5 -3.1,0.5 -2.7,-15 5.6,-1 c 1.8,-0.3 3.2,-0.2 4.3,0.5 1.1,0.6 1.8,1.7 2,3.1 0.2,1 0.1,1.9 -0.2,2.7 -0.3,0.8 -0.9,1.4 -1.7,2 l 4.4,5.6 V 43 l -3.3,0.6 z m -2.9,-2.1 2.5,-0.4 c 0.8,-0.1 1.4,-0.4 1.7,-0.9 0.4,-0.5 0.5,-1.1 0.4,-1.8 -0.1,-0.7 -0.4,-1.2 -0.9,-1.6 -0.5,-0.3 -1.1,-0.4 -2,-0.3 l -2.5,0.4 z"
   id="path4157"
   inkscape:connector-curvature="0"
   style="fill:#ffffff" />
		</g>
		<g
   id="g4163">
			<path
   class="st6"
   d="m 323,36.2 -2.5,0.4 1,5.5 -3.1,0.5 -2.7,-15.1 5.6,-1 c 1.8,-0.3 3.2,-0.2 4.3,0.5 1.1,0.6 1.8,1.7 2,3.1 0.2,1 0.1,1.9 -0.2,2.7 -0.3,0.8 -0.9,1.4 -1.7,2 l 4.4,5.6 v 0.1 l -3.3,0.6 z m -3,-2.1 2.5,-0.4 c 0.8,-0.1 1.4,-0.4 1.7,-0.9 0.4,-0.5 0.5,-1.1 0.4,-1.8 -0.1,-0.7 -0.4,-1.2 -0.9,-1.6 -0.5,-0.3 -1.1,-0.4 -2,-0.3 l -2.5,0.4 z"
   id="path4161"
   inkscape:connector-curvature="0"
   style="fill:#ffffff" />
		</g>
		<g
   id="g4167">
			<path
   class="st6"
   d="m 343,31 c 0.3,1.5 0.2,2.8 -0.1,4 -0.3,1.2 -0.9,2.2 -1.8,3 -0.9,0.8 -1.9,1.3 -3.2,1.5 -1.3,0.2 -2.4,0.1 -3.5,-0.3 -1.1,-0.4 -2,-1.2 -2.7,-2.2 -0.7,-1 -1.2,-2.3 -1.5,-3.7 l -0.1,-0.7 c -0.3,-1.5 -0.2,-2.8 0.1,-4.1 0.3,-1.2 0.9,-2.2 1.8,-3 0.9,-0.8 1.9,-1.3 3.2,-1.5 1.3,-0.2 2.4,-0.1 3.5,0.3 1.1,0.4 2,1.2 2.7,2.2 0.7,1 1.2,2.3 1.5,3.8 z m -3.2,-0.2 c -0.3,-1.6 -0.8,-2.7 -1.5,-3.5 -0.7,-0.7 -1.6,-1 -2.6,-0.8 -1,0.2 -1.8,0.7 -2.2,1.6 -0.4,0.9 -0.5,2.2 -0.2,3.7 l 0.1,0.7 c 0.3,1.5 0.8,2.7 1.5,3.4 0.7,0.8 1.6,1 2.7,0.8 1,-0.2 1.8,-0.7 2.2,-1.7 0.4,-0.9 0.5,-2.2 0.2,-3.7 z"
   id="path4165"
   inkscape:connector-curvature="0"
   style="fill:#ffffff" />
		</g>
		<g
   id="g4171">
			<path
   class="st6"
   d="m 349.2,34.7 6.6,-1.2 0.4,2.5 -9.7,1.7 -2.7,-15.1 3.1,-0.5 z"
   id="path4169"
   inkscape:connector-curvature="0"
   style="fill:#ffffff" />
		</g>
		<g
   id="g4175">
			<path
   class="st6"
   d="m 360.7,32.7 6.6,-1.2 0.4,2.5 -9.7,1.7 -2.7,-15.1 3.1,-0.5 z"
   id="path4173"
   inkscape:connector-curvature="0"
   style="fill:#ffffff" />
		</g>
		<g
   id="g4179">
			<path
   class="st6"
   d="m 380,24.4 c 0.3,1.5 0.2,2.8 -0.1,4 -0.3,1.2 -0.9,2.2 -1.8,3 -0.9,0.8 -1.9,1.3 -3.2,1.5 -1.3,0.2 -2.4,0.1 -3.5,-0.3 -1.1,-0.4 -2,-1.2 -2.7,-2.2 -0.7,-1 -1.2,-2.3 -1.5,-3.7 L 367.1,26 c -0.3,-1.5 -0.2,-2.8 0.1,-4.1 0.3,-1.2 0.9,-2.2 1.8,-3 0.9,-0.8 1.9,-1.3 3.2,-1.5 1.3,-0.2 2.4,-0.1 3.5,0.3 1.1,0.4 2,1.2 2.7,2.2 0.7,1 1.2,2.3 1.5,3.8 z m -3.2,-0.1 c -0.3,-1.6 -0.8,-2.7 -1.5,-3.5 -0.7,-0.8 -1.6,-1 -2.6,-0.8 -1,0.2 -1.8,0.7 -2.2,1.6 -0.4,0.9 -0.5,2.2 -0.2,3.7 l 0.1,0.7 c 0.3,1.5 0.8,2.7 1.5,3.4 0.7,0.8 1.6,1 2.7,0.8 1,-0.2 1.8,-0.7 2.2,-1.7 0.4,-0.9 0.5,-2.2 0.2,-3.7 z"
   id="path4177"
   inkscape:connector-curvature="0"
   style="fill:#ffffff" />
		</g>
	</g>
</g>
</svg>
