<?xml version="1.0" encoding="utf-8"?>
<!-- Generator: Adobe Illustrator 22.1.0, SVG Export Plug-In . SVG Version: 6.00 Build 0)  -->
<svg version="1.1" id="Capa_1" xmlns="http://www.w3.org/2000/svg" xmlns:xlink="http://www.w3.org/1999/xlink" x="0px" y="0px"
	 viewBox="0 0 100 100" style="enable-background:new 0 0 100 100;" xml:space="preserve">
<style type="text/css">
	
		.st0{opacity:0.7;fill:#0DBFD1;stroke:#12B5E1;stroke-width:2;stroke-linecap:round;stroke-linejoin:round;enable-background:new    ;}
	.st1{fill:#1460AA;}
	.st2{opacity:0.3;fill:#51B7D6;enable-background:new    ;}
</style>
<title>plantilla svg celestes</title>
<g>
	<g id="Layer_2">
		<path class="st0" d="M71,50.2c-0.8,0-1.4,0.6-1.4,1.4l0,0v23.6H57.4V57.7c0-0.8-0.6-1.4-1.4-1.4H44.1c-0.8,0-1.4,0.6-1.4,1.4v17.5
			H30.5V51.6c0-0.8-0.6-1.4-1.4-1.4c0,0,0,0,0,0h-5.2L50,25.4l26.2,24.8H71z"/>
		<path class="st1" d="M51.1,22.4c-0.3-0.3-0.7-0.5-1.2-0.5c-0.1,0-0.3,0-0.4,0.1c-0.2,0.1-0.4,0.2-0.6,0.4L19.2,50.6
			c-0.6,0.5-0.6,1.4-0.1,2c0.3,0.3,0.7,0.5,1.1,0.5h7.4v23.5c0,0.8,0.6,1.4,1.4,1.4h42c0.8,0,1.4-0.6,1.4-1.4V53.1h7.4
			c0.8,0,1.4-0.6,1.5-1.4c0-0.4-0.2-0.8-0.5-1.1L51.1,22.4z M71,50.2c-0.8,0-1.4,0.6-1.4,1.4l0,0v23.6H57.4V57.7
			c0-0.8-0.6-1.4-1.4-1.4H44.1c-0.8,0-1.4,0.6-1.4,1.4v17.5H30.5V51.6c0-0.8-0.6-1.4-1.4-1.4c0,0,0,0,0,0h-5.2L50,25.4l26.2,24.8H71
			z"/>
		<path class="st2" d="M60,41l10.1,9.6c0.3-0.2,0.6-0.3,0.9-0.4h5.2L50,25.4L23.8,50.2H29c0.3,0,0.6,0.1,0.9,0.3L40,41
			C45.6,35.7,54.4,35.7,60,41z"/>
	</g>
</g>
</svg>
