<?xml version="1.0" encoding="UTF-8"?>
<!-- Generator: Adobe Illustrator 22.0.0, SVG Export Plug-In . SVG Version: 6.00 Build 0)  -->
<svg version="1.1" id="Layer_1" xmlns="http://www.w3.org/2000/svg" xmlns:xlink="http://www.w3.org/1999/xlink" x="0px" y="0px" viewBox="0 0 188 60" style="enable-background:new 0 0 188 60;" xml:space="preserve">
<style type="text/css">
	.st0{fill:#0072BB;}
</style>
<g>
	<path class="st0" d="M0.6,43.9L0.6,43.9c0-3.6,2.4-5.6,5-5.6c1.8,0,2.9,0.9,3.7,1.9v-5.8h2.5v14.9H9.2v-1.8c-0.8,1.1-1.9,2-3.7,2   C3,49.5,0.6,47.5,0.6,43.9z M9.3,43.9L9.3,43.9c0-2.1-1.5-3.5-3.1-3.5c-1.7,0-3.1,1.3-3.1,3.4v0c0,2.1,1.4,3.4,3.1,3.4   C7.8,47.4,9.3,46,9.3,43.9z"/>
	<path class="st0" d="M13.5,43.9L13.5,43.9c0-3.1,2.2-5.6,5.3-5.6c3.4,0,5.2,2.7,5.2,5.8c0,0.2,0,0.4,0,0.7H16   c0.3,1.8,1.5,2.7,3.1,2.7c1.2,0,2.1-0.4,2.9-1.3l1.4,1.3c-1,1.2-2.4,2-4.4,2C16,49.5,13.5,47.3,13.5,43.9z M21.5,43.2   c-0.2-1.6-1.1-2.8-2.7-2.8c-1.5,0-2.6,1.2-2.8,2.8H21.5z"/>
	<path class="st0" d="M30.9,42.2L30.9,42.2c0-4,3.1-7.4,7.4-7.4c2.5,0,4,0.7,5.5,1.9l-1.6,1.9c-1.1-0.9-2.2-1.5-4-1.5   c-2.6,0-4.6,2.3-4.6,5v0c0,2.9,1.9,5.1,4.9,5.1c1.3,0,2.6-0.4,3.4-1.1v-2.7h-3.6v-2.2h6.1v6c-1.4,1.2-3.4,2.2-6,2.2   C33.9,49.5,30.9,46.4,30.9,42.2z"/>
	<path class="st0" d="M46,44L46,44c0-3.1,2.4-5.7,5.7-5.7s5.7,2.5,5.7,5.6v0c0,3.1-2.4,5.6-5.8,5.6C48.4,49.5,46,47,46,44z M55,44   L55,44c0-1.9-1.4-3.5-3.3-3.5c-2,0-3.2,1.5-3.2,3.4v0c0,1.9,1.4,3.4,3.3,3.4C53.8,47.4,55,45.8,55,44z"/>
	<path class="st0" d="M61.8,47.6v1.7h-2.5V34.4h2.5v5.9c0.8-1.1,1.9-2,3.7-2c2.5,0,5,2,5,5.6v0c0,3.6-2.4,5.6-5,5.6   C63.7,49.5,62.6,48.6,61.8,47.6z M68,43.9L68,43.9c0-2.1-1.4-3.5-3.1-3.5c-1.7,0-3.1,1.4-3.1,3.4v0c0,2.1,1.5,3.4,3.1,3.4   C66.6,47.4,68,46,68,43.9z"/>
	<path class="st0" d="M72.4,34.5h2.7v2.3h-2.7V34.5z M72.5,38.5H75v10.8h-2.5V38.5z"/>
	<path class="st0" d="M77,43.9L77,43.9c0-3.1,2.2-5.6,5.3-5.6c3.4,0,5.2,2.7,5.2,5.8c0,0.2,0,0.4,0,0.7h-7.9   c0.3,1.8,1.5,2.7,3.1,2.7c1.2,0,2.1-0.4,2.9-1.3l1.4,1.3c-1,1.2-2.4,2-4.4,2C79.4,49.5,77,47.3,77,43.9z M85,43.2   c-0.2-1.6-1.1-2.8-2.7-2.8c-1.5,0-2.6,1.2-2.8,2.8H85z"/>
	<path class="st0" d="M89.2,38.5h2.5V41c0.7-1.6,1.9-2.7,3.8-2.6v2.6h-0.1c-2.2,0-3.7,1.4-3.7,4.3v4.1h-2.5V38.5z"/>
	<path class="st0" d="M97,38.5h2.5v1.7c0.7-1,1.7-1.9,3.4-1.9c2.4,0,3.8,1.6,3.8,4.1v6.9h-2.5v-6.1c0-1.7-0.8-2.6-2.3-2.6   c-1.4,0-2.4,1-2.4,2.7v6.1H97V38.5z"/>
	<path class="st0" d="M108.4,44L108.4,44c0-3.1,2.4-5.7,5.7-5.7c3.3,0,5.7,2.5,5.7,5.6v0c0,3.1-2.4,5.6-5.8,5.6   C110.9,49.5,108.4,47,108.4,44z M117.4,44L117.4,44c0-1.9-1.4-3.5-3.3-3.5c-2,0-3.2,1.5-3.2,3.4v0c0,1.9,1.4,3.4,3.3,3.4   C116.2,47.4,117.4,45.8,117.4,44z"/>
	<path class="st0" d="M127.5,35h5.3c4.5,0,7.6,3.1,7.6,7.1v0c0,4-3.1,7.1-7.6,7.1h-5.3V35z M130,37.3V47h2.8c3,0,5-2,5-4.8v0   c0-2.8-2-4.9-5-4.9H130z"/>
	<path class="st0" d="M142.6,34.5h2.7v2.3h-2.7V34.5z M142.7,38.5h2.5v10.8h-2.5V38.5z"/>
	<path class="st0" d="M147.7,51.3l0.9-1.9c1.2,0.7,2.4,1.1,3.8,1.1c2.2,0,3.4-1.1,3.4-3.3v-0.8c-0.9,1.2-2,2-3.8,2   c-2.5,0-4.9-1.9-4.9-5v0c0-3.2,2.4-5.1,4.9-5.1c1.8,0,2.9,0.8,3.8,1.8v-1.6h2.5v8.6c0,1.8-0.5,3.2-1.4,4.1c-1,1-2.5,1.4-4.4,1.4   C150.7,52.6,149.1,52.1,147.7,51.3z M155.9,43.4L155.9,43.4c0-1.8-1.4-3-3.2-3c-1.7,0-3.1,1.2-3.1,3v0c0,1.8,1.4,3,3.1,3   C154.4,46.3,155.9,45.1,155.9,43.4z"/>
	<path class="st0" d="M160.8,34.5h2.7v2.3h-2.7V34.5z M160.9,38.5h2.5v10.8h-2.5V38.5z"/>
	<path class="st0" d="M166.4,46.3v-5.7h-1.4v-2.1h1.4v-3h2.5v3h2.9v2.1h-2.9v5.3c0,1,0.5,1.3,1.3,1.3c0.5,0,1-0.1,1.5-0.4v2   c-0.6,0.3-1.3,0.6-2.2,0.6C167.7,49.5,166.4,48.7,166.4,46.3z"/>
	<path class="st0" d="M172.9,46.2L172.9,46.2c0-2.4,1.8-3.5,4.4-3.5c1.2,0,2.1,0.2,2.9,0.4v-0.3c0-1.5-0.9-2.3-2.7-2.3   c-1.2,0-2.1,0.3-3.1,0.7l-0.7-1.9c1.2-0.5,2.3-0.9,4.1-0.9c1.6,0,2.8,0.4,3.6,1.2c0.8,0.8,1.2,1.9,1.2,3.3v6.4h-2.4v-1.3   c-0.7,0.9-1.9,1.6-3.5,1.6C174.7,49.5,172.9,48.4,172.9,46.2z M180.3,45.4v-0.7c-0.6-0.2-1.5-0.4-2.4-0.4c-1.6,0-2.5,0.7-2.5,1.8v0   c0,1,0.9,1.6,2.1,1.6C179.1,47.7,180.3,46.8,180.3,45.4z"/>
	<path class="st0" d="M185.1,34.4h2.5v14.9h-2.5V34.4z"/>
</g>
<g>
	<path class="st0" d="M0.4,20.5L2,18.7c1.4,1.2,2.8,1.9,4.6,1.9c1.6,0,2.6-0.7,2.6-1.8v0c0-1-0.6-1.6-3.3-2.2   C2.8,15.8,1,14.8,1,12.2v0c0-2.5,2.1-4.2,5-4.2c2.1,0,3.8,0.6,5.3,1.8l-1.4,1.9c-1.3-1-2.6-1.5-4-1.5c-1.5,0-2.4,0.8-2.4,1.7v0   c0,1.1,0.7,1.6,3.5,2.3c3.1,0.7,4.7,1.9,4.7,4.3v0c0,2.7-2.1,4.4-5.2,4.4C4.3,22.9,2.2,22.1,0.4,20.5z"/>
	<path class="st0" d="M14.3,18.7v-7h2.5v6.2c0,1.7,0.9,2.7,2.4,2.7c1.5,0,2.5-1,2.5-2.7v-6.2h2.5v11h-2.5V21c-0.7,1-1.7,1.9-3.4,1.9   C15.8,22.9,14.3,21.2,14.3,18.7z"/>
	<path class="st0" d="M29.9,21v1.7h-2.5V7.5h2.5v6c0.8-1.1,2-2.1,3.7-2.1c2.6,0,5.1,2,5.1,5.7v0c0,3.6-2.5,5.7-5.1,5.7   C31.8,22.9,30.6,22,29.9,21z M36.1,17.2L36.1,17.2c0-2.2-1.4-3.6-3.1-3.6c-1.7,0-3.2,1.4-3.2,3.5v0c0,2.1,1.5,3.5,3.2,3.5   C34.7,20.7,36.1,19.4,36.1,17.2z"/>
	<path class="st0" d="M40.4,21.2l1.1-1.7c1.2,0.9,2.5,1.4,3.6,1.4c1.1,0,1.7-0.5,1.7-1.2v0c0-0.9-1.2-1.1-2.5-1.5   c-1.6-0.5-3.4-1.1-3.4-3.2v0c0-2.1,1.7-3.3,3.9-3.3c1.4,0,2.9,0.5,4,1.2l-1,1.8c-1.1-0.6-2.2-1-3.1-1c-1,0-1.5,0.5-1.5,1.1v0   c0,0.8,1.2,1.1,2.5,1.6c1.6,0.5,3.4,1.2,3.4,3.2v0c0,2.3-1.8,3.5-4.1,3.5C43.5,22.9,41.8,22.3,40.4,21.2z"/>
	<path class="st0" d="M51.1,17.2L51.1,17.2c0-3.2,2.2-5.8,5.4-5.8c3.5,0,5.3,2.7,5.3,5.9c0,0.2,0,0.5,0,0.7h-8.1   c0.3,1.8,1.5,2.8,3.2,2.8c1.2,0,2.1-0.5,3-1.3l1.5,1.3c-1,1.2-2.5,2.1-4.5,2.1C53.6,22.9,51.1,20.6,51.1,17.2z M59.3,16.4   c-0.2-1.6-1.1-2.9-2.8-2.9c-1.5,0-2.6,1.2-2.9,2.9H59.3z"/>
	<path class="st0" d="M63.7,17.2L63.7,17.2c0-3.2,2.4-5.8,5.7-5.8c2.1,0,3.4,0.8,4.4,1.9L72.2,15c-0.8-0.8-1.6-1.4-2.8-1.4   c-1.8,0-3.2,1.6-3.2,3.5v0c0,2,1.4,3.5,3.3,3.5c1.2,0,2.1-0.5,2.9-1.4l1.5,1.5c-1.1,1.2-2.4,2.1-4.5,2.1   C66.1,22.9,63.7,20.4,63.7,17.2z"/>
	<path class="st0" d="M76.2,11.7h2.5v2.5c0.7-1.6,2-2.8,3.9-2.7v2.7h-0.1c-2.2,0-3.7,1.4-3.7,4.3v4.2h-2.5V11.7z"/>
	<path class="st0" d="M83.8,17.2L83.8,17.2c0-3.2,2.2-5.8,5.4-5.8c3.5,0,5.3,2.7,5.3,5.9c0,0.2,0,0.5,0,0.7h-8.1   c0.3,1.8,1.5,2.8,3.2,2.8c1.2,0,2.1-0.5,3-1.3l1.5,1.3c-1,1.2-2.5,2.1-4.5,2.1C86.2,22.9,83.8,20.6,83.8,17.2z M91.9,16.4   c-0.2-1.6-1.1-2.9-2.8-2.9c-1.5,0-2.6,1.2-2.8,2.9H91.9z"/>
	<path class="st0" d="M97.5,19.6v-5.8h-1.4v-2.2h1.4v-3h2.5v3h3v2.2h-3v5.4c0,1,0.5,1.4,1.4,1.4c0.6,0,1.1-0.1,1.6-0.4v2.1   c-0.6,0.4-1.3,0.6-2.3,0.6C98.8,22.9,97.5,22,97.5,19.6z"/>
	<path class="st0" d="M104.8,19.5L104.8,19.5c0-2.4,1.9-3.6,4.5-3.6c1.2,0,2.1,0.2,3,0.5v-0.3c0-1.6-1-2.4-2.7-2.4   c-1.2,0-2.1,0.3-3.1,0.7l-0.7-2c1.2-0.5,2.4-0.9,4.1-0.9c1.6,0,2.9,0.4,3.6,1.2c0.8,0.8,1.2,2,1.2,3.4v6.5h-2.5v-1.4   c-0.7,0.9-1.9,1.6-3.6,1.6C106.6,22.9,104.8,21.7,104.8,19.5z M112.3,18.7V18c-0.6-0.2-1.5-0.4-2.5-0.4c-1.6,0-2.6,0.7-2.6,1.8v0   c0,1.1,0.9,1.7,2.1,1.7C111,21.1,112.3,20.1,112.3,18.7z"/>
	<path class="st0" d="M117.7,11.7h2.5v2.5c0.7-1.6,2-2.8,3.9-2.7v2.7H124c-2.2,0-3.7,1.4-3.7,4.3v4.2h-2.5V11.7z"/>
	<path class="st0" d="M126.4,11.7h2.5v11h-2.5V11.7z M128.8,6.9l2.3,1l-2.6,2.4h-1.9L128.8,6.9z"/>
	<path class="st0" d="M131.5,19.5L131.5,19.5c0-2.4,1.9-3.6,4.5-3.6c1.2,0,2.1,0.2,3,0.5v-0.3c0-1.6-1-2.4-2.7-2.4   c-1.2,0-2.1,0.3-3.1,0.7l-0.7-2c1.2-0.5,2.4-0.9,4.1-0.9c1.6,0,2.9,0.4,3.6,1.2c0.8,0.8,1.2,2,1.2,3.4v6.5H139v-1.4   c-0.7,0.9-1.9,1.6-3.6,1.6C133.3,22.9,131.5,21.7,131.5,19.5z M139,18.7V18c-0.6-0.2-1.5-0.4-2.5-0.4c-1.6,0-2.6,0.7-2.6,1.8v0   c0,1.1,0.9,1.7,2.1,1.7C137.8,21.1,139,20.1,139,18.7z"/>
</g>
</svg>