<?xml version="1.0" encoding="UTF-8"?>
<!-- Generator: Adobe Illustrator 22.1.0, SVG Export Plug-In . SVG Version: 6.00 Build 0)  -->
<svg version="1.1" id="Layer_1" xmlns="http://www.w3.org/2000/svg" xmlns:xlink="http://www.w3.org/1999/xlink" x="0px" y="0px" viewBox="0 0 320.7 59.8" style="enable-background:new 0 0 320.7 59.8;" xml:space="preserve">
<style type="text/css">
	.st0{fill:#0072BB;}
	.st1{fill:#0095D3;}
	.st2{fill:#FFFFFF;}
	.st3{fill:#211316;}
	.st4{fill:#0086BB;}
	.st5{fill:#E8B426;}
	.st6{fill:#3B9749;}
	.st7{fill:#D6432A;}
	.st8{fill:#E9B17A;}
</style>
<g>
	<g>
		<path class="st0" d="M53.2,23.6h6.2c3.7,0,5.9,2.1,5.9,5.2l0,0c0,3.5-2.8,5.3-6.2,5.3H56v5h-2.7V23.6H53.2z M59.1,31.8    c2.1,0,3.4-1.2,3.4-2.8l0,0c0-1.8-1.3-2.8-3.4-2.8h-3.2v5.6C55.9,31.8,59.1,31.8,59.1,31.8z"/>
		<path class="st0" d="M67.5,27.5h2.7v2.7c0.7-1.8,2.1-3,4.2-2.9v2.9h-0.2c-2.4,0-4,1.5-4,4.7v4.5h-2.7V27.5z"/>
		<path class="st0" d="M75.5,33.4L75.5,33.4c0-3.4,2.4-6.2,5.8-6.2c3.7,0,5.6,2.9,5.6,6.3c0,0.2,0,0.5,0,0.8h-8.7    c0.3,1.9,1.7,3,3.4,3c1.3,0,2.3-0.5,3.2-1.4l1.6,1.4c-1.1,1.3-2.7,2.2-4.8,2.2C78.1,39.5,75.5,37,75.5,33.4z M84.2,32.5    c-0.2-1.7-1.2-3.1-3-3.1c-1.7,0-2.8,1.3-3.1,3.1H84.2z"/>
		<path class="st0" d="M88.4,37.7l1.2-1.8c1.3,1,2.7,1.4,3.9,1.4c1.2,0,1.8-0.5,1.8-1.3l0,0c0-0.9-1.2-1.2-2.6-1.7    C91,33.8,89,33.1,89,30.8l0,0c0-2.2,1.9-3.6,4.2-3.6c1.5,0,3.1,0.5,4.3,1.3l-1.1,1.9c-1.1-0.7-2.3-1.1-3.3-1.1s-1.7,0.5-1.7,1.2    l0,0c0,0.9,1.3,1.2,2.7,1.7c1.7,0.5,3.7,1.3,3.7,3.4l0,0c0,2.5-1.9,3.7-4.4,3.7C91.7,39.5,89.8,38.9,88.4,37.7z"/>
		<path class="st0" d="M100.3,23.1h2.9v2.6h-2.9V23.1z M100.4,27.5h2.7v11.8h-2.7V27.5z"/>
		<path class="st0" d="M105.8,33.4L105.8,33.4c0-3.9,2.7-6.2,5.5-6.2c1.9,0,3.2,1,4,2.1V23h2.7v16.3h-2.7v-2c-0.9,1.2-2.1,2.2-4,2.2    C108.5,39.5,105.8,37.3,105.8,33.4z M115.3,33.4L115.3,33.4c0-2.3-1.6-3.8-3.4-3.8c-1.9,0-3.4,1.4-3.4,3.8l0,0    c0,2.3,1.6,3.8,3.4,3.8S115.3,35.6,115.3,33.4z"/>
		<path class="st0" d="M120.5,33.4L120.5,33.4c0-3.4,2.4-6.2,5.8-6.2c3.7,0,5.6,2.9,5.6,6.3c0,0.2,0,0.5,0,0.8h-8.7    c0.3,1.9,1.7,3,3.4,3c1.3,0,2.3-0.5,3.2-1.4l1.6,1.4c-1.1,1.3-2.7,2.2-4.8,2.2C123.1,39.5,120.5,37,120.5,33.4z M129.2,32.5    c-0.2-1.7-1.2-3.1-3-3.1c-1.7,0-2.8,1.3-3.1,3.1H129.2z"/>
		<path class="st0" d="M134.3,27.5h2.7v1.8c0.8-1.1,1.9-2.1,3.7-2.1c2.7,0,4.2,1.8,4.2,4.5v7.5h-2.7v-6.7c0-1.8-0.9-2.9-2.5-2.9    s-2.7,1.1-2.7,2.9v6.6h-2.7V27.5z"/>
		<path class="st0" d="M147.3,33.4L147.3,33.4c0-3.4,2.6-6.2,6.1-6.2c2.2,0,3.6,0.8,4.7,2l-1.7,1.8c-0.8-0.9-1.7-1.5-3-1.5    c-2,0-3.4,1.7-3.4,3.7l0,0c0,2.1,1.4,3.8,3.5,3.8c1.3,0,2.2-0.6,3.1-1.4l1.6,1.6c-1.2,1.3-2.5,2.2-4.8,2.2    C149.9,39.5,147.3,36.8,147.3,33.4z"/>
		<path class="st0" d="M160.4,23.1h2.9v2.6h-2.9V23.1z M160.6,27.5h2.7v11.8h-2.7V27.5z"/>
		<path class="st0" d="M165.8,35.9L165.8,35.9c0-2.6,2-3.8,4.9-3.8c1.3,0,2.3,0.2,3.2,0.5v-0.3c0-1.7-1-2.6-2.9-2.6    c-1.3,0-2.3,0.3-3.4,0.7l-0.7-2.1c1.3-0.6,2.6-1,4.4-1c1.8,0,3.1,0.5,3.9,1.3c0.9,0.8,1.3,2.1,1.3,3.6v7h-2.6v-1.5    c-0.8,1-2,1.7-3.8,1.7C167.7,39.5,165.8,38.2,165.8,35.9z M173.8,35v-0.8c-0.7-0.3-1.6-0.5-2.7-0.5c-1.7,0-2.8,0.7-2.8,2l0,0    c0,1.1,1,1.8,2.3,1.8C172.5,37.5,173.8,36.5,173.8,35z"/>
		<path class="st0" d="M185.2,33.4L185.2,33.4c0-3.9,2.7-6.2,5.5-6.2c1.9,0,3.2,1,4,2.1V23h2.7v16.3h-2.7v-2c-0.9,1.2-2.1,2.2-4,2.2    C187.9,39.5,185.2,37.3,185.2,33.4z M194.7,33.4L194.7,33.4c0-2.3-1.6-3.8-3.4-3.8c-1.9,0-3.4,1.4-3.4,3.8l0,0    c0,2.3,1.6,3.8,3.4,3.8S194.7,35.6,194.7,33.4z"/>
		<path class="st0" d="M199.9,33.4L199.9,33.4c0-3.4,2.4-6.2,5.8-6.2c3.7,0,5.6,2.9,5.6,6.3c0,0.2,0,0.5,0,0.8h-8.7    c0.3,1.9,1.7,3,3.4,3c1.3,0,2.3-0.5,3.2-1.4l1.6,1.4c-1.1,1.3-2.7,2.2-4.8,2.2C202.5,39.5,199.9,37,199.9,33.4z M208.6,32.5    c-0.2-1.7-1.2-3.1-3-3.1c-1.7,0-2.8,1.3-3.1,3.1H208.6z"/>
		<path class="st0" d="M220.4,23h2.7v16.3h-2.7V23z"/>
		<path class="st0" d="M225.6,35.9L225.6,35.9c0-2.6,2-3.8,4.9-3.8c1.3,0,2.3,0.2,3.2,0.5v-0.3c0-1.7-1-2.6-2.9-2.6    c-1.3,0-2.3,0.3-3.4,0.7l-0.7-2.1c1.3-0.6,2.6-1,4.4-1c1.8,0,3.1,0.5,3.9,1.3c0.9,0.8,1.3,2.1,1.3,3.6v7h-2.6v-1.5    c-0.8,1-2,1.7-3.8,1.7C227.5,39.5,225.6,38.2,225.6,35.9z M233.6,35v-0.8c-0.7-0.3-1.6-0.5-2.7-0.5c-1.7,0-2.8,0.7-2.8,2l0,0    c0,1.1,1,1.8,2.3,1.8C232.3,37.5,233.6,36.5,233.6,35z"/>
		<path class="st0" d="M245.9,23.6h2.5l8.4,10.8V23.6h2.7v15.6h-2.3l-8.6-11.1v11.1h-2.7L245.9,23.6L245.9,23.6z"/>
		<path class="st0" d="M262.2,35.9L262.2,35.9c0-2.6,2-3.8,4.9-3.8c1.3,0,2.3,0.2,3.2,0.5v-0.3c0-1.7-1-2.6-2.9-2.6    c-1.3,0-2.3,0.3-3.4,0.7l-0.7-2.1c1.3-0.6,2.6-1,4.4-1s3.1,0.5,3.9,1.3c0.9,0.8,1.3,2.1,1.3,3.6v7h-2.6v-1.5c-0.8,1-2,1.7-3.8,1.7    C264.2,39.5,262.2,38.2,262.2,35.9z M270.3,35v-0.8c-0.7-0.3-1.6-0.5-2.7-0.5c-1.7,0-2.8,0.7-2.8,2l0,0c0,1.1,1,1.8,2.3,1.8    C268.9,37.5,270.3,36.5,270.3,35z"/>
		<path class="st0" d="M275.2,33.4L275.2,33.4c0-3.4,2.6-6.2,6.1-6.2c2.2,0,3.6,0.8,4.7,2l-1.7,1.8c-0.8-0.9-1.7-1.5-3-1.5    c-2,0-3.4,1.7-3.4,3.7l0,0c0,2.1,1.4,3.8,3.5,3.8c1.3,0,2.2-0.6,3.1-1.4l1.6,1.6c-1.2,1.3-2.5,2.2-4.8,2.2    C277.8,39.5,275.2,36.8,275.2,33.4z"/>
		<path class="st0" d="M288.4,23.1h2.9v2.6h-2.9V23.1z M288.5,27.5h2.7v11.8h-2.7V27.5z"/>
		<path class="st0" d="M293.8,33.4L293.8,33.4c0-3.4,2.7-6.2,6.3-6.2c3.6,0,6.3,2.7,6.3,6.1l0,0c0,3.3-2.7,6.1-6.3,6.1    C296.5,39.5,293.8,36.8,293.8,33.4z M303.7,33.4L303.7,33.4c0-2.1-1.5-3.8-3.6-3.8c-2.2,0-3.5,1.7-3.5,3.7l0,0    c0,2.1,1.5,3.8,3.6,3.8C302.3,37.2,303.7,35.5,303.7,33.4z M301.3,22.3l2.5,1.1l-2.7,2.6h-2L301.3,22.3z"/>
		<path class="st0" d="M308.9,27.5h2.7v1.8c0.8-1.1,1.9-2.1,3.7-2.1c2.7,0,4.2,1.8,4.2,4.5v7.5h-2.8v-6.7c0-1.8-0.9-2.9-2.5-2.9    s-2.7,1.1-2.7,2.9v6.6h-2.7V27.5H308.9z"/>
	</g>
	<g>
		<path class="st1" d="M22.1,28.7h-3.3c-0.7,0-1.1-0.3-1.3-0.5c-0.2-0.2-0.3-0.5-0.3-0.8c0,0,0,0,0-0.1c0-0.3,0-0.6,0-1    c0.4-2.1,1.3-3.5,2-4.4c-0.1,0-0.2-0.1-0.2-0.1c-0.4-0.3-0.7-0.8-0.6-1.3c0.1-0.7,0.8-1.4,0.9-1.5c1.1-1.3,2.8-1.4,3-1.4    s2.4-0.1,3.6,2.2c1.4,2.7,1.7,5,2,6.8v0.1c0,0.3,0,0.6,0,0.8c0,0,0,0,0,0.1c-0.1,0.3-0.2,0.4-0.3,0.6c-0.3,0.3-0.7,0.5-1.3,0.6    c-0.2,0-0.4,0-0.6,0c-0.1,0-0.1,0-0.1,0h-0.9l0,0l0,0h-1.6v4.6h14.5c0-2.7-0.4-5.3-1.2-7.7s-1.8-4.5-3.2-6.3s-3-3.2-4.8-4.2    s-3.8-1.5-5.8-1.5s-4,0.5-5.8,1.5s-3.4,2.4-4.8,4.2s-2.5,3.9-3.2,6.3c-0.8,2.4-1.2,5-1.2,7.7h14.5C22.1,33.4,22.1,28.7,22.1,28.7z    "/>
		<path class="st2" d="M7.5,33.3c0,2,0.2,4,0.7,5.9c6.5-0.7,10.4-1.5,11.5-2.3c0.8-0.6,1.5-0.9,2.3-0.9v-2.8L7.5,33.3L7.5,33.3z"/>
		<path class="st2" d="M23,36.2c0.6,0.1,1,0.3,1.5,0.5h0.1c0.8,0,1.5,0.2,2.5,0.6c0.3,0.1,0.6,0.2,0.9,0.3c0.1,0,4.8,1.5,8.8,1.7    c0.5-1.9,0.7-3.9,0.7-6H23V36.2z"/>
		<path class="st3" d="M21.6,11"/>
		<path class="st3" d="M18.6,11.5"/>
		<path class="st2" d="M29,42.5c-0.1,0.1-0.1,0.3-0.3,0.4c-0.2,0.2-0.6,0.4-1,0.4c-0.1,0.1-0.1,0.2-0.2,0.4    c-0.2,0.3-0.6,0.5-1.3,0.5c-0.1,0.1-0.1,0.2-0.3,0.3c-0.3,0.3-0.8,0.5-1.2,0.4c-0.1,0.1-0.3,0.2-0.5,0.3c-0.3,0.1-0.7,0.2-1.2,0.1    V49c0,0.3-0.2,0.5-0.5,0.5S22,49.3,22,49v-3.7c-0.2,0.1-0.4,0.1-0.6,0.1c-0.1,0-0.2,0-0.3,0c-0.3-0.1-0.5-0.2-0.7-0.4    c-0.3,0.1-0.9,0.1-1.3-0.2c-0.2-0.1-0.3-0.3-0.4-0.5c-0.1,0-0.3,0-0.5-0.1c-0.4-0.1-0.7-0.4-0.9-0.7c-0.1,0-0.2,0-0.3,0    c-0.4-0.1-0.8-0.2-1-0.6c0-0.1-0.1-0.2-0.1-0.3c-2.1,1.1-4.4,2.1-5.5,2.6c0.4,0.7,0.9,1.4,1.3,2c1.4,1.8,3,3.2,4.8,4.2    c0.8,0.5,1.7,0.8,2.6,1.1c0.1-0.2,0.2-0.3,0.4-0.4c0.8-0.5,2.4-0.1,2.9,0c0.4-0.1,2-0.5,2.9,0c0.2,0.1,0.3,0.2,0.4,0.4    c0.9-0.3,1.7-0.6,2.6-1.1c1.8-1,3.4-2.4,4.8-4.2c0.5-0.6,0.9-1.2,1.3-1.9C33.2,44.9,30.6,43.8,29,42.5"/>
		<path class="st4" d="M23.9,55.6c0-0.1,0-0.2,0-0.3s0-0.2,0-0.3c0.5-0.1,1.3-0.3,1.7-0.9c0.3-0.3,0.4-0.7,0.3-1.1    c0-0.4-0.2-0.7-0.5-0.8c-0.8-0.5-2.4-0.1-2.9,0c-0.4-0.1-2-0.5-2.9,0c-0.3,0.2-0.5,0.5-0.5,0.8c0,0.4,0.1,0.8,0.3,1.1    c0.4,0.5,1.2,0.8,1.7,0.9c0,0.1,0,0.2,0,0.3s0,0.2,0,0.3c-0.4,0.3-1.5,1.3-3.2,1.5c0,0.1,0.2,0.3,0.5,0.6c1.5-0.3,2.5-1.1,3-1.5    c0,0.1,0.1,0.1,0.2,0.1c-0.1,0.4-0.5,1.4-2.3,1.9c0.3,0.1,0.7,0.2,1.1,0.3c1.2-0.6,1.7-1.4,1.9-1.9c0.1,0,0.2,0,0.3,0    c0.1,0,0.2,0,0.3,0c0.2,0.5,0.6,1.4,1.9,1.9c0.4-0.1,0.8-0.2,1.1-0.3c-1.8-0.4-2.2-1.5-2.3-1.9c0.1,0,0.1-0.1,0.2-0.1    c0.5,0.4,1.5,1.2,3,1.5c0.3-0.3,0.4-0.5,0.5-0.6C25.4,56.9,24.3,55.9,23.9,55.6"/>
		<path class="st2" d="M25.1,52.7c0.1,0.1,0.2,0.2,0.2,0.4s0,0.4-0.2,0.6c-0.2,0.2-0.5,0.4-0.8,0.5c0.2-0.3,0.2-0.7,0.1-1    s-0.3-0.5-0.5-0.7C24.3,52.5,24.8,52.5,25.1,52.7"/>
		<path class="st2" d="M21.4,53.4c0.2-0.6,1.2-0.7,1.2-0.7s0.2,0,0.5,0.1s0.6,0.3,0.7,0.6s-0.1,0.6-0.3,0.8    c-0.2-0.2-0.6-0.3-0.9-0.3c-0.4,0-0.7,0.1-0.9,0.3C21.5,54.1,21.3,53.7,21.4,53.4"/>
		<path class="st2" d="M20.8,54.2c-0.3-0.1-0.6-0.3-0.8-0.5c-0.1-0.2-0.2-0.4-0.2-0.6c0-0.2,0.1-0.3,0.2-0.4    c0.2-0.1,0.5-0.2,0.8-0.2c0.1,0,0.3,0,0.4,0c-0.2,0.2-0.4,0.4-0.5,0.7C20.6,53.6,20.7,53.9,20.8,54.2"/>
		<path class="st2" d="M21.8,55.3c0-0.4,0.3-0.7,0.7-0.7c0.4,0,0.7,0.3,0.7,0.7S23,56,22.6,56S21.8,55.7,21.8,55.3"/>
		<path class="st2" d="M26.6,57.7c-1.5-0.3-2.5-1.1-3-1.5c0,0.1-0.1,0.1-0.2,0.1c0.1,0.4,0.6,1.4,2.3,1.9    C26.1,58,26.4,57.9,26.6,57.7"/>
		<path class="st2" d="M21.5,56.2c-0.5,0.4-1.5,1.2-3,1.5c0.2,0.2,0.5,0.4,0.8,0.5c1.8-0.4,2.2-1.5,2.3-1.9    C21.6,56.3,21.6,56.2,21.5,56.2"/>
		<path class="st3" d="M40.7,37.1c0-0.1,0-0.2-0.1-0.3s-0.1-0.1-0.2-0.1c0.1-0.1,0.1-0.3,0.2-0.4c0.2-0.6,0.3-1.3,0.4-2.1    c0-0.1,0-0.2-0.1-0.3C40.7,34,40.6,34,40.6,34c0-0.1,0.1-0.3,0.1-0.4c0.2-0.6,0.2-1.3,0.1-2.1c0-0.1-0.1-0.2-0.2-0.2    c-0.1,0-0.1,0-0.2,0c0-0.2,0.1-0.3,0.1-0.5c0.1-0.6,0.1-1.4-0.1-2.1c0-0.1-0.1-0.2-0.2-0.2c-0.1,0-0.1,0-0.2,0c0-0.1,0-0.2,0-0.3    c0.1-0.6,0-1.4-0.2-2.1c0-0.1-0.1-0.2-0.2-0.2c-0.1,0-0.2,0-0.3,0l0,0c0-0.2,0-0.3,0-0.5c0-0.7-0.2-1.4-0.5-2.1    c0-0.1-0.1-0.2-0.2-0.2c-0.1,0-0.2,0-0.2,0c0-0.2,0-0.3,0-0.5c-0.1-0.6-0.3-1.3-0.7-2c0-0.1-0.1-0.2-0.2-0.2c-0.1,0-0.2,0-0.2,0.1    c0-0.1-0.1-0.3-0.1-0.4c-0.2-0.6-0.5-1.3-0.9-1.9c-0.1-0.1-0.2-0.1-0.3-0.1s-0.2,0.1-0.3,0.1c-0.1-0.2-0.1-0.3-0.2-0.5    c-0.3-0.6-0.7-1.2-1.2-1.8c-0.1-0.1-0.2-0.1-0.3-0.1c-0.1,0-0.1,0.1-0.2,0.1c-0.1-0.2-0.2-0.3-0.3-0.5c-0.4-0.5-0.8-1.1-1.5-1.5    c-0.1-0.1-0.2-0.1-0.3,0c-0.1,0-0.1,0.1-0.2,0.2c-0.4-0.5-1-0.9-1.7-1.2c0.1,0,0.3,0,0.4,0c0.9,0.1,1.5-0.1,1.5-0.1    c0.2-0.1,0.3-0.2,0.3-0.4s-0.2-0.3-0.4-0.3c-0.9,0-1.3-0.2-1.7-0.5c-0.1,0-0.2-0.1-0.3-0.1l2.2-0.3c0.2,0,0.3-0.2,0.3-0.4    s-0.1-0.4-0.3-0.4l-2.2-0.3c0.3-0.1,0.5-0.2,0.9-0.3c0.8-0.3,1.3-0.7,1.3-0.7C31.9,9,32,8.8,31.9,8.6c0.2-0.5,0-0.6-0.2-0.5    c-0.9,0.3-1.3,0.3-1.8,0.2c-0.1,0-0.2,0-0.3,0l1.9-1.1c0.2-0.2,0.3-0.4,0.2-0.5c-0.1-0.2-0.3-0.3-0.5-0.2L29.1,7    c0.2-0.2,0.5-0.4,0.7-0.6c0.6-0.6,0.9-1.1,1-1.1c0.1-0.2,0-0.4-0.1-0.5c-0.2-0.1-0.4-0.1-0.5,0c-0.7,0.6-1.1,0.7-1.6,0.9    c-0.1,0-0.2,0.1-0.3,0.1L29.6,4c0.1-0.2,0.1-0.4,0-0.5s-0.4-0.2-0.5,0l-1.8,1.3c0.1-0.3,0.2-0.5,0.4-0.8c0.4-0.8,0.4-1.4,0.4-1.4    c0-0.2-0.1-0.4-0.3-0.4c-0.2,0-0.4,0-0.5,0.2c-0.4,0.8-0.7,1.1-1.1,1.4C26.1,3.9,26.1,3.9,26,4l0.5-2.1c0-0.2-0.1-0.4-0.2-0.5    c-0.2-0.1-0.4,0-0.5,0.2l-1.1,1.8c0-0.3,0.1-0.6,0.1-0.9c0-0.9-0.1-1.5-0.1-1.5c-0.1-0.2-0.2-0.3-0.4-0.3c-0.2,0-0.3,0.2-0.3,0.4    c0,0.9-0.2,1.3-0.5,1.7c0,0.1-0.1,0.2-0.1,0.3l-0.3-2.2c0-0.2-0.2-0.3-0.4-0.3l0,0c-0.2,0-0.4,0.1-0.4,0.3L22,3.1    c-0.1-0.3-0.2-0.5-0.3-0.8C21.4,1.5,21,1,21,1c-0.1-0.1-0.3-0.2-0.5-0.1s-0.2,0.3-0.2,0.5c0.3,0.9,0.3,1.3,0.2,1.8    c0,0.1,0,0.2,0,0.3l-1.2-1.9c-0.1-0.2-0.3-0.2-0.5-0.2c-0.2,0.1-0.3,0.3-0.2,0.5L19.1,4c-0.2-0.2-0.4-0.4-0.6-0.7    c-0.6-0.6-1.1-0.9-1.2-1c-0.2-0.1-0.4,0-0.5,0.1s-0.1,0.4,0,0.5c0.6,0.7,0.7,1.1,0.9,1.6c0,0.1,0.1,0.2,0.1,0.3L16,3.5    c-0.2-0.1-0.4-0.1-0.5,0s-0.2,0.4,0,0.5l1.3,1.8c-0.2-0.1-0.5-0.3-0.8-0.4c-0.7-0.4-1.3-0.5-1.4-0.5c-0.2,0-0.4,0.1-0.4,0.3    c-0.1,0.2,0,0.4,0.2,0.5c0.9,0.4,1.1,0.7,1.4,1.1C15.9,6.9,15.9,6.9,16,7l-2.2-0.5c-0.2,0-0.4,0-0.5,0.2s0,0.4,0.2,0.5l1.9,1.1    c-0.3,0-0.6-0.1-0.9-0.1C13.6,8.1,13,8.3,13,8.3c-0.1,0.1-0.2,0.3-0.2,0.5s0.2,0.3,0.4,0.3c0.9,0,1.3,0.2,1.7,0.5    c0.1,0,0.2,0.1,0.3,0.1L13,10c-0.2,0-0.3,0.2-0.3,0.4s0.1,0.4,0.3,0.4l2.2,0.3c-0.3,0.1-0.6,0.2-0.9,0.3c-0.8,0.3-1.3,0.7-1.3,0.7    c-0.1,0.1-0.2,0.3-0.1,0.5c0.1,0.2,0.3,0.2,0.5,0.2c0.5-0.2,0.9-0.2,1.2-0.3c-0.5,0.4-0.8,0.7-1,1c-0.1,0.1-0.2,0.2-0.2,0.3    c0-0.1-0.1-0.1-0.2-0.1c-0.1,0-0.2,0-0.3,0c-0.6,0.5-1.1,1-1.5,1.6c-0.1,0.2-0.2,0.3-0.3,0.5c0-0.1-0.1-0.1-0.2-0.1    c-0.1,0-0.2,0-0.3,0.1c-0.5,0.6-0.9,1.2-1.2,1.8c-0.1,0.2-0.1,0.3-0.2,0.5C9.1,18.1,9.1,18,9,18c-0.1,0-0.2,0-0.3,0.1    c-0.5,0.6-0.8,1.3-1,1.9c0,0.2-0.1,0.3-0.1,0.5c-0.1-0.1-0.2-0.1-0.3-0.1s-0.2,0.1-0.2,0.2c-0.4,0.7-0.6,1.4-0.7,2    c0,0.2,0,0.3,0,0.5C6.3,23,6.2,23,6.1,23s-0.2,0.1-0.2,0.2c-0.3,0.7-0.4,1.4-0.4,2.1c0,0.2,0,0.3,0,0.5c-0.1,0-0.2-0.1-0.3,0    C5.1,25.8,5,25.9,5,26c-0.2,0.8-0.2,1.5-0.2,2.1c0,0.1,0,0.2,0.1,0.4H4.8c-0.1,0-0.2,0.1-0.2,0.2c-0.1,0.8-0.2,1.5-0.1,2.1    c0,0.2,0.1,0.3,0.1,0.5H4.5c-0.1,0-0.2,0.1-0.2,0.2c-0.1,0.8-0.1,1.5,0.1,2.1c0,0.1,0.1,0.3,0.1,0.4c-0.1,0-0.1,0-0.2,0    c-0.1,0.1-0.1,0.2-0.1,0.3c0,0.8,0.1,1.5,0.3,2.1c0.1,0.2,0.1,0.4,0.2,0.5l0,0c-0.1,0-0.2,0-0.3,0.1c-0.1,0.1-0.1,0.2-0.1,0.3    c0.1,0.8,0.3,1.5,0.7,2c0.1,0.1,0.1,0.2,0.2,0.3c-0.1,0-0.1,0-0.1,0.1C5,39.8,5,39.9,5,40c0.2,0.8,0.5,1.4,0.8,2    c0.1,0.1,0.2,0.3,0.3,0.4c-0.1,0-0.2,0.1-0.2,0.1c-0.2,0-0.2,0.1-0.2,0.2c0.3,0.7,0.6,1.4,1,1.9c0.1,0.1,0.2,0.2,0.3,0.3    c-0.1,0-0.1,0.1-0.2,0.1c-0.1,0.1-0.1,0.2,0,0.3C7.2,46,7.6,46.6,8,47c0.1,0.1,0.2,0.2,0.3,0.3c-0.1,0-0.1,0.1-0.2,0.2    c0,0.1,0,0.2,0,0.3c0.6,0.7,1.1,1.2,1.6,1.6c0.2,0.1,0.3,0.2,0.5,0.3h-0.1c-0.1,0-0.2,0.1-0.2,0.2c0,0.1,0,0.2,0.1,0.3    c0.5,0.6,1.1,1,1.7,1.3c0.5,0.3,0.9,0.4,1.4,0.5c0.4,0.1,0.8,0.1,1.1,0c0,0,0,0,0.1,0c1,0.7,2,1.2,3.1,1.7    c0.9,0.4,1.8,0.7,2.7,0.8c0.2,0,0.4,0.1,0.5,0.1c-0.4-0.1-0.8-0.4-1-0.7c0-0.1-0.1-0.1-0.1-0.2c-0.6-0.2-1.3-0.4-1.9-0.6    c-1-0.4-2-1-2.9-1.6l0,0c0-0.3,0-0.6-0.1-0.9c0.7,0.5,1.3,1,1.9,1.3c0.9,0.5,1.8,0.9,2.8,1.1c0-0.1,0-0.1,0-0.2    c0-0.2,0.1-0.3,0.1-0.4c-0.9-0.3-1.7-0.6-2.6-1.1c-1.8-1-3.4-2.4-4.8-4.2c-0.5-0.6-0.9-1.3-1.3-2c1.1-0.5,3.4-1.5,5.5-2.6    c0,0.1,0,0.2,0.1,0.3c0.2,0.4,0.6,0.6,1,0.6c0.1,0,0.2,0,0.3,0c0.1,0.3,0.4,0.6,0.9,0.7c0.2,0.1,0.3,0.1,0.5,0.1    c0.1,0.2,0.2,0.3,0.4,0.5c0.4,0.3,1,0.2,1.3,0.2c0.2,0.2,0.4,0.4,0.7,0.4c0.1,0,0.2,0,0.3,0c0.2,0,0.4-0.1,0.6-0.1V49    c0,0.3,0.2,0.5,0.5,0.5s0.5-0.2,0.5-0.5v-3.8c0.5,0.1,0.9,0,1.2-0.1c0.2-0.1,0.4-0.2,0.5-0.3c0.5,0.1,0.9,0,1.2-0.4    c0.1-0.1,0.2-0.2,0.3-0.3c0.7,0,1.1-0.2,1.3-0.5c0.1-0.1,0.2-0.3,0.2-0.4c0.4,0,0.7-0.1,1-0.4c0.1-0.1,0.2-0.2,0.3-0.4    c1.7,1.3,4.3,2.4,5.4,2.9c-0.4,0.7-0.8,1.3-1.3,1.9c-1.4,1.8-3,3.2-4.8,4.2c-0.8,0.5-1.7,0.8-2.6,1.1c0.1,0.1,0.1,0.3,0.1,0.4    c0,0.1,0,0.1,0,0.2c0.9-0.3,1.9-0.6,2.8-1.1c0.7-0.4,1.3-0.9,1.9-1.4c-0.1,0.3-0.1,0.6-0.1,1l0,0c-0.3,0.2-1,0.8-2.1,1.3    c-0.8,0.4-1.7,0.7-2.6,1h-0.1L25.8,54c-0.3,0.3-0.7,0.5-1.1,0.7c0.5-0.1,1-0.2,1.4-0.3c0.9-0.2,1.8-0.6,2.7-1    c1.2-0.6,1.9-1.1,2.2-1.4l0,0c0.3,0.1,0.7,0.1,1.1,0c0.5-0.1,0.9-0.3,1.4-0.5c0.6-0.3,1.1-0.8,1.7-1.3c0.1-0.1,0.1-0.2,0.1-0.3    s-0.1-0.2-0.2-0.2l0,0c0.2-0.1,0.3-0.2,0.5-0.3c0.5-0.4,1-0.9,1.4-1.6c0.1-0.1,0.1-0.2,0-0.3c0-0.1-0.1-0.1-0.2-0.2    c0.1-0.1,0.2-0.2,0.3-0.3c0.5-0.5,0.9-1,1.3-1.7c0-0.1,0-0.2,0-0.3s-0.1-0.1-0.2-0.2c0.1-0.1,0.2-0.2,0.3-0.3    c0.4-0.5,0.8-1.1,1-1.9c0-0.1,0-0.2,0-0.3c-0.1-0.1-0.1-0.1-0.2-0.1c0.1-0.1,0.2-0.2,0.3-0.4c0.4-0.5,0.7-1.2,0.8-2    c0-0.1,0-0.2-0.1-0.3s-0.2-0.1-0.3-0.1c0.1-0.1,0.2-0.3,0.2-0.4C40.4,38.6,40.6,37.9,40.7,37.1 M40.4,34.7L40.4,34.7    c0,0.5-0.1,1-0.3,1.5c-0.2,0.4-0.4,0.8-0.6,1.1c-0.3,0.4-0.6,0.6-0.8,0.6l0,0l0,0c-0.4-0.6-0.6-1.3-0.6-2.1c0-0.3,0-0.5,0.1-0.8    l0,0l0,0c0.4,0.5,0.6,1.1,0.6,1.1c0,0.1,0.1,0.1,0.2,0.2c0.1,0,0.2,0,0.2-0.1C39.5,35.4,40,34.9,40.4,34.7    C40.3,34.7,40.4,34.7,40.4,34.7 M40.3,31.9L40.3,31.9L40.3,31.9c0,0.5,0,1-0.1,1.5c-0.1,0.4-0.3,0.8-0.5,1.2    c-0.3,0.4-0.6,0.6-0.7,0.7l0,0l0,0c-0.8-0.9-0.8-2.1-0.8-2.8l0,0l0,0c0.4,0.4,0.7,1,0.7,1c0,0.1,0.1,0.1,0.2,0.1    c0.1,0,0.2-0.1,0.2-0.2C39.5,32.7,40,32.2,40.3,31.9 M40,29.1L40,29.1L40,29.1c0.1,0.5,0.1,1,0,1.5s-0.2,0.9-0.4,1.2    c-0.2,0.4-0.5,0.7-0.6,0.8l0,0l0,0c-0.7-0.6-1-2-1-2.7l0,0l0,0c0.4,0.4,0.8,0.9,0.8,0.9c0,0.1,0.1,0.1,0.2,0.1    c0.1,0,0.2-0.1,0.2-0.2C39.3,29.9,39.7,29.4,40,29.1 M39.6,26.4L39.6,26.4L39.6,26.4c0.1,0.5,0.1,1,0.1,1.5s-0.2,0.9-0.4,1.3    s-0.5,0.7-0.6,0.8l0,0l0,0c-0.6-0.5-0.9-1.3-1.1-1.9c-0.1-0.3-0.1-0.5-0.1-0.8l0,0l0,0c0.5,0.4,0.8,0.9,0.8,0.9    c0.1,0.1,0.1,0.1,0.2,0.1c0.1,0,0.2-0.1,0.2-0.2C38.9,27.3,39.3,26.7,39.6,26.4 M18,26.6v-0.1c0.4-1.8,1.1-3.1,1.6-3.8    c0.4-0.5,0.8-0.9,1-1c0.1,0,0.1-0.1,0.2-0.1c0.2-0.2,0.2-0.4,0.1-0.6s-0.4-0.2-0.6-0.1c0,0-0.1,0.1-0.2,0.1    c-0.4,0.3-0.6,0.2-0.7,0.2c-0.1-0.1-0.2-0.3-0.2-0.5c0.1-0.4,0.5-0.9,0.7-1.1l0,0c0.9-1.1,2.4-1.1,2.4-1.1s0,0,0.1,0    c0,0,0.5,0,1,0.1c0.8,0.3,1.4,0.8,1.8,1.6c0.6,1.1,1,2.2,1.3,3.4c-0.8-0.3-1.5-0.8-1.5-0.8c-0.2-0.2-0.5-0.1-0.6,0.1    c-0.1,0.1-0.1,0.2-0.1,0.3c0,0.1,0.1,0.2,0.2,0.3c0,0,1,0.8,2.3,1.1c0.1,0.4,0.2,0.8,0.2,1.3c-0.4-0.2-0.8-0.3-1.2-0.4    c-0.3-0.1-0.5-0.1-0.7-0.2c-0.8-0.3-1.5-0.9-1.5-0.9c-0.2-0.2-0.5-0.1-0.6,0.1c-0.2,0.2-0.1,0.5,0.1,0.6c0,0,0.8,0.6,1.8,1    c0.2,0.1,0.5,0.2,0.8,0.2c1.1,0.3,1.5,0.5,1.5,1c0,0.1-0.1,0.2-0.1,0.2c-0.3,0.4-1.1,0.4-1.3,0.4l0,0h-1c-0.2,0-1.2,0-2.1-0.6    C20.3,25.8,19.3,26.1,18,26.6 M21.8,27.9h-3c-0.3,0-0.5-0.1-0.6-0.2l-0.1-0.1C19.4,27,20,26.8,21.8,27.9 M23,33.3v-4.6h1.6l0,0    l0,0h0.9h0.1c0.1,0,0.3,0,0.6,0c0.6-0.1,1-0.3,1.3-0.6c0.1-0.1,0.2-0.3,0.3-0.6c0,0,0,0,0-0.1c0.1-0.2,0.1-0.5,0-0.8v-0.1    c-0.3-1.8-0.6-4.1-2-6.8c-1.2-2.3-3.4-2.2-3.6-2.2s-1.9,0.1-3,1.4c-0.1,0.1-0.8,0.8-0.9,1.5c-0.1,0.6,0.1,1.1,0.6,1.3    c0.1,0,0.1,0.1,0.2,0.1c-0.7,0.9-1.6,2.3-2,4.4c-0.1,0.4-0.1,0.7,0,1c0,0,0,0,0,0.1c0.1,0.3,0.2,0.6,0.3,0.8    c0.2,0.2,0.6,0.5,1.3,0.5H22v4.6V36c-0.9,0-1.5,0.3-2.3,0.9c-1.2,0.8-5,1.5-11.5,2.3c-0.5-1.9-0.7-3.9-0.7-5.9    c0-2.7,0.4-5.3,1.2-7.7s1.8-4.5,3.2-6.3s3-3.2,4.8-4.2s3.8-1.5,5.8-1.5s4,0.5,5.8,1.5s3.4,2.4,4.8,4.2c1.4,1.8,2.5,3.9,3.2,6.3    c0.8,2.4,1.2,5,1.2,7.7c0,2.1-0.2,4.1-0.7,6c-4-0.2-8.6-1.7-8.8-1.7c-0.3-0.1-0.6-0.2-0.9-0.3c-1-0.4-1.7-0.6-2.5-0.6h-0.1    c-0.5-0.2-0.9-0.4-1.5-0.5V33.3z M29.2,12.6c-0.2,0.1-0.6,0.2-1,0.3C27.9,13,27.6,13,27.4,13c-0.6,0-1.1-0.1-1.5-0.4l0,0l0,0    c0.2-0.1,0.5-0.2,0.9-0.3s0.8-0.1,1.2,0C28.4,12.2,28.8,12.4,29.2,12.6L29.2,12.6L29.2,12.6 M29.8,14.2L29.8,14.2L29.8,14.2    c-0.2,0.1-0.4,0.2-0.8,0.2h-0.1c-0.7,0-1.3-0.2-2-0.7l0,0l0,0c0.3-0.1,0.6-0.1,0.8-0.2C28.6,13.4,29.2,13.7,29.8,14.2 M26.6,11.7    c-0.3,0.1-0.7,0.3-1.4,0.4c-0.1,0-0.2,0.1-0.2,0.2c0,0.1,0,0.2,0.1,0.2c0,0,0.5,0.4,0.9,0.9l0,0l0,0c-0.6,0-1.9-0.2-2.7-1.2l0,0    c0.1-0.1,0.4-0.3,0.7-0.5C24.8,11.4,25.6,11.4,26.6,11.7C26.6,11.7,26.7,11.7,26.6,11.7C26.7,11.7,26.7,11.7,26.6,11.7 M23.7,11.3    c-0.2,0.2-0.6,0.4-1.3,0.6c-0.1,0-0.2,0.1-0.2,0.2c0,0.1,0.1,0.2,0.2,0.2c0,0,0.6,0.2,1,0.6l0,0l0,0c-0.2,0-0.4,0-0.6,0    c-0.7,0-1.6-0.1-2.3-0.7l0,0c0.1-0.2,0.3-0.4,0.6-0.6C21.8,11.3,22.7,11.2,23.7,11.3C23.7,11.2,23.7,11.2,23.7,11.3L23.7,11.3     M20.8,11.3c-0.2,0.2-0.5,0.6-1.2,0.9c-0.1,0-0.1,0.1-0.1,0.2c0,0.1,0.1,0.2,0.2,0.2c0,0,0.6,0.1,1.2,0.4l0,0l0,0    c-0.3,0.1-0.5,0.1-0.8,0.2c-0.2,0-0.5,0.1-0.8,0.1c-0.4,0-0.9-0.1-1.4-0.3l0,0c0.1-0.2,0.2-0.4,0.5-0.7    C18.8,11.8,19.7,11.4,20.8,11.3L20.8,11.3L20.8,11.3 M16.9,13.1c-0.1,0.1-0.1,0.2-0.1,0.3s0.1,0.1,0.2,0.1l0,0c0,0,0.3,0,0.6,0    c0.2,0,0.4,0.1,0.6,0.1l0,0l0,0c-0.2,0.1-0.5,0.2-0.7,0.3c-0.5,0.2-1,0.3-1.4,0.3c-0.3,0-0.6,0-0.8-0.1l0,0    c0.1-0.5,0.6-1.7,2.6-2.4l0,0l0,0C17.8,12.1,17.5,12.6,16.9,13.1 M38.1,25.5c0.1-0.8,0.3-1.4,0.6-1.8l0,0l0,0    c0.2,0.5,0.3,1,0.3,1.5s0,0.9-0.2,1.3c-0.2,0.5-0.4,0.8-0.5,0.9l0,0l0,0c-0.6-0.4-1-0.9-1.3-1.7c-0.1-0.2-0.2-0.5-0.2-0.8l0,0l0,0    c0.5,0.3,0.9,0.8,1,0.8c0.1,0.1,0.2,0.1,0.2,0.1C38.1,25.7,38.1,25.6,38.1,25.5 M37.2,22.9c0-0.8,0.2-1.4,0.4-1.8l0,0l0,0    c0.2,0.5,0.4,1,0.4,1.4c0.1,0.5,0,0.9,0,1.3c-0.1,0.5-0.3,0.8-0.4,0.9l0,0l0,0c-0.6-0.3-1.1-0.8-1.5-1.6c-0.1-0.2-0.2-0.5-0.3-0.7    l0,0l0,0c0.6,0.3,1,0.7,1,0.7c0.1,0.1,0.2,0.1,0.3,0C37.1,23.1,37.2,23,37.2,22.9 M35.9,20.8L35.9,20.8c0.1,0,0.1-0.1,0.1-0.2    c-0.1-0.8,0-1.4,0.2-1.8l0,0l0,0c0.3,0.5,0.5,0.9,0.6,1.4c0.1,0.4,0.2,0.9,0.1,1.3c0,0.5-0.2,0.8-0.3,1l0,0l0,0    c-0.7-0.2-1.3-0.7-1.7-1.4c-0.1-0.2-0.3-0.5-0.4-0.7l0,0l0,0c0.6,0.2,1.1,0.6,1.1,0.6C35.7,20.8,35.8,20.8,35.9,20.8 M34.2,18.5    c0.1,0.1,0.2,0.1,0.3,0s0.1-0.2,0.1-0.3c-0.2-0.7-0.2-1.4-0.1-1.8l0,0l0,0c0.3,0.4,0.6,0.8,0.8,1.2c0.2,0.4,0.3,0.8,0.3,1.3    s-0.1,0.8-0.1,1l0,0l0,0c-0.7-0.1-1.3-0.5-1.9-1.1c-0.2-0.2-0.4-0.4-0.5-0.7l0,0l0,0C33.6,18.2,34.2,18.5,34.2,18.5 M32.4,16.6    c0.1,0,0.2,0,0.3-0.1s0.1-0.2,0-0.3c-0.4-0.7-0.4-1.4-0.4-1.8l0,0l0,0c0.4,0.3,0.7,0.7,1,1.1c0.3,0.4,0.4,0.8,0.5,1.2    c0.1,0.5,0.1,0.9,0.1,1l0,0l0,0c-0.8,0-1.5-0.4-2-0.8c-0.2-0.2-0.5-0.4-0.7-0.6l0,0l0,0h0.1C31.9,16.4,32.4,16.6,32.4,16.6     M31.7,14.8c0.2,0.5,0.2,0.9,0.2,1.1l0,0h-0.1c-1,0-2.1-0.6-2.7-1l0,0l0,0c0.6-0.1,1.2,0,1.2,0c0.1,0,0.2,0,0.2-0.1s0-0.2,0-0.3    c-0.4-0.5-0.6-1-0.7-1.4l0,0l0,0C30.8,13.4,31.4,14,31.7,14.8 M14.4,12h0.1c0.6-0.2,1.1-0.3,1.4-0.4c0.6-0.1,1.1-0.4,1.1-0.4    c0.1,0,0.1-0.1,0.1-0.2c0-0.1-0.1-0.1-0.1-0.1l-2.8-0.4l2.8-0.4c0.1,0,0.1-0.1,0.1-0.2c0-0.1-0.1-0.1-0.1-0.2c0,0-0.6-0.1-1.2-0.4    c-0.2-0.1-0.3-0.2-0.5-0.2C15,9,14.7,8.8,14.4,8.7h0.1c0.6,0,1.1,0.1,1.4,0.2c0.6,0.1,1.1,0,1.2,0c0.1,0,0.1-0.1,0.1-0.1    c0-0.1,0-0.1-0.1-0.2l-2.4-1.4l2.7,0.7c0.1,0,0.2,0,0.2-0.1s0-0.2-0.1-0.2c0,0-0.5-0.3-1-0.8c-0.1-0.1-0.2-0.3-0.4-0.4    c0-0.2-0.1-0.4-0.4-0.6c0,0,0.1,0,0.1,0.1c0.5,0.3,1,0.5,1.2,0.7c0.5,0.3,1,0.5,1.1,0.5s0.1,0,0.2-0.1c0-0.1,0-0.1,0-0.2l-1.7-2.2    l2.2,1.6c0.1,0,0.2,0,0.2,0c0.1-0.1,0.1-0.1,0-0.2c0-0.1-0.4-0.5-0.6-1.1c-0.1-0.2-0.1-0.4-0.2-0.5c-0.1-0.3-0.2-0.5-0.3-0.8    L18,3.7c0.4,0.4,0.7,0.9,0.9,1.1c0.4,0.5,0.8,0.8,0.8,0.8c0.1,0,0.1,0,0.2,0S20,5.5,20,5.4l-0.7-2.7l1.4,2.4    c0,0.1,0.1,0.1,0.2,0.1S21,5.1,21,5c0,0-0.1-0.6-0.1-1.3c0-0.2,0-0.4,0-0.5c0-0.3,0.1-0.5,0-0.9v0.1c0.2,0.6,0.3,1.1,0.4,1.4    c0.1,0.6,0.4,1,0.4,1.1S21.8,5,21.9,5S22,4.9,22,4.9l0.4-2.7l0.4,2.7C22.8,5,22.9,5,23,5s0.1-0.1,0.2-0.1c0,0,0.1-0.6,0.4-1.2    c0.1-0.2,0.2-0.3,0.2-0.5c0.1-0.2,0.3-0.5,0.4-0.8v0.1c0,0.6-0.1,1.1-0.2,1.4C23.9,4.5,24,5,24,5c0,0.1,0.1,0.1,0.1,0.1    c0.1,0,0.1,0,0.2-0.1l1.4-2.4L25,5.3c0,0.1,0,0.2,0.1,0.2s0.2,0,0.2-0.1s0.3-0.5,0.8-1c0.1-0.1,0.3-0.2,0.4-0.4    c0.2-0.2,0.4-0.3,0.6-0.6c0,0,0,0.1-0.1,0.1c-0.3,0.5-0.5,1-0.7,1.2c-0.3,0.5-0.5,1-0.5,1.1s0,0.1,0.1,0.2C26,6,26,6,26.1,6    l2.2-1.7l-1.7,2.2c0,0.1,0,0.1,0,0.2C26.9,7,27,7,27.1,7c0,0,0.5-0.4,1.1-0.6c0.2-0.1,0.3-0.1,0.5-0.2C29,6.1,29.2,6,29.5,5.9    L29.4,6c-0.4,0.4-0.9,0.7-1.1,0.9c-0.5,0.4-0.8,0.8-0.8,0.8c0,0.1,0,0.1,0,0.2S27.6,8,27.7,8l2.7-0.7L28,8.7    c-0.1,0-0.1,0.1-0.1,0.2C27.9,9,28,9,28.1,9s0.6-0.1,1.3-0.1c0.2,0,0.4,0,0.5,0c0.3,0,0.5,0.1,0.9,0h-0.1    c-0.6,0.2-1.1,0.3-1.4,0.4c-0.6,0.1-1.1,0.4-1.1,0.4c-0.1,0-0.1,0.1-0.1,0.2c0,0.1,0.1,0.1,0.1,0.1l2.7,0.4l-2.7,0.4    c-0.1,0-0.1,0.1-0.1,0.2c0,0.1,0.1,0.1,0.1,0.2c0.1,0,0.6,0.1,1.2,0.4c0.2,0.1,0.3,0.2,0.5,0.2c0.2,0.1,0.5,0.3,0.8,0.4h-0.1    c-0.6,0-1.1-0.1-1.4-0.2h-0.1c-0.5-0.2-1-0.3-1.5-0.3l0,0c0-0.1-0.1-0.2-0.2-0.2c-0.7-0.3-1.4-0.4-2.1-0.4c-0.2,0-0.5,0-0.7,0V11    c0-0.1-0.1-0.2-0.2-0.2c-0.8-0.1-1.5-0.1-2.1,0c-0.2,0-0.5,0.1-0.7,0.2c0-0.1,0-0.1-0.1-0.2c-0.1-0.1-0.2-0.1-0.3-0.1    c-0.8,0.1-1.5,0.2-2.1,0.5c-0.2,0.1-0.3,0.1-0.4,0.2c0-0.1,0-0.2-0.1-0.2c-0.1-0.1-0.2-0.1-0.3-0.1c-0.8,0.2-1.4,0.5-2,0.9l0,0    c-0.1,0-0.3,0-0.4,0c-0.1,0-0.5,0-0.5,0C15,12,14.7,11.9,14.4,12 M15.1,12.8C15.2,12.8,15.2,12.8,15.1,12.8    C15.2,12.8,15.2,12.8,15.1,12.8c0,0.4-0.1,1.1-0.6,1.8c-0.1,0.1,0,0.2,0,0.3c0.1,0.1,0.1,0.1,0.2,0.1c0,0,0.6-0.1,1.2-0.1l0,0l0,0    c-0.5,0.4-1.5,1.1-2.6,1.1h-0.1l0,0C13.2,15.4,13.4,14,15.1,12.8 M11.4,16.7c0.1-0.4,0.3-0.8,0.5-1.2c0.3-0.4,0.6-0.8,1-1.1l0,0    l0,0c0,0.4,0,1.1-0.4,1.8c0,0.1,0,0.2,0,0.3c0.1,0.1,0.2,0.1,0.3,0.1c0,0,0.6-0.2,1.2-0.2l0,0l0,0c-0.3,0.2-0.5,0.4-0.7,0.6    c-0.5,0.4-1.2,0.8-1.8,0.8h-0.1l0,0C11.3,17.6,11.3,17.2,11.4,16.7 M10.8,16.4L10.8,16.4L10.8,16.4c0.1,0.4,0.2,1.1-0.1,1.9    c0,0.1,0,0.2,0.1,0.3c0.1,0.1,0.2,0.1,0.3,0c0,0,0.5-0.3,1.2-0.4l0,0l0,0c-0.4,0.6-1.3,1.6-2.4,1.8l0,0l0,0    C9.6,19.4,9.3,18.1,10.8,16.4 M8.3,20c0.1-0.4,0.4-0.9,0.6-1.3l0,0l0,0c0.1,0.4,0.3,1,0.1,1.9c0,0.1,0,0.2,0.1,0.2    c0.1,0,0.2,0,0.3,0c0,0,0.5-0.5,1.1-0.5l0,0l0,0c-0.1,0.2-0.2,0.5-0.5,0.8c-0.5,0.7-1.1,1.1-1.8,1.3l0,0l0,0    c-0.1-0.1-0.2-0.5-0.2-1C8.1,20.9,8.2,20.5,8.3,20 M7,22.5c0.1-0.5,0.2-0.9,0.4-1.4l0,0l0,0l0,0c0.2,0.4,0.4,1,0.4,1.8    c0,0.1,0,0.2,0.1,0.2s0.2,0,0.3,0c0,0,0.5-0.4,1.1-0.7l0,0l0,0c-0.1,0.2-0.1,0.5-0.2,0.7c-0.4,0.7-0.9,1.3-1.7,1.6l0,0l0,0    c-0.1-0.1-0.3-0.5-0.4-0.9C7,23.4,7,23,7,22.5 M6.3,23.7L6.3,23.7L6.3,23.7c0.3,0.3,0.6,0.9,0.6,1.8c0,0.1,0.1,0.2,0.2,0.2    c0.1,0,0.2,0,0.2-0.1c0,0,0.4-0.5,1-0.8l0,0l0,0c0,0.2-0.1,0.5-0.2,0.7c-0.3,0.8-0.7,1.4-1.4,1.8l0,0l0,0    c-0.1-0.1-0.3-0.4-0.5-0.9C6.1,26,6,25.6,6,25.1C6.1,24.7,6.2,24.2,6.3,23.7 M5.5,26.4L5.5,26.4L5.5,26.4c0.3,0.3,0.7,0.9,0.8,1.7    c0,0.1,0.1,0.2,0.2,0.2c0.1,0,0.2,0,0.2-0.1c0,0,0.4-0.5,0.9-0.9l0,0l0,0c0,0.2,0,0.5-0.1,0.7c-0.2,0.8-0.6,1.4-1.1,2l0,0l0,0    c-0.1-0.1-0.4-0.4-0.6-0.8s-0.3-0.8-0.4-1.3C5.4,27.4,5.4,26.9,5.5,26.4 M5.1,29.1L5.1,29.1L5.1,29.1c0.3,0.3,0.7,0.8,0.9,1.6    c0,0.1,0.1,0.2,0.2,0.2s0.2,0,0.2-0.1c0,0,0.3-0.5,0.7-0.9l0,0l0,0c0,0.3,0,0.5-0.1,0.8c-0.1,0.8-0.5,1.5-1,1.9l0,0l0,0    c-0.1-0.1-0.4-0.4-0.6-0.8C5.2,31.4,5.1,31,5,30.6C5,30.1,5,29.6,5.1,29.1 M4.9,32L4.9,32C4.9,31.9,4.9,31.9,4.9,32    C5,32,5,32.1,5.1,32.2c0.3,0.3,0.6,0.7,0.8,1.4c0,0.1,0.1,0.2,0.2,0.2s0.2-0.1,0.2-0.2c0,0,0.1-0.6,0.6-1l0,0l0,0    c0.1,0.3,0.1,0.8,0,1.3c-0.1,0.6-0.4,1.2-0.8,1.6l0,0l0,0C5.7,35.1,4.7,34.1,4.9,32 M4.8,34.7L4.8,34.7c0.1,0,0.1,0.1,0.2,0.2    c0.3,0.2,0.7,0.7,1,1.3c0,0.1,0.1,0.1,0.2,0.1l0,0c0.1,0,0.2-0.1,0.2-0.1s0.3-0.6,0.7-1.1l0,0l0,0c0.1,0.6,0.2,1.7-0.7,2.9l0,0    l0,0C5.9,37.8,4.8,36.9,4.8,34.7L4.8,34.7 M4.9,37.6L4.9,37.6L4.9,37.6c0.4,0.2,1,0.5,1.4,1.2c0.1,0.1,0.1,0.1,0.2,0.1    c0.2,0,0.2,0,0.2-0.1l0,0l0,0c0,0,0.2-0.7,0.5-1.2l0,0l0,0c0.1,0.2,0.2,0.5,0.3,0.7c0.2,0.8,0,1.5-0.4,2.3l0,0l0,0    c-0.1,0-0.5-0.2-0.9-0.5c-0.3-0.3-0.6-0.6-0.8-1C5.2,38.6,5,38.1,4.9,37.6 M5.6,40.3L5.6,40.3L5.6,40.3c0.1,0,0.2,0,0.2,0.1    c0.3,0.2,0.8,0.5,1.3,1c0.1,0.1,0.2,0.1,0.2,0.1c0.1,0,0.2-0.1,0.2-0.2c0,0,0.1-0.6,0.4-1.2l0,0l0,0l0,0c0.3,0.6,0.6,1.8,0.1,3    l0,0l0,0C7.5,42.9,6.2,42.4,5.6,40.3 M7.2,44.2c-0.3-0.4-0.5-0.8-0.8-1.3l0,0l0,0C6.5,43,6.6,43,6.7,43c0.4,0.1,0.9,0.4,1.4,0.9    C8.1,44,8.2,44,8.3,44c0.1,0,0.1-0.1,0.1-0.2c0,0,0-0.6,0.2-1.2l0,0l0,0c0.1,0.2,0.2,0.5,0.3,0.7c0.3,0.8,0.3,1.5,0.1,2.2l0,0l0,0    c-0.1,0-0.5-0.1-0.9-0.4C7.8,44.9,7.5,44.6,7.2,44.2 M7.6,45.5L7.6,45.5L7.6,45.5c0.4,0,1.1,0.2,1.7,0.8c0.1,0.1,0.2,0.1,0.3,0    c0.1,0,0.1-0.1,0.1-0.2c0,0-0.1-0.6,0.1-1.2l0,0l0,0c0.2,0.2,0.3,0.5,0.4,0.7c0.3,0.5,0.5,1.3,0.4,2.1l0,0l0,0    c-0.2,0-0.5-0.1-1-0.2c-0.4-0.2-0.8-0.4-1.1-0.7C8.2,46.4,7.8,46,7.6,45.5 M12.9,50.1c0,0-0.2-0.6-0.3-1.2l0,0l0,0    c0.5,0.4,1.4,1.4,1.4,2.6l0,0c-0.1,0-0.2,0-0.4,0s-0.3,0-0.6-0.1c-0.7,0-1.5-0.4-2.3-1.2l0,0l0,0c0.4-0.1,1.1-0.1,1.9,0.2    c0.1,0,0.2,0,0.3-0.1C12.9,50.3,13,50.2,12.9,50.1 M10.8,48.5c0.1,0.1,0.2,0,0.3,0c0.1-0.1,0.1-0.2,0.1-0.2s-0.1-0.6-0.1-1.2l0,0    l0,0c0.4,0.5,1.2,1.6,1.1,2.7l0,0h-0.1c-0.2,0-0.5,0-0.9-0.1c-0.4-0.1-0.8-0.3-1.2-0.6c-0.4-0.3-0.7-0.6-1-1.1l0,0l0,0    C9.5,47.9,10.1,48,10.8,48.5 M19.9,42.4c-0.1,0-0.1,0.1-0.2,0.1c-0.5,0.3-0.8,0.7-0.9,1.1c-0.1,0-0.1,0-0.2,0    c-0.4-0.1-0.4-0.3-0.4-0.4c0-0.2,0.1-0.4,0.4-0.6c0.3-0.3,0.6-0.5,0.9-0.5c0.1,0,0.2,0,0.2,0.1C19.8,42.2,19.9,42.3,19.9,42.4    L19.9,42.4 M20.4,44.3c-0.2,0-0.6,0.1-0.8-0.1c0,0-0.1-0.1-0.1-0.2c0-0.3,0.4-0.7,0.6-0.8c0.4-0.3,0.7-0.4,0.9-0.4    c0.1,0,0.2,0,0.3,0.1c0.1,0.1,0.1,0.1,0.1,0.2c0,0.1-0.1,0.3-0.3,0.3C20.8,43.7,20.5,44,20.4,44.3 M22.3,44.4    c-0.1,0.1-0.7,0.4-1,0.4c-0.1,0-0.1,0-0.2-0.1c0.2-0.3,0.5-0.6,0.9-0.8c0.4-0.3,0.6-0.1,0.6-0.1c0.1,0.1,0.1,0.1,0.1,0.2    S22.5,44.3,22.3,44.4C22.4,44.4,22.4,44.4,22.3,44.4 M18.2,41.9c-0.1,0-0.1,0.1-0.2,0.2c-0.2,0.2-0.5,0.5-0.6,0.8    c-0.1,0-0.1,0-0.2,0c-0.2,0-0.4-0.1-0.4-0.2c0,0-0.1-0.1,0.1-0.3c0.2-0.3,0.7-0.5,1-0.5H18l0,0C18.1,41.8,18.2,41.8,18.2,41.9     M28.2,42.3c-0.1,0.1-0.3,0.2-0.5,0.2c-0.3-0.4-1.2-1.5-2.2-2c-0.1,0-0.2-0.1-0.3,0c-0.1,0-0.2,0.1-0.2,0.2c0,0.1-0.1,0.2,0,0.3    c0,0.1,0.1,0.2,0.2,0.2c0.9,0.4,1.7,1.3,1.9,1.7c0,0.1-0.1,0.1-0.1,0.2c-0.1,0.2-0.4,0.2-0.6,0.2c-0.1-0.2-0.3-0.5-0.5-0.7    c-0.3-0.4-1-0.8-1-0.9c-0.1-0.1-0.2-0.1-0.3-0.1c-0.1,0-0.2,0.1-0.2,0.2c-0.1,0.1-0.1,0.2-0.1,0.3s0.1,0.2,0.2,0.2    c0.2,0.1,0.7,0.5,0.9,0.7c0.3,0.3,0.4,0.5,0.4,0.6s-0.1,0.2-0.2,0.2c-0.1,0.1-0.3,0.2-0.5,0.2c-0.1-0.2-0.3-0.6-0.7-1.1    c-0.1-0.2-0.4-0.2-0.5,0c-0.1,0.1-0.1,0.2-0.1,0.3s0,0.2,0.1,0.3c0.3,0.3,0.4,0.6,0.5,0.8c-0.1,0-0.1,0.1-0.2,0.1    c-0.2,0.1-0.4,0.1-0.6,0.1c0.1-0.1,0.2-0.3,0.2-0.5s0-0.5-0.3-0.9c-0.2-0.2-0.5-0.3-0.9-0.3c0-0.2-0.2-0.4-0.4-0.6    c-0.4-0.3-0.8-0.4-1.2-0.2c-0.1-0.2-0.2-0.4-0.6-0.6c-0.3-0.2-0.7-0.2-1-0.1C19.1,41,18.7,41,18.6,41c-0.5-0.1-1.2,0.2-1.6,0.6    c-2.2,1.2-5.1,2.4-6.2,3c-1.1-1.1-1.6-2.3-2-3.6c-0.1-0.3-0.2-0.7-0.3-1.1c3.3-0.4,5.9-0.7,7.8-1.1c2-0.4,3.3-0.8,3.9-1.2    c0.8-0.5,1.3-0.8,2-0.7c0.2,0,0.3,0,0.5,0.1c-0.1,0.1-0.3,0.1-0.4,0.2c-0.3,0.2-0.5,0.4-0.7,0.5s-0.3,0.2-0.5,0.4    c-0.1,0.1-0.3,0.2-0.5,0.3c-0.5,0.2-0.8,0.4-0.9,0.7s-0.1,0.6,0.2,0.9c0.3,0.5,0.9,0.5,1.4,0.4c0.5,0,1.1-0.2,1.6-0.5    c0.2-0.1,0.3-0.2,0.4-0.3c0.2-0.1,0.4-0.2,0.5-0.3l0,0c0.4-0.1,0.8-0.1,1.4,0.1c0.5,0.2,0.9,0.5,1.4,0.7c1,0.7,1.8,1.5,2,1.8    C28.3,42.1,28.3,42.2,28.2,42.3 M29.6,42c-0.3-0.2-0.6-0.5-0.7-0.6l0,0l0,0c0,0,0-0.1-0.1-0.1c-0.3-0.4-1.1-1.2-2-1.8    c-0.7-0.5-2-1.3-3.3-1c-0.3,0.1-0.5,0.2-0.7,0.4c-0.1,0.1-0.2,0.2-0.4,0.2c-0.4,0.2-0.9,0.4-1.2,0.4c-0.4,0-0.6,0-0.7-0.1    s-0.1-0.2-0.1-0.2c0.1-0.1,0.4-0.2,0.5-0.3c0.2-0.1,0.4-0.2,0.6-0.3c0.2-0.2,0.4-0.3,0.6-0.4c0.2-0.1,0.3-0.3,0.6-0.5    c0.4-0.3,0.8-0.3,1.4-0.3l0,0c0.1,0,0.2,0,0.3,0c0.1,0,0.2,0,0.2,0c0.7,0,1.3,0.2,2.2,0.5c0.3,0.1,0.6,0.2,0.9,0.3    c0.1,0,1.3,0.4,3,0.8c1.5,0.4,3.7,0.8,5.7,0.9c-0.1,0.3-0.2,0.7-0.3,1c-0.4,1.3-1,2.6-1.6,3.8C33.7,44.3,31.2,43.2,29.6,42     M34.4,50.2c-1,0.9-1.8,1.2-2.4,1.4c-0.2,0-0.4,0.1-0.6,0.1s-0.3,0-0.4,0l0,0c0-0.7,0.2-1.4,0.8-2c0.2-0.2,0.4-0.4,0.6-0.6l0,0    l0,0c-0.1,0.6-0.3,1.1-0.3,1.2c0,0.1,0,0.2,0,0.3c0.1,0.1,0.2,0.1,0.3,0.1C33.3,50.1,33.9,50.1,34.4,50.2L34.4,50.2L34.4,50.2     M36.1,47.9c-0.3,0.4-0.7,0.8-1,1.1c-0.4,0.3-0.8,0.5-1.2,0.6s-0.7,0.1-0.9,0.1h-0.1l0,0c0-0.7,0.2-1.4,0.6-2.1    c0.1-0.2,0.3-0.4,0.5-0.6l0,0l0,0c0.1,0.6-0.1,1.2-0.1,1.2c0,0.1,0,0.2,0.1,0.2c0.1,0.1,0.2,0.1,0.3,0C35,48,35.7,47.9,36.1,47.9    L36.1,47.9L36.1,47.9 M36.7,46.7c-0.3,0.3-0.7,0.6-1.1,0.7c-0.5,0.2-0.8,0.2-1,0.2l0,0c-0.1-0.7,0-1.4,0.4-2.1    c0.1-0.2,0.3-0.5,0.4-0.7l0,0l0,0c0.1,0.6,0.1,1.2,0.1,1.2c0,0.1,0,0.2,0.1,0.2c0.1,0,0.2,0,0.3,0c0.6-0.5,1.3-0.7,1.7-0.8l0,0    l0,0C37.3,46,37,46.4,36.7,46.7 M38,44.2c-0.3,0.4-0.6,0.7-1,0.9s-0.8,0.3-0.9,0.4l0,0l0,0c-0.2-0.7-0.2-1.4,0.1-2.2    c0.1-0.2,0.2-0.5,0.3-0.7l0,0l0,0c0.2,0.6,0.2,1.2,0.2,1.2c0,0.1,0.1,0.2,0.2,0.2c0.1,0,0.2,0,0.2-0.1c0.5-0.6,1-0.8,1.4-0.9    c0.1,0,0.2-0.1,0.2-0.1l0,0l0,0C38.5,43.4,38.3,43.8,38,44.2 M38.9,41.6c-0.3,0.4-0.6,0.7-0.9,1c-0.4,0.3-0.8,0.4-0.9,0.4l0,0l0,0    c-0.3-0.8-0.2-1.6-0.1-2.2c0.1-0.3,0.1-0.5,0.2-0.8l0,0l0,0l0,0c0.2,0.6,0.3,1.2,0.3,1.2c0,0.1,0.1,0.2,0.2,0.2    c0.1,0,0.2,0,0.2-0.1c0.5-0.6,1.1-1,1.5-1.1l0,0l0,0C39.4,40.8,39.2,41.2,38.9,41.6 M39.7,38.9c-0.2,0.4-0.5,0.8-0.8,1.1    s-0.7,0.5-0.8,0.6l0,0l0,0c-0.4-0.6-0.5-1.4-0.4-2.2c0-0.3,0.1-0.5,0.2-0.8l0,0l0,0c0.3,0.5,0.5,1.2,0.5,1.2    c0,0.1,0.1,0.2,0.2,0.2c0.1,0,0.2,0,0.2-0.1c0.4-0.7,1-1.1,1.4-1.3l0,0l0,0C40,38,39.9,38.5,39.7,38.9"/>
		<path class="st5" d="M27.5,11.6c0.5,0,1,0.1,1.5,0.3h0.1c0.3,0,0.8,0.1,1.4,0.2h0.1c-0.3-0.1-0.5-0.2-0.8-0.4    c-0.2-0.1-0.3-0.2-0.5-0.2c-0.6-0.3-1.2-0.4-1.2-0.4C28,11.1,28,11,28,10.9c0-0.1,0.1-0.1,0.1-0.2l2.7-0.4L28.2,10    c-0.1,0-0.1-0.1-0.1-0.1c0-0.1,0-0.1,0.1-0.2c0,0,0.5-0.3,1.1-0.4c0.3-0.1,0.8-0.2,1.4-0.4h0.1c-0.3,0-0.6,0-0.9,0    c-0.2,0-0.3,0-0.5,0c-0.6,0-1.2,0.1-1.3,0.1c-0.1,0-0.2,0-0.2-0.1s0-0.2,0.1-0.2l2.4-1.4L27.7,8c-0.1,0-0.1,0-0.2-0.1    c0-0.1,0-0.1,0-0.2c0,0,0.3-0.4,0.8-0.8C28.5,6.7,29,6.4,29.4,6l0.1-0.1C29.2,6,29,6.1,28.7,6.2c-0.2,0-0.3,0.1-0.5,0.2    C27.5,6.6,27.1,7,27.1,7c-0.1,0-0.2,0-0.2,0c-0.1-0.1-0.1-0.1,0-0.2l1.7-2.2l-2.2,1.7c-0.1,0-0.1,0-0.2,0s-0.1-0.1-0.1-0.2    c0,0,0.1-0.5,0.5-1.1c0.1-0.2,0.4-0.7,0.7-1.2c0,0,0-0.1,0.1-0.1c-0.2,0.2-0.4,0.4-0.6,0.6c-0.1,0.1-0.3,0.2-0.4,0.4    c-0.5,0.4-0.8,0.9-0.8,1s-0.1,0.1-0.2,0.1s-0.1-0.1-0.1-0.2L26,2.9l-1.4,2.4c0,0.1-0.1,0.1-0.2,0.1s-0.1-0.1-0.1-0.1    s-0.1-0.5,0-1.1c0-0.3,0.1-0.8,0.2-1.4V2.7c-0.1,0.3-0.2,0.5-0.4,0.8C24,3.6,23.9,3.8,23.9,4c-0.3,0.6-0.4,1.2-0.4,1.2    c0,0.1-0.1,0.1-0.2,0.1s-0.1-0.1-0.2-0.1l-0.4-2.7l-0.4,2.7c0,0.1-0.1,0.1-0.1,0.1c-0.1,0-0.1,0-0.2-0.1c0,0-0.3-0.5-0.4-1.1    c-0.1-0.3-0.2-0.8-0.4-1.4V2.6c0,0.3,0,0.6,0,0.9c0,0.2,0,0.3,0,0.5c0,0.7,0.1,1.2,0.1,1.3c0,0.1,0,0.2-0.1,0.2S21,5.5,21,5.4    L19.6,3l0.7,2.7c0,0.1,0,0.1-0.1,0.2c-0.1,0-0.1,0-0.2,0c0,0-0.4-0.3-0.8-0.8C19,4.9,18.7,4.4,18.3,4l-0.1-0.1    c0.2,0.3,0.2,0.5,0.3,0.8c0,0.2,0.1,0.3,0.2,0.5c0.2,0.6,0.6,1.1,0.6,1.1c0,0.1,0,0.1,0,0.2c-0.1,0.1-0.1,0.1-0.2,0l-2.2-1.6    l1.7,2.2c0,0.1,0,0.1,0,0.2C18.3,7,18.2,7,18.1,7c0,0-0.5-0.1-1.1-0.5c-0.2-0.1-0.7-0.4-1.2-0.7c0,0-0.1,0-0.1-0.1    c0.2,0.2,0.4,0.4,0.6,0.6c0.1,0.1,0.2,0.3,0.4,0.4c0.5,0.5,1,0.8,1,0.8c0,0.2,0,0.2,0,0.3c0,0.1-0.1,0.1-0.2,0.1l-2.7-0.7l2.4,1.4    c0.1,0,0.1,0.1,0.1,0.2c0,0.1-0.1,0.1-0.1,0.1S16.7,9,16,8.9c-0.3,0-0.8-0.1-1.4-0.2h-0.1C14.7,8.8,15,9,15.2,9.1    c0.1,0.1,0.3,0.2,0.5,0.2c0.6,0.3,1.2,0.4,1.2,0.4C17,9.7,17,9.8,17,9.9c0,0.1-0.1,0.1-0.1,0.2l-2.8,0.4l2.8,0.4    C17,10.9,17,11,17,11c0,0.1,0,0.1-0.1,0.2c0,0-0.5,0.3-1.1,0.4c-0.3,0.1-0.8,0.2-1.4,0.4h-0.1c0.3,0,0.6,0,0.9,0c0,0,0.4,0,0.5,0    s0.3,0,0.4,0l0,0c0.5-0.4,1.2-0.7,2-0.9c0.1,0,0.2,0,0.3,0.1s0.1,0.1,0.1,0.2c0.1-0.1,0.3-0.2,0.4-0.2c0.6-0.3,1.3-0.4,2.1-0.5    c0.1,0,0.2,0,0.3,0.1c0,0.1,0.1,0.1,0.1,0.2c0.2-0.1,0.5-0.2,0.7-0.2c0.6-0.1,1.3-0.1,2.1,0c0.1,0,0.2,0.1,0.2,0.2v0.1    c0.2,0,0.4,0,0.7,0c0.6,0,1.3,0.1,2.1,0.4C27.4,11.4,27.5,11.5,27.5,11.6L27.5,11.6"/>
		<path class="st3" d="M23.5,8.1c2.7-0.4,3,0.3,3,0.3s0.1,0.2,0.3,0.1c0,0,0.2,0,0.1-0.2c0,0-0.3-0.9-1.7-1c0,0-0.7-0.1-1.5,0    c-0.2,0-0.3,0.6-0.3,0.6C23.3,8.2,23.5,8.1,23.5,8.1"/>
		<path class="st3" d="M21.3,8.7c-0.3-0.1-1.1-0.1-1.1-0.1c-1.2,0-1.5,0.8-1.5,0.8c-0.1,0.2,0.1,0.3,0.1,0.3    c0.3,0.1,0.3-0.1,0.3-0.1s0.1-0.2,0.6-0.3c0,0.1,0,0.1,0,0.2c0,0.3,0.3,0.6,0.6,0.6s0.6-0.3,0.6-0.6c0-0.1,0-0.2,0-0.2    c0.2,0.1,0.3,0.2,0.4,0.4c0,0.1,0.1,0.1,0.4,0.1c0.2,0,0.2-0.2,0.2-0.2C21.7,8.8,21.3,8.7,21.3,8.7"/>
		<path class="st3" d="M23.5,9.6c0.2,0,0.3,0,0.4-0.1c0.1-0.2,0.3-0.3,0.4-0.4c0,0.1,0,0.2,0,0.2c0,0.3,0.3,0.6,0.6,0.6    s0.6-0.3,0.6-0.6c0-0.1,0-0.2,0-0.2c0.5,0.1,0.6,0.3,0.6,0.3s0.1,0.2,0.3,0.1c0,0,0.2,0,0.1-0.3c0,0-0.3-0.7-1.5-0.8    c0,0-0.7,0-1.1,0.1c0,0-0.4,0.2-0.5,0.8C23.3,9.5,23.2,9.6,23.5,9.6"/>
		<path class="st3" d="M18.3,8.6c0.2,0.1,0.3-0.1,0.3-0.1s0.3-0.8,3-0.3c0,0,0.2,0,0.2-0.2c0,0-0.1-0.5-0.3-0.6    c-0.8-0.1-1.5,0-1.5,0c-1.4,0.1-1.7,1-1.7,1C18.1,8.6,18.3,8.6,18.3,8.6"/>
		<path class="st6" d="M34.4,50.2c-0.4-0.1-1.1-0.1-1.9,0.2c-0.1,0-0.2,0-0.3-0.1s-0.1-0.2,0-0.3c0,0,0.2-0.6,0.3-1.2l0,0l0,0    c-0.2,0.2-0.4,0.4-0.6,0.6c-0.6,0.7-0.8,1.3-0.8,2l0,0c0.1,0,0.2,0,0.4,0c0.2,0,0.3,0,0.6-0.1C32.5,51.5,33.4,51.1,34.4,50.2    L34.4,50.2L34.4,50.2"/>
		<path class="st6" d="M12.7,49C12.7,49,12.7,48.9,12.7,49C12.6,49,12.6,49,12.7,49c0,0.6,0.3,1.2,0.3,1.2c0,0.1,0,0.2,0,0.3    s-0.3,0-0.4-0.1c-0.8-0.3-1.4-0.3-1.9-0.2l0,0l0,0c0.8,0.7,1.6,1.2,2.4,1.4c0.2,0,0.4,0.1,0.6,0.1c0.2,0,0.3,0,0.4,0l0,0    C14.1,50.3,13.2,49.4,12.7,49"/>
		<path class="st6" d="M36.1,47.9c-0.4,0-1.1,0.2-1.8,0.6c-0.1,0.1-0.2,0-0.3,0c-0.1-0.1-0.1-0.1-0.1-0.2c0,0,0.1-0.6,0.1-1.2l0,0    l0,0c-0.2,0.2-0.3,0.4-0.5,0.6c-0.5,0.7-0.7,1.4-0.6,2.1l0,0H33c0.2,0,0.5,0,0.9-0.1c0.4-0.1,0.8-0.3,1.2-0.6    C35.5,48.7,35.8,48.3,36.1,47.9L36.1,47.9L36.1,47.9"/>
		<path class="st6" d="M37.6,45.5c-0.4,0.1-1.1,0.3-1.7,0.8c-0.1,0.1-0.2,0.1-0.3,0c-0.1,0-0.1-0.1-0.1-0.2c0,0,0.1-0.6-0.1-1.2l0,0    l0,0c-0.2,0.2-0.3,0.4-0.4,0.7c-0.4,0.7-0.5,1.5-0.4,2.1l0,0l0,0c0.1,0,0.5,0,1-0.2c0.4-0.2,0.8-0.4,1.1-0.7    C37,46.4,37.3,46,37.6,45.5L37.6,45.5L37.6,45.5"/>
		<path class="st6" d="M38.7,42.9c-0.1,0-0.2,0-0.2,0.1c-0.3,0.1-0.9,0.4-1.4,0.9C37,44,36.9,44,36.8,44s-0.1-0.1-0.2-0.2    c0,0,0-0.6-0.2-1.2l0,0l0,0c-0.1,0.2-0.2,0.5-0.3,0.7c-0.3,0.8-0.3,1.5-0.1,2.2l0,0l0,0c0.2,0,0.5-0.1,0.9-0.4    c0.4-0.2,0.7-0.5,1-0.9C38.3,43.8,38.5,43.4,38.7,42.9L38.7,42.9L38.7,42.9"/>
		<path class="st6" d="M39.5,40.3c-0.4,0.2-1,0.5-1.5,1.1c-0.1,0.1-0.2,0.1-0.2,0.1c-0.1,0-0.2-0.1-0.2-0.2c0,0-0.1-0.7-0.3-1.2l0,0    l0,0l0,0c-0.1,0.3-0.2,0.5-0.2,0.8c-0.1,0.6-0.2,1.4,0.1,2.2l0,0l0,0c0.1,0,0.5-0.2,0.9-0.4c0.3-0.2,0.6-0.6,0.9-1    C39.2,41.2,39.4,40.8,39.5,40.3C39.6,40.3,39.6,40.3,39.5,40.3C39.6,40.3,39.6,40.3,39.5,40.3"/>
		<path class="st6" d="M40.1,37.5c-0.4,0.2-0.9,0.6-1.4,1.3c0,0.1-0.1,0.1-0.2,0.1c-0.1,0-0.2-0.1-0.2-0.2c0,0-0.2-0.7-0.5-1.2l0,0    l0,0c-0.1,0.3-0.1,0.5-0.2,0.8c-0.1,0.8,0,1.6,0.4,2.2l0,0l0,0c0.2-0.1,0.5-0.2,0.8-0.6c0.3-0.3,0.6-0.6,0.8-1.1    C39.9,38.5,40,38,40.1,37.5L40.1,37.5L40.1,37.5"/>
		<path class="st6" d="M39.1,36.1c0,0.1-0.1,0.1-0.2,0.1c-0.1,0-0.2-0.1-0.2-0.2c0,0-0.2-0.6-0.6-1.1l0,0l0,0    C38,35.2,38,35.4,38,35.7c0,0.8,0.2,1.5,0.6,2.1l0,0l0,0c0.1-0.1,0.5-0.3,0.8-0.6s0.5-0.7,0.6-1.1c0.2-0.4,0.3-0.9,0.3-1.5l0,0    l0,0C40,34.9,39.5,35.4,39.1,36.1"/>
		<path class="st6" d="M39,33.6c-0.1,0-0.2,0-0.2-0.1c0,0-0.3-0.5-0.7-1l0,0l0,0c0,0.7,0,1.9,0.8,2.8l0,0l0,0    c0.1-0.1,0.4-0.3,0.7-0.7c0.2-0.3,0.4-0.7,0.5-1.2c0.1-0.4,0.2-0.9,0.1-1.5l0,0l0,0c-0.3,0.3-0.8,0.8-1,1.5    C39.2,33.5,39.1,33.6,39,33.6"/>
		<path class="st6" d="M38.9,30.9c-0.1,0-0.2,0-0.2-0.1c0,0-0.3-0.5-0.8-0.9l0,0l0,0c0.1,0.7,0.3,2.1,1,2.7l0,0l0,0    c0.1-0.1,0.4-0.4,0.6-0.8c0.2-0.4,0.3-0.8,0.4-1.2c0.1-0.5,0.1-1,0-1.5l0,0l0,0c-0.3,0.3-0.7,0.8-0.9,1.6    C39.1,30.8,39,30.9,38.9,30.9"/>
		<path class="st6" d="M38.6,28.3c-0.1,0-0.2,0-0.2-0.1c0,0-0.4-0.5-0.8-0.9l0,0l0,0c0,0.3,0.1,0.5,0.1,0.8c0.1,0.6,0.4,1.3,1.1,1.9    l0,0l0,0c0.1-0.1,0.4-0.4,0.6-0.8c0.2-0.4,0.3-0.8,0.4-1.3c0-0.5,0-1-0.1-1.5l0,0l0,0c-0.3,0.3-0.6,0.9-0.8,1.7    C38.7,28.2,38.6,28.3,38.6,28.3"/>
		<path class="st6" d="M38,25.7c-0.1,0-0.2,0-0.2-0.1c0,0-0.4-0.5-1-0.8l0,0l0,0c0.1,0.3,0.1,0.5,0.2,0.8c0.3,0.8,0.8,1.4,1.3,1.7    l0,0l0,0c0.1-0.1,0.3-0.4,0.5-0.9c0.1-0.4,0.2-0.8,0.2-1.3s-0.1-0.9-0.3-1.5l0,0l0,0c-0.2,0.4-0.5,1-0.6,1.8    C38.1,25.6,38.1,25.7,38,25.7"/>
		<path class="st6" d="M36.8,23.1c0,0-0.5-0.4-1-0.7l0,0l0,0c0.1,0.3,0.2,0.5,0.3,0.7c0.4,0.7,0.9,1.3,1.5,1.6l0,0l0,0    c0.1-0.1,0.3-0.4,0.4-0.9c0.1-0.4,0.1-0.8,0-1.3s-0.2-0.9-0.4-1.4l0,0l0,0c-0.2,0.4-0.4,1-0.4,1.8c0,0.1,0,0.2-0.1,0.2    C37,23.2,36.9,23.2,36.8,23.1"/>
		<path class="st6" d="M34.5,20.2L34.5,20.2c0.1,0.3,0.2,0.5,0.4,0.7c0.5,0.7,1,1.2,1.7,1.4l0,0l0,0c0.1-0.1,0.2-0.5,0.3-1    c0-0.4,0-0.8-0.1-1.3c-0.1-0.4-0.3-0.9-0.6-1.4l0,0l0,0c-0.1,0.4-0.3,1-0.2,1.8c0,0.1,0,0.2-0.1,0.2s-0.2,0-0.3,0    C35.6,20.7,35.1,20.3,34.5,20.2L34.5,20.2"/>
		<path class="st6" d="M33,18.1C33,18.1,33,18.2,33,18.1c0.2,0.3,0.3,0.5,0.5,0.7c0.6,0.6,1.2,1,1.9,1.1l0,0l0,0    c0.1-0.2,0.1-0.5,0.1-1c0-0.4-0.1-0.8-0.3-1.3c-0.2-0.4-0.5-0.8-0.8-1.2l0,0l0,0c-0.1,0.4-0.1,1.1,0.1,1.8c0,0.1,0,0.2-0.1,0.3    c-0.1,0.1-0.2,0.1-0.3,0C34.2,18.5,33.6,18.2,33,18.1L33,18.1"/>
		<path class="st6" d="M32.7,16.5c-0.1,0.1-0.2,0.1-0.3,0.1c0,0-0.5-0.2-1.1-0.2h-0.1l0,0l0,0c0.2,0.2,0.4,0.4,0.7,0.6    c0.5,0.4,1.2,0.8,2,0.8l0,0l0,0c0-0.1,0-0.5-0.1-1c-0.1-0.4-0.3-0.8-0.5-1.2s-0.6-0.8-1-1.1l0,0l0,0c0,0.4,0.1,1.1,0.4,1.8    C32.8,16.3,32.7,16.4,32.7,16.5"/>
		<path class="st6" d="M12.1,49.8h0.1l0,0c0.1-1.1-0.7-2.2-1.1-2.7l0,0l0,0c-0.1,0.6,0.1,1.2,0.1,1.2c0,0.1,0,0.2-0.1,0.2    c-0.1,0.1-0.2,0.1-0.3,0c-0.7-0.4-1.4-0.6-1.8-0.6l0,0l0,0c0.3,0.4,0.7,0.8,1,1.1c0.4,0.3,0.8,0.5,1.2,0.6    C11.6,49.7,11.9,49.8,12.1,49.8"/>
		<path class="st6" d="M10.6,47.7L10.6,47.7L10.6,47.7c0.2-0.8-0.1-1.6-0.4-2.1c-0.1-0.2-0.3-0.5-0.4-0.7l0,0l0,0    c-0.2,0.6-0.1,1.1-0.1,1.2s0,0.2-0.1,0.2c-0.1,0-0.2,0-0.3,0c-0.7-0.5-1.3-0.7-1.7-0.8l0,0l0,0c0.3,0.5,0.6,0.9,0.9,1.2    c0.3,0.3,0.7,0.6,1.1,0.7C10,47.6,10.4,47.7,10.6,47.7"/>
		<path class="st6" d="M9.1,45.5L9.1,45.5L9.1,45.5c0.2-0.7,0.2-1.4-0.1-2.2c-0.1-0.3-0.2-0.5-0.3-0.7l0,0l0,0    c-0.2,0.6-0.2,1.2-0.2,1.2c0,0.1-0.1,0.2-0.1,0.2c-0.1,0-0.2,0-0.2-0.1c-0.5-0.5-1-0.8-1.4-0.9c-0.2,0-0.3,0-0.4,0l0,0l0,0    c0.2,0.5,0.5,0.9,0.8,1.3c0.3,0.4,0.6,0.7,1,0.9C8.6,45.4,9,45.4,9.1,45.5"/>
		<path class="st6" d="M8,43.1L8,43.1L8,43.1c0.6-1.2,0.2-2.4-0.1-3l0,0l0,0l0,0c-0.3,0.6-0.4,1.2-0.4,1.2c0,0.1-0.1,0.2-0.2,0.2    s-0.2,0-0.2-0.1c-0.4-0.6-0.9-0.9-1.3-1c-0.1,0-0.1-0.1-0.2-0.1l0,0l0,0C6.2,42.4,7.4,42.9,8,43.1"/>
		<path class="st6" d="M6.2,40c0.4,0.3,0.7,0.5,0.9,0.5l0,0l0,0c0.4-0.7,0.6-1.5,0.4-2.3c-0.1-0.3-0.1-0.5-0.3-0.7l0,0l0,0    c-0.3,0.5-0.5,1.2-0.5,1.2l0,0l0,0c0,0.1-0.1,0.2-0.2,0.2c-0.1,0-0.2,0-0.2-0.1c-0.5-0.7-1-1.1-1.4-1.2l0,0l0,0    c0.1,0.5,0.3,1,0.5,1.4C5.6,39.4,5.9,39.8,6.2,40"/>
		<path class="st6" d="M6.4,38L6.4,38L6.4,38c0.9-1.2,0.8-2.3,0.7-2.9l0,0l0,0c-0.4,0.5-0.7,1.1-0.7,1.1c0,0.1-0.1,0.1-0.2,0.1l0,0    c-0.1,0-0.2-0.1-0.2-0.1c-0.3-0.6-0.7-1.1-1-1.3c-0.1-0.1-0.1-0.1-0.2-0.2l0,0l0,0C4.8,36.9,5.9,37.8,6.4,38"/>
		<path class="st6" d="M6.1,35.4C6.1,35.4,6.2,35.4,6.1,35.4C6.2,35.4,6.2,35.4,6.1,35.4c0.4-0.4,0.7-0.9,0.8-1.6c0.1-0.5,0-1,0-1.3    l0,0l0,0c-0.5,0.4-0.6,1-0.6,1c0,0.1-0.1,0.2-0.2,0.2s-0.2-0.1-0.2-0.2c-0.2-0.7-0.6-1.1-0.8-1.4C5,32.1,5,32,4.9,32l0,0l0,0    C4.7,34.1,5.7,35.1,6.1,35.4"/>
		<path class="st6" d="M5.5,31.8c0.2,0.4,0.5,0.7,0.6,0.8l0,0l0,0c0.5-0.5,0.8-1.1,1-1.9c0-0.3,0.1-0.5,0.1-0.8l0,0l0,0    c-0.5,0.4-0.7,0.9-0.7,0.9c0,0.1-0.1,0.1-0.2,0.1c-0.1,0-0.2-0.1-0.2-0.2c-0.2-0.8-0.6-1.3-0.9-1.6l0,0l0,0c-0.1,0.5-0.1,1,0,1.5    C5.2,31.1,5.3,31.5,5.5,31.8"/>
		<path class="st6" d="M5.8,29.1c0.2,0.4,0.5,0.7,0.6,0.8l0,0l0,0c0.6-0.5,1-1.2,1.1-2c0.1-0.2,0.1-0.5,0.1-0.7l0,0l0,0    c-0.5,0.4-0.8,0.9-0.9,0.9c-0.1,0.1-0.1,0.1-0.2,0.1S6.3,28.1,6.3,28c-0.2-0.8-0.5-1.4-0.8-1.7l0,0l0,0c-0.1,0.5-0.1,1-0.1,1.5    C5.5,28.3,5.6,28.8,5.8,29.1"/>
		<path class="st6" d="M6.7,27.3C6.7,27.3,6.8,27.3,6.7,27.3C6.8,27.3,6.8,27.3,6.7,27.3c0.7-0.4,1.2-1,1.5-1.8    c0.1-0.2,0.1-0.5,0.2-0.7l0,0l0,0c-0.6,0.3-1,0.8-1,0.8c-0.1,0.1-0.2,0.1-0.2,0.1c-0.1,0-0.2-0.1-0.2-0.2    c-0.1-0.8-0.4-1.4-0.6-1.8l0,0l0,0c-0.2,0.5-0.2,1-0.3,1.5c0,0.5,0.1,0.9,0.2,1.3C6.4,26.9,6.7,27.2,6.7,27.3"/>
		<path class="st6" d="M7.4,24.7C7.4,24.7,7.4,24.8,7.4,24.7L7.4,24.7c0.8-0.4,1.3-0.9,1.7-1.6c0.1-0.2,0.2-0.4,0.3-0.7l0,0l0,0    c-0.6,0.2-1.1,0.7-1.1,0.7c-0.1,0.1-0.2,0.1-0.3,0c-0.1,0-0.1-0.1-0.1-0.2c0-0.8-0.2-1.4-0.4-1.8l0,0l0,0l0,0    c-0.2,0.5-0.4,1-0.4,1.4C7,23,7,23.4,7.1,23.8C7.1,24.3,7.3,24.6,7.4,24.7"/>
		<path class="st6" d="M8.4,22.3L8.4,22.3L8.4,22.3c0.7-0.2,1.3-0.6,1.8-1.3c0.2-0.3,0.4-0.6,0.5-0.8l0,0l0,0    c-0.7,0.1-1.1,0.5-1.1,0.5c-0.1,0.1-0.2,0.1-0.3,0c-0.1,0-0.1-0.1-0.1-0.2c0.2-0.8,0-1.5-0.1-1.9l0,0l0,0c-0.4,0.5-0.6,1-0.8,1.4    c-0.1,0.4-0.2,0.9-0.2,1.3C8.2,21.8,8.3,22.2,8.4,22.3"/>
		<path class="st6" d="M9.8,19.9L9.8,19.9c1.1-0.2,2-1.2,2.4-1.8l0,0l0,0c-0.7,0.1-1.2,0.4-1.2,0.4c-0.1,0.1-0.2,0.1-0.3,0    s-0.1-0.2-0.1-0.3c0.3-0.8,0.2-1.4,0.1-1.8l0,0l0,0C9.3,18.1,9.6,19.4,9.8,19.9C9.7,19.9,9.7,19.9,9.8,19.9"/>
		<path class="st6" d="M11.3,17.8C11.4,17.8,11.4,17.8,11.3,17.8c0.7,0,1.4-0.4,1.9-0.8c0.2-0.2,0.5-0.4,0.7-0.6l0,0l0,0    c-0.6,0-1.2,0.2-1.2,0.2c-0.1,0-0.2,0-0.3-0.1s-0.1-0.2,0-0.3c0.4-0.7,0.4-1.4,0.4-1.8l0,0l0,0c-0.4,0.4-0.7,0.7-1,1.1    c-0.3,0.4-0.4,0.8-0.5,1.2C11.3,17.2,11.3,17.6,11.3,17.8L11.3,17.8"/>
		<path class="st6" d="M16,14.8c-0.6,0-1.2,0.1-1.2,0.1c-0.1,0-0.2,0-0.2-0.1c-0.1-0.1-0.1-0.2,0-0.3c0.5-0.7,0.6-1.3,0.6-1.8l0,0    l0,0c-1.8,1.3-1.9,2.6-1.9,3.1l0,0h0.1C14.5,15.9,15.5,15.2,16,14.8L16,14.8L16,14.8"/>
		<path class="st6" d="M18.3,13.7c-0.2-0.1-0.4-0.1-0.6-0.1c-0.3,0-0.6,0-0.6,0l0,0c-0.1,0-0.2-0.1-0.2-0.1c0-0.1,0-0.2,0.1-0.3    c0.6-0.5,0.9-1,1-1.3l0,0l0,0c-2.1,0.7-2.5,1.9-2.6,2.4l0,0c0.2,0.1,0.5,0.1,0.8,0.1c0.4,0,0.9-0.1,1.4-0.3    C17.8,14,18.1,13.9,18.3,13.7L18.3,13.7L18.3,13.7"/>
		<path class="st6" d="M20.8,13c-0.5-0.3-1.2-0.4-1.2-0.4c-0.1,0-0.2-0.1-0.2-0.2c0-0.1,0-0.2,0.1-0.2c0.7-0.3,1-0.7,1.2-0.9l0,0    l0,0c-1.1,0.1-1.9,0.5-2.4,1c-0.3,0.3-0.4,0.5-0.5,0.7l0,0c0.5,0.2,1,0.3,1.4,0.3c0.3,0,0.6,0,0.8-0.1    C20.3,13.2,20.5,13.2,20.8,13C20.8,13.1,20.8,13.1,20.8,13C20.8,13.1,20.8,13,20.8,13"/>
		<path class="st6" d="M22.4,12.3c-0.1,0-0.2-0.1-0.2-0.2c0-0.1,0.1-0.2,0.2-0.2c0.7-0.2,1.1-0.5,1.3-0.6l0,0l0,0    c-1.1-0.1-1.9,0.1-2.6,0.5c-0.3,0.2-0.5,0.4-0.6,0.6l0,0c0.7,0.5,1.6,0.7,2.3,0.7c0.2,0,0.4,0,0.6,0l0,0l0,0    C23,12.6,22.4,12.3,22.4,12.3"/>
		<path class="st6" d="M25.1,12.5C25,12.4,25,12.3,25,12.3c0-0.1,0.1-0.2,0.2-0.2c0.7-0.1,1.1-0.2,1.4-0.4l0,0l0,0    c-1-0.3-1.9-0.3-2.6,0c-0.4,0.1-0.6,0.3-0.7,0.5l0,0c0.9,1,2.1,1.2,2.7,1.2l0,0l0,0C25.7,12.9,25.1,12.5,25.1,12.5"/>
		<path class="st6" d="M31.9,15.9L31.9,15.9c0-0.2,0-0.7-0.2-1.1c-0.3-0.8-0.9-1.4-1.9-1.7l0,0l0,0c0.1,0.4,0.4,0.9,0.7,1.4    c0.1,0.1,0.1,0.2,0,0.3s-0.2,0.1-0.2,0.1s-0.6-0.1-1.2,0l0,0l0,0c0.6,0.4,1.7,1,2.7,1H31.9"/>
		<path class="st6" d="M29.8,14.2L29.8,14.2c-0.5-0.6-1.2-0.8-2-0.8c-0.3,0-0.6,0.1-0.8,0.2l0,0l0,0c0.6,0.5,1.3,0.7,2,0.7h0.1    C29.3,14.4,29.6,14.3,29.8,14.2L29.8,14.2"/>
		<path class="st6" d="M25.9,12.6L25.9,12.6c0.4,0.3,0.9,0.4,1.5,0.4c0.2,0,0.5,0,0.8-0.1c0.4-0.1,0.8-0.2,1-0.3l0,0l0,0    c-0.4-0.2-0.8-0.3-1.2-0.4c-0.4-0.1-0.8-0.1-1.2,0C26.4,12.3,26.1,12.4,25.9,12.6L25.9,12.6"/>
		<path class="st7" d="M18.2,27.6c0.1,0.2,0.3,0.2,0.6,0.2h3C20,26.7,19.3,26.9,18.2,27.6C18.1,27.6,18.1,27.6,18.2,27.6"/>
		<path class="st7" d="M25.5,26.3c-0.3-0.1-0.6-0.1-0.8-0.2c-0.9-0.4-1.7-1-1.8-1c-0.2-0.1-0.2-0.4-0.1-0.6c0.2-0.2,0.4-0.2,0.6-0.1    c0,0,0.7,0.6,1.5,0.9c0.2,0.1,0.4,0.1,0.7,0.2c0.4,0.1,0.8,0.2,1.2,0.4c-0.1-0.5-0.2-0.9-0.2-1.3c-1.2-0.3-2.2-1.1-2.3-1.1    c-0.1-0.1-0.1-0.2-0.2-0.3c0-0.1,0-0.2,0.1-0.3c0.2-0.2,0.4-0.2,0.6-0.1c0,0,0.7,0.5,1.5,0.8c-0.3-1.2-0.8-2.3-1.3-3.4    c-0.4-0.8-1-1.3-1.8-1.6c-0.6-0.2-1-0.1-1-0.1l0,0c0,0-1.5,0-2.4,1.1l0,0c-0.2,0.2-0.6,0.7-0.7,1.1c0,0.2,0,0.4,0.2,0.5    c0.1,0,0.3,0.1,0.7-0.2c0.1-0.1,0.2-0.1,0.2-0.1c0.2-0.1,0.5-0.1,0.6,0.1s0.1,0.4-0.1,0.6c-0.1,0-0.1,0.1-0.2,0.1    c-0.2,0.2-0.6,0.5-1,1c-0.5,0.7-1.3,2-1.6,3.8v0.1c1.3-0.5,2.3-0.8,4.5,0.7c0.9,0.6,1.9,0.6,2.1,0.6h1l0,0c0.3,0,1,0,1.3-0.4    c0.1-0.1,0.1-0.1,0.1-0.2C27.1,26.8,26.6,26.5,25.5,26.3"/>
		<path class="st8" d="M21.2,43.4c0.1-0.1,0.2-0.2,0.3-0.3c0-0.1,0-0.1-0.1-0.2c-0.1-0.1-0.2-0.1-0.3-0.1c-0.2,0-0.5,0.2-0.9,0.4    c-0.3,0.2-0.7,0.5-0.6,0.8c0,0.1,0.1,0.2,0.1,0.2c0.2,0.1,0.6,0.1,0.8,0.1C20.5,44,20.8,43.7,21.2,43.4"/>
		<path class="st8" d="M22.7,44c0,0,0-0.1-0.1-0.2c0,0-0.2-0.1-0.6,0.1c-0.3,0.2-0.7,0.4-0.9,0.8c0.1,0.1,0.2,0.1,0.2,0.1    c0.4,0.1,0.9-0.2,1-0.4l0,0C22.5,44.3,22.7,44.1,22.7,44"/>
		<path class="st8" d="M18,41.8L18,41.8c-0.4,0-0.9,0.2-1.1,0.5c-0.1,0.2-0.1,0.3-0.1,0.3c0,0.1,0.2,0.1,0.4,0.2c0.1,0,0.1,0,0.2,0    c0.1-0.4,0.3-0.6,0.6-0.8c0.1-0.1,0.1-0.1,0.2-0.2C18.2,41.8,18.1,41.8,18,41.8C18.1,41.8,18.1,41.8,18,41.8"/>
		<path class="st8" d="M18.2,43.2c0,0.1,0,0.3,0.4,0.4c0.1,0,0.1,0,0.2,0c0.1-0.4,0.4-0.7,0.9-1.1c0.1,0,0.1-0.1,0.2-0.1v-0.1    c0-0.1-0.1-0.1-0.2-0.2c-0.1,0-0.2-0.1-0.2-0.1c-0.2,0-0.5,0.2-0.9,0.5C18.3,42.9,18.2,43,18.2,43.2"/>
		<path class="st8" d="M27.7,42.5c0.2,0,0.4-0.1,0.5-0.2c0.1-0.1,0.2-0.2,0.2-0.4c-0.2-0.3-1-1.2-2-1.8c-0.4-0.3-0.9-0.6-1.4-0.7    c-0.5-0.2-1-0.2-1.4-0.1l0,0c-0.1,0-0.3,0.1-0.5,0.3c-0.1,0.1-0.3,0.2-0.4,0.3c-0.5,0.3-1.1,0.4-1.6,0.5c-0.5,0-1,0.1-1.4-0.4    c-0.2-0.3-0.3-0.6-0.2-0.9c0.1-0.3,0.5-0.5,0.9-0.7c0.2-0.1,0.4-0.2,0.5-0.3c0.2-0.1,0.3-0.2,0.5-0.4c0.2-0.1,0.4-0.3,0.7-0.5    c0.1-0.1,0.3-0.2,0.4-0.2c-0.1,0-0.3,0-0.5-0.1c-0.7-0.1-1.2,0.2-2,0.7c-0.7,0.4-1.9,0.8-3.9,1.2c-1.9,0.4-4.5,0.8-7.8,1.1    c0.3,0.4,0.4,0.7,0.5,1.1c0.4,1.3,0.9,2.5,1.5,3.6c1.2-0.5,4-1.8,6.2-3c0.4-0.4,1.1-0.7,1.6-0.6c0.1,0,0.5,0.1,0.8,0.3    c0.4-0.1,0.7-0.1,1,0.1c0.4,0.2,0.5,0.4,0.6,0.6c0.5-0.1,0.9-0.1,1.2,0.3c0.2,0.2,0.3,0.4,0.4,0.6c0.4-0.1,0.8,0.1,0.9,0.3    c0.3,0.3,0.4,0.6,0.3,0.8c0,0.2-0.1,0.3-0.2,0.5c0.2,0,0.4,0,0.6-0.1c0.1,0,0.1-0.1,0.2-0.1c-0.1-0.2-0.3-0.5-0.5-0.8    c-0.1-0.1-0.1-0.2-0.1-0.3s0.1-0.2,0.1-0.3c0.2-0.1,0.4-0.1,0.5,0c0.4,0.4,0.6,0.8,0.7,1.1c0.2,0,0.4,0,0.5-0.2    c0.1-0.1,0.1-0.2,0.2-0.2c0-0.1-0.1-0.3-0.4-0.6c-0.2-0.3-0.7-0.6-0.9-0.7c-0.1-0.1-0.1-0.1-0.2-0.3c0-0.1,0-0.2,0.1-0.3    s0.1-0.1,0.2-0.2c0.1,0,0.2,0,0.3,0.1c0,0,0.7,0.5,1,0.9c0.2,0.3,0.4,0.5,0.5,0.7c0.3,0,0.5-0.1,0.6-0.2c0-0.1,0.1-0.1,0.1-0.2    c-0.3-0.4-1-1.3-1.9-1.7c-0.1,0-0.2-0.1-0.2-0.2c0-0.1,0-0.2,0-0.3s0.1-0.2,0.2-0.2s0.2,0,0.3,0C26.5,41.1,27.3,42.1,27.7,42.5"/>
		<path class="st8" d="M22.7,38.9c0.3-0.2,0.5-0.3,0.7-0.4c1.3-0.3,2.6,0.5,3.3,1c1,0.6,1.7,1.4,2,1.8c0,0,0,0,0.1,0.1l0,0l0,0    c0.1,0.1,0.3,0.4,0.7,0.6c1.6,1.2,4.1,2.3,5.2,2.7c0.6-1.2,1.2-2.4,1.6-3.8c0.1-0.3,0.2-0.6,0.3-1c-2.1-0.1-4.3-0.6-5.7-0.9    c-1.7-0.4-3-0.8-3-0.8c-0.3-0.1-0.7-0.2-0.9-0.3c-0.9-0.3-1.6-0.6-2.2-0.5c-0.1,0-0.2,0-0.2,0c-0.1,0-0.2,0-0.3,0l0,0    c-0.6,0-1.1,0-1.4,0.3c-0.3,0.2-0.5,0.3-0.6,0.5c-0.2,0.1-0.3,0.3-0.6,0.4c-0.2,0.1-0.4,0.2-0.6,0.3s-0.5,0.2-0.5,0.3    c0,0,0,0.1,0.1,0.2c0.1,0.1,0.3,0.1,0.7,0.1c0.3,0,0.8-0.1,1.2-0.4C22.5,39.1,22.6,39,22.7,38.9"/>
	</g>
</g>
<g>
	<path class="st0" d="M-416.1,36.9l1.7-2c1.5,1.3,3,2,4.9,2c1.7,0,2.8-0.8,2.8-2l0,0c0-1.1-0.6-1.7-3.5-2.4   c-3.4-0.8-5.3-1.7-5.3-4.6l0,0c0-2.7,2.2-4.5,5.3-4.5c2.3,0,4.1,0.7,5.7,2l-1.5,2.1c-1.4-1-2.8-1.6-4.2-1.6c-1.6,0-2.5,0.8-2.5,1.9   l0,0c0,1.2,0.7,1.7,3.7,2.5c3.3,0.8,5,2,5,4.6l0,0c0,2.9-2.3,4.7-5.6,4.7C-412,39.4-414.2,38.5-416.1,36.9z"/>
	<path class="st0" d="M-401.5,34.9v-7.5h2.7v6.7c0,1.8,0.9,2.9,2.5,2.9s2.7-1.1,2.7-2.9v-6.6h2.7v11.8h-2.7v-1.8   c-0.8,1.1-1.9,2.1-3.7,2.1C-400,39.4-401.5,37.6-401.5,34.9z"/>
	<path class="st0" d="M-385.1,37.3v1.8h-2.7V22.9h2.7v6.5c0.9-1.2,2.1-2.2,4-2.2c2.8,0,5.5,2.2,5.5,6.1l0,0c0,3.9-2.7,6.1-5.5,6.1   C-383,39.4-384.3,38.4-385.1,37.3z M-378.3,33.3L-378.3,33.3c0-2.3-1.5-3.8-3.4-3.8c-1.8,0-3.4,1.5-3.4,3.8l0,0   c0,2.3,1.6,3.8,3.4,3.8C-379.9,37.1-378.3,35.6-378.3,33.3z"/>
	<path class="st0" d="M-374,37.6l1.2-1.8c1.3,1,2.7,1.4,3.9,1.4s1.8-0.5,1.8-1.3l0,0c0-0.9-1.2-1.2-2.6-1.7   c-1.7-0.5-3.7-1.2-3.7-3.5l0,0c0-2.2,1.9-3.6,4.2-3.6c1.5,0,3.1,0.5,4.3,1.3l-1.1,1.9c-1.1-0.7-2.3-1.1-3.3-1.1s-1.7,0.5-1.7,1.2   l0,0c0,0.9,1.3,1.2,2.7,1.7c1.7,0.5,3.7,1.3,3.7,3.4l0,0c0,2.5-1.9,3.7-4.4,3.7C-370.7,39.4-372.5,38.8-374,37.6z"/>
	<path class="st0" d="M-362.8,33.3L-362.8,33.3c0-3.4,2.4-6.2,5.8-6.2c3.7,0,5.6,2.9,5.6,6.3c0,0.2,0,0.5,0,0.8h-8.7   c0.3,1.9,1.7,3,3.4,3c1.3,0,2.3-0.5,3.2-1.4l1.6,1.4c-1.1,1.3-2.7,2.2-4.8,2.2C-360.1,39.4-362.8,36.9-362.8,33.3z M-354.1,32.4   c-0.2-1.7-1.2-3.1-3-3.1c-1.7,0-2.8,1.3-3.1,3.1H-354.1z"/>
	<path class="st0" d="M-349.6,33.3L-349.6,33.3c0-3.4,2.6-6.2,6.1-6.2c2.2,0,3.6,0.8,4.7,2l-1.7,1.8c-0.8-0.9-1.7-1.5-3-1.5   c-2,0-3.4,1.7-3.4,3.7l0,0c0,2.1,1.4,3.8,3.5,3.8c1.3,0,2.2-0.6,3.1-1.4l1.6,1.6c-1.2,1.3-2.5,2.2-4.8,2.2   C-347,39.4-349.6,36.7-349.6,33.3z"/>
	<path class="st0" d="M-336.4,27.4h2.7v2.7c0.7-1.8,2.1-3,4.2-2.9v2.9h-0.2c-2.4,0-4,1.5-4,4.7v4.5h-2.7V27.4z"/>
	<path class="st0" d="M-328.5,33.3L-328.5,33.3c0-3.4,2.4-6.2,5.8-6.2c3.7,0,5.6,2.9,5.6,6.3c0,0.2,0,0.5,0,0.8h-8.7   c0.3,1.9,1.7,3,3.4,3c1.3,0,2.3-0.5,3.2-1.4l1.6,1.4c-1.1,1.3-2.7,2.2-4.8,2.2C-325.9,39.4-328.5,36.9-328.5,33.3z M-319.8,32.4   c-0.2-1.7-1.2-3.1-3-3.1c-1.7,0-2.8,1.3-3.1,3.1H-319.8z"/>
	<path class="st0" d="M-314.1,35.9v-6.2h-1.5v-2.3h1.5v-3.2h2.7v3.2h3.2v2.3h-3.2v5.8c0,1,0.5,1.5,1.4,1.5c0.6,0,1.1-0.1,1.7-0.4   v2.2c-0.7,0.4-1.4,0.6-2.4,0.6C-312.7,39.4-314.1,38.5-314.1,35.9z"/>
	<path class="st0" d="M-306.5,35.8L-306.5,35.8c0-2.6,2-3.8,4.9-3.8c1.3,0,2.3,0.2,3.2,0.5v-0.3c0-1.7-1-2.6-2.9-2.6   c-1.3,0-2.3,0.3-3.4,0.7l-0.7-2.1c1.3-0.6,2.6-1,4.4-1c1.8,0,3.1,0.5,3.9,1.3c0.9,0.8,1.3,2.1,1.3,3.6v7h-2.6v-1.5   c-0.8,1-2,1.7-3.8,1.7C-304.5,39.4-306.5,38.1-306.5,35.8z M-298.4,34.9v-0.8c-0.7-0.3-1.6-0.5-2.7-0.5c-1.7,0-2.8,0.7-2.8,2l0,0   c0,1.1,1,1.8,2.3,1.8C-299.8,37.4-298.4,36.4-298.4,34.9z"/>
	<path class="st0" d="M-292.9,27.4h2.7v2.7c0.7-1.8,2.1-3,4.2-2.9v2.9h-0.2c-2.4,0-4,1.5-4,4.7v4.5h-2.7V27.4z"/>
	<path class="st0" d="M-283.7,27.4h2.7v11.8h-2.7V27.4z M-281.2,22.2l2.5,1.1l-2.7,2.6h-2L-281.2,22.2z"/>
	<path class="st0" d="M-278.6,35.8L-278.6,35.8c0-2.6,2-3.8,4.9-3.8c1.3,0,2.3,0.2,3.2,0.5v-0.3c0-1.7-1-2.6-2.9-2.6   c-1.3,0-2.3,0.3-3.4,0.7l-0.7-2.1c1.3-0.6,2.6-1,4.4-1c1.8,0,3.1,0.5,3.9,1.3c0.9,0.8,1.3,2.1,1.3,3.6v7h-2.6v-1.5   c-0.8,1-2,1.7-3.8,1.7C-276.6,39.4-278.6,38.1-278.6,35.8z M-270.5,34.9v-0.8c-0.7-0.3-1.6-0.5-2.7-0.5c-1.7,0-2.8,0.7-2.8,2l0,0   c0,1.1,1,1.8,2.3,1.8C-271.8,37.4-270.5,36.4-270.5,34.9z"/>
	<path class="st0" d="M-259.1,33.3L-259.1,33.3c0-3.9,2.7-6.2,5.5-6.2c1.9,0,3.2,1,4,2.1v-6.3h2.7v16.3h-2.7v-2   c-0.9,1.2-2.1,2.2-4,2.2C-256.4,39.4-259.1,37.2-259.1,33.3z M-249.6,33.3L-249.6,33.3c0-2.3-1.6-3.8-3.4-3.8   c-1.9,0-3.4,1.4-3.4,3.8l0,0c0,2.3,1.6,3.8,3.4,3.8S-249.6,35.5-249.6,33.3z"/>
	<path class="st0" d="M-244.4,33.3L-244.4,33.3c0-3.4,2.4-6.2,5.8-6.2c3.7,0,5.6,2.9,5.6,6.3c0,0.2,0,0.5,0,0.8h-8.7   c0.3,1.9,1.7,3,3.4,3c1.3,0,2.3-0.5,3.2-1.4l1.6,1.4c-1.1,1.3-2.7,2.2-4.8,2.2C-241.8,39.4-244.4,36.9-244.4,33.3z M-235.7,32.4   c-0.2-1.7-1.2-3.1-3-3.1c-1.7,0-2.8,1.3-3.1,3.1H-235.7z"/>
	<path class="st0" d="M-224.5,31.4L-224.5,31.4c0-4.4,3.3-8.1,8.1-8.1c2.7,0,4.4,0.8,6,2.1l-1.7,2.1c-1.2-1-2.4-1.7-4.4-1.7   c-2.9,0-5.1,2.5-5.1,5.5l0,0c0,3.2,2.1,5.6,5.3,5.6c1.5,0,2.8-0.5,3.8-1.2v-2.9h-4v-2.4h6.6V37c-1.5,1.3-3.7,2.4-6.5,2.4   C-221.3,39.4-224.5,35.9-224.5,31.4z"/>
	<path class="st0" d="M-207.5,33.3L-207.5,33.3c0-3.4,2.7-6.2,6.3-6.2s6.3,2.7,6.3,6.1l0,0c0,3.3-2.7,6.1-6.3,6.1   C-204.9,39.4-207.5,36.7-207.5,33.3z M-197.6,33.3L-197.6,33.3c0-2.1-1.5-3.8-3.6-3.8c-2.2,0-3.5,1.7-3.5,3.7l0,0   c0,2.1,1.5,3.8,3.6,3.8C-199,37.1-197.6,35.4-197.6,33.3z"/>
	<path class="st0" d="M-189.8,37.3v1.8h-2.7V22.9h2.7v6.5c0.9-1.2,2.1-2.2,4-2.2c2.8,0,5.5,2.2,5.5,6.1l0,0c0,3.9-2.7,6.1-5.5,6.1   C-187.7,39.4-188.9,38.4-189.8,37.3z M-183,33.3L-183,33.3c0-2.3-1.5-3.8-3.4-3.8c-1.8,0-3.4,1.5-3.4,3.8l0,0   c0,2.3,1.6,3.8,3.4,3.8C-184.5,37.1-183,35.6-183,33.3z"/>
	<path class="st0" d="M-177.7,23h2.9v2.6h-2.9V23z M-177.6,27.4h2.7v11.8h-2.7V27.4z"/>
	<path class="st0" d="M-172.3,33.3L-172.3,33.3c0-3.4,2.4-6.2,5.8-6.2c3.7,0,5.6,2.9,5.6,6.3c0,0.2,0,0.5,0,0.8h-8.7   c0.3,1.9,1.7,3,3.4,3c1.3,0,2.3-0.5,3.2-1.4l1.6,1.4c-1.1,1.3-2.7,2.2-4.8,2.2C-169.6,39.4-172.3,36.9-172.3,33.3z M-163.5,32.4   c-0.2-1.7-1.2-3.1-3-3.1c-1.7,0-2.8,1.3-3.1,3.1H-163.5z"/>
	<path class="st0" d="M-158.4,27.4h2.7v2.7c0.7-1.8,2.1-3,4.2-2.9v2.9h-0.2c-2.4,0-4,1.5-4,4.7v4.5h-2.7V27.4z"/>
	<path class="st0" d="M-149.4,27.4h2.7v1.8c0.8-1.1,1.9-2.1,3.7-2.1c2.7,0,4.2,1.8,4.2,4.5v7.5h-2.7v-6.7c0-1.8-0.9-2.9-2.5-2.9   s-2.7,1.1-2.7,2.9V39h-2.7V27.4z"/>
	<path class="st0" d="M-136.5,33.3L-136.5,33.3c0-3.4,2.7-6.2,6.3-6.2c3.6,0,6.3,2.7,6.3,6.1l0,0c0,3.3-2.7,6.1-6.3,6.1   C-133.8,39.4-136.5,36.7-136.5,33.3z M-126.6,33.3L-126.6,33.3c0-2.1-1.5-3.8-3.6-3.8c-2.2,0-3.5,1.7-3.5,3.7l0,0   c0,2.1,1.5,3.8,3.6,3.8C-128,37.1-126.6,35.4-126.6,33.3z"/>
	<path class="st0" d="M-114.7,23.5h5.8c4.9,0,8.3,3.4,8.3,7.8l0,0c0,4.4-3.4,7.8-8.3,7.8h-5.8V23.5z M-111.9,26v10.6h3.1   c3.3,0,5.4-2.2,5.4-5.3l0,0c0-3.1-2.1-5.3-5.4-5.3C-108.8,26-111.9,26-111.9,26z"/>
	<path class="st0" d="M-97.7,23h2.9v2.6h-2.9V23z M-97.6,27.4h2.7v11.8h-2.7V27.4z"/>
	<path class="st0" d="M-91.7,41.4l1-2c1.3,0.8,2.6,1.3,4.2,1.3c2.4,0,3.7-1.3,3.7-3.6v-0.9c-1,1.3-2.2,2.2-4.1,2.2   c-2.8,0-5.4-2.1-5.4-5.5l0,0c0-3.5,2.6-5.5,5.4-5.5c2,0,3.2,0.9,4.1,2v-1.8h2.7V37c0,2-0.5,3.5-1.5,4.4c-1.1,1.1-2.7,1.6-4.8,1.6   C-88.4,42.8-90.2,42.3-91.7,41.4z M-82.7,32.7L-82.7,32.7c0-2-1.6-3.3-3.5-3.3s-3.3,1.3-3.3,3.2l0,0c0,1.9,1.5,3.2,3.3,3.2   C-84.3,35.9-82.7,34.6-82.7,32.7z"/>
	<path class="st0" d="M-76.9,23h2.9v2.6h-2.9V23z M-76.8,27.4h2.7v11.8h-2.7V27.4z"/>
	<path class="st0" d="M-70.3,35.9v-6.2h-1.5v-2.3h1.5v-3.2h2.7v3.2h3.2v2.3h-3.2v5.8c0,1,0.5,1.5,1.4,1.5c0.6,0,1.1-0.1,1.7-0.4v2.2   c-0.7,0.4-1.4,0.6-2.4,0.6C-68.8,39.4-70.3,38.5-70.3,35.9z"/>
	<path class="st0" d="M-62.7,35.8L-62.7,35.8c0-2.6,2-3.8,4.9-3.8c1.3,0,2.3,0.2,3.2,0.5v-0.3c0-1.7-1-2.6-2.9-2.6   c-1.3,0-2.3,0.3-3.4,0.7l-0.7-2.1c1.3-0.6,2.6-1,4.4-1s3.1,0.5,3.9,1.3c0.9,0.8,1.3,2.1,1.3,3.6v7h-2.6v-1.5c-0.8,1-2,1.7-3.8,1.7   C-60.7,39.4-62.7,38.1-62.7,35.8z M-54.6,34.9v-0.8c-0.7-0.3-1.6-0.5-2.7-0.5c-1.7,0-2.8,0.7-2.8,2l0,0c0,1.1,1,1.8,2.3,1.8   C-56,37.4-54.6,36.4-54.6,34.9z"/>
	<path class="st0" d="M-48.9,22.9h2.7v16.3h-2.7V22.9z"/>
</g>
</svg>