<?xml version="1.0" encoding="UTF-8"?>
<!-- Generator: Adobe Illustrator 22.1.0, SVG Export Plug-In . SVG Version: 6.00 Build 0)  -->
<svg version="1.1" id="Layer_1" xmlns="http://www.w3.org/2000/svg" xmlns:xlink="http://www.w3.org/1999/xlink" x="0px" y="0px" viewBox="0 0 378 59.8" style="enable-background:new 0 0 378 59.8;" xml:space="preserve">
<style type="text/css">
	.st0{fill:#0072BB;}
	.st1{fill:#0095D3;}
	.st2{fill:#FFFFFF;}
	.st3{fill:#211316;}
	.st4{fill:#0086BB;}
	.st5{fill:#E8B426;}
	.st6{fill:#3B9749;}
	.st7{fill:#D6432A;}
	.st8{fill:#E9B17A;}
</style>
<g>
	<g>
		<path class="st0" d="M474.5,23.6h6.2c3.7,0,5.9,2.1,5.9,5.2l0,0c0,3.5-2.8,5.3-6.2,5.3h-3.1v5h-2.7V23.6H474.5z M480.4,31.8    c2.1,0,3.4-1.2,3.4-2.8l0,0c0-1.8-1.3-2.8-3.4-2.8h-3.2v5.6C477.2,31.8,480.4,31.8,480.4,31.8z"/>
		<path class="st0" d="M488.8,27.5h2.7v2.7c0.7-1.8,2.1-3,4.2-2.9v2.9h-0.2c-2.4,0-4,1.5-4,4.7v4.5h-2.7V27.5z"/>
		<path class="st0" d="M496.8,33.4L496.8,33.4c0-3.4,2.4-6.2,5.8-6.2c3.7,0,5.6,2.9,5.6,6.3c0,0.2,0,0.5,0,0.8h-8.7    c0.3,1.9,1.7,3,3.4,3c1.3,0,2.3-0.5,3.2-1.4l1.6,1.4c-1.1,1.3-2.7,2.2-4.8,2.2C499.4,39.5,496.8,37,496.8,33.4z M505.5,32.5    c-0.2-1.7-1.2-3.1-3-3.1c-1.7,0-2.8,1.3-3.1,3.1H505.5z"/>
		<path class="st0" d="M509.7,37.7l1.2-1.8c1.3,1,2.7,1.4,3.9,1.4s1.8-0.5,1.8-1.3l0,0c0-0.9-1.2-1.2-2.6-1.7    c-1.7-0.5-3.7-1.2-3.7-3.5l0,0c0-2.2,1.9-3.6,4.2-3.6c1.5,0,3.1,0.5,4.3,1.3l-1.1,1.9c-1.1-0.7-2.3-1.1-3.3-1.1s-1.7,0.5-1.7,1.2    l0,0c0,0.9,1.3,1.2,2.7,1.7c1.7,0.5,3.7,1.3,3.7,3.4l0,0c0,2.5-1.9,3.7-4.4,3.7C513,39.5,511.1,38.9,509.7,37.7z"/>
		<path class="st0" d="M521.6,23.1h2.9v2.6h-2.9V23.1z M521.7,27.5h2.7v11.8h-2.7V27.5z"/>
		<path class="st0" d="M527.1,33.4L527.1,33.4c0-3.9,2.7-6.2,5.5-6.2c1.9,0,3.2,1,4,2.1V23h2.7v16.3h-2.7v-2c-0.9,1.2-2.1,2.2-4,2.2    C529.8,39.5,527.1,37.3,527.1,33.4z M536.6,33.4L536.6,33.4c0-2.3-1.6-3.8-3.4-3.8c-1.9,0-3.4,1.4-3.4,3.8l0,0    c0,2.3,1.6,3.8,3.4,3.8S536.6,35.6,536.6,33.4z"/>
		<path class="st0" d="M541.8,33.4L541.8,33.4c0-3.4,2.4-6.2,5.8-6.2c3.7,0,5.6,2.9,5.6,6.3c0,0.2,0,0.5,0,0.8h-8.7    c0.3,1.9,1.7,3,3.4,3c1.3,0,2.3-0.5,3.2-1.4l1.6,1.4c-1.1,1.3-2.7,2.2-4.8,2.2C544.4,39.5,541.8,37,541.8,33.4z M550.5,32.5    c-0.2-1.7-1.2-3.1-3-3.1c-1.7,0-2.8,1.3-3.1,3.1H550.5z"/>
		<path class="st0" d="M555.6,27.5h2.7v1.8c0.8-1.1,1.9-2.1,3.7-2.1c2.7,0,4.2,1.8,4.2,4.5v7.5h-2.7v-6.7c0-1.8-0.9-2.9-2.5-2.9    s-2.7,1.1-2.7,2.9v6.6h-2.7V27.5z"/>
		<path class="st0" d="M568.6,33.4L568.6,33.4c0-3.4,2.6-6.2,6.1-6.2c2.2,0,3.6,0.8,4.7,2l-1.7,1.8c-0.8-0.9-1.7-1.5-3-1.5    c-2,0-3.4,1.7-3.4,3.7l0,0c0,2.1,1.4,3.8,3.5,3.8c1.3,0,2.2-0.6,3.1-1.4l1.6,1.6c-1.2,1.3-2.5,2.2-4.8,2.2    C571.2,39.5,568.6,36.8,568.6,33.4z"/>
		<path class="st0" d="M581.7,23.1h2.9v2.6h-2.9V23.1z M581.9,27.5h2.7v11.8h-2.7V27.5z"/>
		<path class="st0" d="M587.1,35.9L587.1,35.9c0-2.6,2-3.8,4.9-3.8c1.3,0,2.3,0.2,3.2,0.5v-0.3c0-1.7-1-2.6-2.9-2.6    c-1.3,0-2.3,0.3-3.4,0.7l-0.7-2.1c1.3-0.6,2.6-1,4.4-1c1.8,0,3.1,0.5,3.9,1.3c0.9,0.8,1.3,2.1,1.3,3.6v7h-2.6v-1.5    c-0.8,1-2,1.7-3.8,1.7C589,39.5,587.1,38.2,587.1,35.9z M595.1,35v-0.8c-0.7-0.3-1.6-0.5-2.7-0.5c-1.7,0-2.8,0.7-2.8,2l0,0    c0,1.1,1,1.8,2.3,1.8C593.8,37.5,595.1,36.5,595.1,35z"/>
		<path class="st0" d="M606.5,33.4L606.5,33.4c0-3.9,2.7-6.2,5.5-6.2c1.9,0,3.2,1,4,2.1V23h2.7v16.3H616v-2c-0.9,1.2-2.1,2.2-4,2.2    C609.2,39.5,606.5,37.3,606.5,33.4z M616,33.4L616,33.4c0-2.3-1.6-3.8-3.4-3.8c-1.9,0-3.4,1.4-3.4,3.8l0,0c0,2.3,1.6,3.8,3.4,3.8    C614.4,37.2,616,35.6,616,33.4z"/>
		<path class="st0" d="M621.2,33.4L621.2,33.4c0-3.4,2.4-6.2,5.8-6.2c3.7,0,5.6,2.9,5.6,6.3c0,0.2,0,0.5,0,0.8h-8.7    c0.3,1.9,1.7,3,3.4,3c1.3,0,2.3-0.5,3.2-1.4l1.6,1.4c-1.1,1.3-2.7,2.2-4.8,2.2C623.8,39.5,621.2,37,621.2,33.4z M629.9,32.5    c-0.2-1.7-1.2-3.1-3-3.1c-1.7,0-2.8,1.3-3.1,3.1H629.9z"/>
		<path class="st0" d="M641.7,23h2.7v16.3h-2.7V23z"/>
		<path class="st0" d="M646.9,35.9L646.9,35.9c0-2.6,2-3.8,4.9-3.8c1.3,0,2.3,0.2,3.2,0.5v-0.3c0-1.7-1-2.6-2.9-2.6    c-1.3,0-2.3,0.3-3.4,0.7l-0.7-2.1c1.3-0.6,2.6-1,4.4-1c1.8,0,3.1,0.5,3.9,1.3c0.9,0.8,1.3,2.1,1.3,3.6v7H655v-1.5    c-0.8,1-2,1.7-3.8,1.7C648.8,39.5,646.9,38.2,646.9,35.9z M654.9,35v-0.8c-0.7-0.3-1.6-0.5-2.7-0.5c-1.7,0-2.8,0.7-2.8,2l0,0    c0,1.1,1,1.8,2.3,1.8C653.6,37.5,654.9,36.5,654.9,35z"/>
		<path class="st0" d="M667.2,23.6h2.5l8.4,10.8V23.6h2.7v15.6h-2.3l-8.6-11.1v11.1h-2.7L667.2,23.6L667.2,23.6z"/>
		<path class="st0" d="M683.5,35.9L683.5,35.9c0-2.6,2-3.8,4.9-3.8c1.3,0,2.3,0.2,3.2,0.5v-0.3c0-1.7-1-2.6-2.9-2.6    c-1.3,0-2.3,0.3-3.4,0.7l-0.7-2.1c1.3-0.6,2.6-1,4.4-1s3.1,0.5,3.9,1.3c0.9,0.8,1.3,2.1,1.3,3.6v7h-2.6v-1.5c-0.8,1-2,1.7-3.8,1.7    C685.5,39.5,683.5,38.2,683.5,35.9z M691.6,35v-0.8c-0.7-0.3-1.6-0.5-2.7-0.5c-1.7,0-2.8,0.7-2.8,2l0,0c0,1.1,1,1.8,2.3,1.8    C690.2,37.5,691.6,36.5,691.6,35z"/>
		<path class="st0" d="M696.5,33.4L696.5,33.4c0-3.4,2.6-6.2,6.1-6.2c2.2,0,3.6,0.8,4.7,2l-1.7,1.8c-0.8-0.9-1.7-1.5-3-1.5    c-2,0-3.4,1.7-3.4,3.7l0,0c0,2.1,1.4,3.8,3.5,3.8c1.3,0,2.2-0.6,3.1-1.4l1.6,1.6c-1.2,1.3-2.5,2.2-4.8,2.2    C699.1,39.5,696.5,36.8,696.5,33.4z"/>
		<path class="st0" d="M709.7,23.1h2.9v2.6h-2.9V23.1z M709.8,27.5h2.7v11.8h-2.7V27.5z"/>
		<path class="st0" d="M715.1,33.4L715.1,33.4c0-3.4,2.7-6.2,6.3-6.2s6.3,2.7,6.3,6.1l0,0c0,3.3-2.7,6.1-6.3,6.1    C717.8,39.5,715.1,36.8,715.1,33.4z M725,33.4L725,33.4c0-2.1-1.5-3.8-3.6-3.8c-2.2,0-3.5,1.7-3.5,3.7l0,0c0,2.1,1.5,3.8,3.6,3.8    C723.6,37.2,725,35.5,725,33.4z M722.6,22.3l2.5,1.1l-2.7,2.6h-2L722.6,22.3z"/>
		<path class="st0" d="M730.2,27.5h2.7v1.8c0.8-1.1,1.9-2.1,3.7-2.1c2.7,0,4.2,1.8,4.2,4.5v7.5H738v-6.7c0-1.8-0.9-2.9-2.5-2.9    s-2.7,1.1-2.7,2.9v6.6h-2.7V27.5H730.2z"/>
	</g>
	<g>
		<path class="st1" d="M443.4,28.7h-3.3c-0.7,0-1.1-0.3-1.3-0.5c-0.2-0.2-0.3-0.5-0.3-0.8c0,0,0,0,0-0.1c0-0.3,0-0.6,0-1    c0.4-2.1,1.3-3.5,2-4.4c-0.1,0-0.2-0.1-0.2-0.1c-0.4-0.3-0.7-0.8-0.6-1.3c0.1-0.7,0.8-1.4,0.9-1.5c1.1-1.3,2.8-1.4,3-1.4    c0.2,0,2.4-0.1,3.6,2.2c1.4,2.7,1.7,5,2,6.8v0.1c0,0.3,0,0.6,0,0.8c0,0,0,0,0,0.1c-0.1,0.3-0.2,0.4-0.3,0.6    c-0.3,0.3-0.7,0.5-1.3,0.6c-0.2,0-0.4,0-0.6,0c-0.1,0-0.1,0-0.1,0H446l0,0l0,0h-1.6v4.6h14.5c0-2.7-0.4-5.3-1.2-7.7    c-0.8-2.4-1.8-4.5-3.2-6.3s-3-3.2-4.8-4.2c-1.8-1-3.8-1.5-5.8-1.5s-4,0.5-5.8,1.5c-1.8,1-3.4,2.4-4.8,4.2    c-1.4,1.8-2.5,3.9-3.2,6.3c-0.8,2.4-1.2,5-1.2,7.7h14.5C443.4,33.4,443.4,28.7,443.4,28.7z"/>
		<path class="st2" d="M428.8,33.3c0,2,0.2,4,0.7,5.9c6.5-0.7,10.4-1.5,11.5-2.3c0.8-0.6,1.5-0.9,2.3-0.9v-2.8L428.8,33.3    L428.8,33.3z"/>
		<path class="st2" d="M444.3,36.2c0.6,0.1,1,0.3,1.5,0.5h0.1c0.8,0,1.5,0.2,2.5,0.6c0.3,0.1,0.6,0.2,0.9,0.3c0.1,0,4.8,1.5,8.8,1.7    c0.5-1.9,0.7-3.9,0.7-6h-14.5V36.2z"/>
		<path class="st3" d="M442.9,11"/>
		<path class="st3" d="M439.9,11.5"/>
		<path class="st2" d="M450.3,42.5c-0.1,0.1-0.1,0.3-0.3,0.4c-0.2,0.2-0.6,0.4-1,0.4c-0.1,0.1-0.1,0.2-0.2,0.4    c-0.2,0.3-0.6,0.5-1.3,0.5c-0.1,0.1-0.1,0.2-0.3,0.3c-0.3,0.3-0.8,0.5-1.2,0.4c-0.1,0.1-0.3,0.2-0.5,0.3c-0.3,0.1-0.7,0.2-1.2,0.1    V49c0,0.3-0.2,0.5-0.5,0.5c-0.3,0-0.5-0.2-0.5-0.5v-3.7c-0.2,0.1-0.4,0.1-0.6,0.1c-0.1,0-0.2,0-0.3,0c-0.3-0.1-0.5-0.2-0.7-0.4    c-0.3,0.1-0.9,0.1-1.3-0.2c-0.2-0.1-0.3-0.3-0.4-0.5c-0.1,0-0.3,0-0.5-0.1c-0.4-0.1-0.7-0.4-0.9-0.7c-0.1,0-0.2,0-0.3,0    c-0.4-0.1-0.8-0.2-1-0.6c0-0.1-0.1-0.2-0.1-0.3c-2.1,1.1-4.4,2.1-5.5,2.6c0.4,0.7,0.9,1.4,1.3,2c1.4,1.8,3,3.2,4.8,4.2    c0.8,0.5,1.7,0.8,2.6,1.1c0.1-0.2,0.2-0.3,0.4-0.4c0.8-0.5,2.4-0.1,2.9,0c0.4-0.1,2-0.5,2.9,0c0.2,0.1,0.3,0.2,0.4,0.4    c0.9-0.3,1.7-0.6,2.6-1.1c1.8-1,3.4-2.4,4.8-4.2c0.5-0.6,0.9-1.2,1.3-1.9C454.5,44.9,451.9,43.8,450.3,42.5"/>
		<path class="st4" d="M445.2,55.6c0-0.1,0-0.2,0-0.3s0-0.2,0-0.3c0.5-0.1,1.3-0.3,1.7-0.9c0.3-0.3,0.4-0.7,0.3-1.1    c0-0.4-0.2-0.7-0.5-0.8c-0.8-0.5-2.4-0.1-2.9,0c-0.4-0.1-2-0.5-2.9,0c-0.3,0.2-0.5,0.5-0.5,0.8c0,0.4,0.1,0.8,0.3,1.1    c0.4,0.5,1.2,0.8,1.7,0.9c0,0.1,0,0.2,0,0.3s0,0.2,0,0.3c-0.4,0.3-1.5,1.3-3.2,1.5c0,0.1,0.2,0.3,0.5,0.6c1.5-0.3,2.5-1.1,3-1.5    c0,0.1,0.1,0.1,0.2,0.1c-0.1,0.4-0.5,1.4-2.3,1.9c0.3,0.1,0.7,0.2,1.1,0.3c1.2-0.6,1.7-1.4,1.9-1.9c0.1,0,0.2,0,0.3,0s0.2,0,0.3,0    c0.2,0.5,0.6,1.4,1.9,1.9c0.4-0.1,0.8-0.2,1.1-0.3c-1.8-0.4-2.2-1.5-2.3-1.9c0.1,0,0.1-0.1,0.2-0.1c0.5,0.4,1.5,1.2,3,1.5    c0.3-0.3,0.4-0.5,0.5-0.6C446.7,56.9,445.6,55.9,445.2,55.6"/>
		<path class="st2" d="M446.4,52.7c0.1,0.1,0.2,0.2,0.2,0.4s0,0.4-0.2,0.6c-0.2,0.2-0.5,0.4-0.8,0.5c0.2-0.3,0.2-0.7,0.1-1    c-0.1-0.3-0.3-0.5-0.5-0.7C445.6,52.5,446.1,52.5,446.4,52.7"/>
		<path class="st2" d="M442.7,53.4c0.2-0.6,1.2-0.7,1.2-0.7s0.2,0,0.5,0.1c0.3,0.1,0.6,0.3,0.7,0.6s-0.1,0.6-0.3,0.8    c-0.2-0.2-0.6-0.3-0.9-0.3c-0.4,0-0.7,0.1-0.9,0.3C442.8,54.1,442.6,53.7,442.7,53.4"/>
		<path class="st2" d="M442.1,54.2c-0.3-0.1-0.6-0.3-0.8-0.5c-0.1-0.2-0.2-0.4-0.2-0.6c0-0.2,0.1-0.3,0.2-0.4    c0.2-0.1,0.5-0.2,0.8-0.2c0.1,0,0.3,0,0.4,0c-0.2,0.2-0.4,0.4-0.5,0.7C441.9,53.6,442,53.9,442.1,54.2"/>
		<path class="st2" d="M443.1,55.3c0-0.4,0.3-0.7,0.7-0.7c0.4,0,0.7,0.3,0.7,0.7s-0.2,0.7-0.6,0.7S443.1,55.7,443.1,55.3"/>
		<path class="st2" d="M447.9,57.7c-1.5-0.3-2.5-1.1-3-1.5c0,0.1-0.1,0.1-0.2,0.1c0.1,0.4,0.6,1.4,2.3,1.9    C447.4,58,447.7,57.9,447.9,57.7"/>
		<path class="st2" d="M442.8,56.2c-0.5,0.4-1.5,1.2-3,1.5c0.2,0.2,0.5,0.4,0.8,0.5c1.8-0.4,2.2-1.5,2.3-1.9    C442.9,56.3,442.9,56.2,442.8,56.2"/>
		<path class="st3" d="M462,37.1c0-0.1,0-0.2-0.1-0.3s-0.1-0.1-0.2-0.1c0.1-0.1,0.1-0.3,0.2-0.4c0.2-0.6,0.3-1.3,0.4-2.1    c0-0.1,0-0.2-0.1-0.3c-0.2,0.1-0.3,0.1-0.3,0.1c0-0.1,0.1-0.3,0.1-0.4c0.2-0.6,0.2-1.3,0.1-2.1c0-0.1-0.1-0.2-0.2-0.2    s-0.1,0-0.2,0c0-0.2,0.1-0.3,0.1-0.5c0.1-0.6,0.1-1.4-0.1-2.1c0-0.1-0.1-0.2-0.2-0.2s-0.1,0-0.2,0c0-0.1,0-0.2,0-0.3    c0.1-0.6,0-1.4-0.2-2.1c0-0.1-0.1-0.2-0.2-0.2s-0.2,0-0.3,0l0,0c0-0.2,0-0.3,0-0.5c0-0.7-0.2-1.4-0.5-2.1c0-0.1-0.1-0.2-0.2-0.2    s-0.2,0-0.2,0c0-0.2,0-0.3,0-0.5c-0.1-0.6-0.3-1.3-0.7-2c0-0.1-0.1-0.2-0.2-0.2s-0.2,0-0.2,0.1c0-0.1-0.1-0.3-0.1-0.4    c-0.2-0.6-0.5-1.3-0.9-1.9c-0.1-0.1-0.2-0.1-0.3-0.1s-0.2,0.1-0.3,0.1c-0.1-0.2-0.1-0.3-0.2-0.5c-0.3-0.6-0.7-1.2-1.2-1.8    c-0.1-0.1-0.2-0.1-0.3-0.1s-0.1,0.1-0.2,0.1c-0.1-0.2-0.2-0.3-0.3-0.5c-0.4-0.5-0.8-1.1-1.5-1.5c-0.1-0.1-0.2-0.1-0.3,0    c-0.1,0-0.1,0.1-0.2,0.2c-0.4-0.5-1-0.9-1.7-1.2c0.1,0,0.3,0,0.4,0c0.9,0.1,1.5-0.1,1.5-0.1c0.2-0.1,0.3-0.2,0.3-0.4    s-0.2-0.3-0.4-0.3c-0.9,0-1.3-0.2-1.7-0.5c-0.1,0-0.2-0.1-0.3-0.1l2.2-0.3c0.2,0,0.3-0.2,0.3-0.4s-0.1-0.4-0.3-0.4l-2.2-0.3    c0.3-0.1,0.5-0.2,0.9-0.3c0.8-0.3,1.3-0.7,1.3-0.7c0.1-0.1,0.2-0.3,0.1-0.5c0.2-0.5,0-0.6-0.2-0.5c-0.9,0.3-1.3,0.3-1.8,0.2    c-0.1,0-0.2,0-0.3,0l1.9-1.1c0.2-0.2,0.3-0.4,0.2-0.5c-0.1-0.2-0.3-0.3-0.5-0.2L450.4,7c0.2-0.2,0.5-0.4,0.7-0.6    c0.6-0.6,0.9-1.1,1-1.1c0.1-0.2,0-0.4-0.1-0.5c-0.2-0.1-0.4-0.1-0.5,0c-0.7,0.6-1.1,0.7-1.6,0.9c-0.1,0-0.2,0.1-0.3,0.1l1.3-1.8    c0.1-0.2,0.1-0.4,0-0.5s-0.4-0.2-0.5,0l-1.8,1.3c0.1-0.3,0.2-0.5,0.4-0.8c0.4-0.8,0.4-1.4,0.4-1.4c0-0.2-0.1-0.4-0.3-0.4    c-0.2,0-0.4,0-0.5,0.2c-0.4,0.8-0.7,1.1-1.1,1.4c-0.1,0.1-0.1,0.1-0.2,0.2l0.5-2.1c0-0.2-0.1-0.4-0.2-0.5c-0.2-0.1-0.4,0-0.5,0.2    L446,3.4c0-0.3,0.1-0.6,0.1-0.9c0-0.9-0.1-1.5-0.1-1.5c-0.1-0.2-0.2-0.3-0.4-0.3c-0.2,0-0.3,0.2-0.3,0.4c0,0.9-0.2,1.3-0.5,1.7    c0,0.1-0.1,0.2-0.1,0.3l-0.3-2.2c0-0.2-0.2-0.3-0.4-0.3l0,0c-0.2,0-0.4,0.1-0.4,0.3l-0.3,2.2c-0.1-0.3-0.2-0.5-0.3-0.8    c-0.3-0.8-0.7-1.3-0.7-1.3c-0.1-0.1-0.3-0.2-0.5-0.1c-0.2,0.1-0.2,0.3-0.2,0.5c0.3,0.9,0.3,1.3,0.2,1.8c0,0.1,0,0.2,0,0.3    l-1.2-1.9c-0.1-0.2-0.3-0.2-0.5-0.2c-0.2,0.1-0.3,0.3-0.2,0.5l0.5,2.1c-0.2-0.2-0.4-0.4-0.6-0.7c-0.6-0.6-1.1-0.9-1.2-1    c-0.2-0.1-0.4,0-0.5,0.1s-0.1,0.4,0,0.5c0.6,0.7,0.7,1.1,0.9,1.6c0,0.1,0.1,0.2,0.1,0.3l-1.8-1.3c-0.2-0.1-0.4-0.1-0.5,0    c-0.1,0.1-0.2,0.4,0,0.5l1.3,1.8c-0.2-0.1-0.5-0.3-0.8-0.4c-0.7-0.4-1.3-0.5-1.4-0.5c-0.2,0-0.4,0.1-0.4,0.3    c-0.1,0.2,0,0.4,0.2,0.5c0.9,0.4,1.1,0.7,1.4,1.1c0.1,0.1,0.1,0.1,0.2,0.2l-2.2-0.5c-0.2,0-0.4,0-0.5,0.2s0,0.4,0.2,0.5l1.9,1.1    c-0.3,0-0.6-0.1-0.9-0.1c-0.9-0.1-1.5,0.1-1.5,0.1c-0.1,0.1-0.2,0.3-0.2,0.5s0.2,0.3,0.4,0.3c0.9,0,1.3,0.2,1.7,0.5    c0.1,0,0.2,0.1,0.3,0.1l-2.2,0.3c-0.2,0-0.3,0.2-0.3,0.4s0.1,0.4,0.3,0.4l2.2,0.3c-0.3,0.1-0.6,0.2-0.9,0.3    c-0.8,0.3-1.3,0.7-1.3,0.7c-0.1,0.1-0.2,0.3-0.1,0.5c0.1,0.2,0.3,0.2,0.5,0.2c0.5-0.2,0.9-0.2,1.2-0.3c-0.5,0.4-0.8,0.7-1,1    c-0.1,0.1-0.2,0.2-0.2,0.3c0-0.1-0.1-0.1-0.2-0.1s-0.2,0-0.3,0c-0.6,0.5-1.1,1-1.5,1.6c-0.1,0.2-0.2,0.3-0.3,0.5    c0-0.1-0.1-0.1-0.2-0.1c-0.1,0-0.2,0-0.3,0.1c-0.5,0.6-0.9,1.2-1.2,1.8c-0.1,0.2-0.1,0.3-0.2,0.5c-0.1,0-0.1-0.1-0.2-0.1    c-0.1,0-0.2,0-0.3,0.1c-0.5,0.6-0.8,1.3-1,1.9c0,0.2-0.1,0.3-0.1,0.5c-0.1-0.1-0.2-0.1-0.3-0.1s-0.2,0.1-0.2,0.2    c-0.4,0.7-0.6,1.4-0.7,2c0,0.2,0,0.3,0,0.5c-0.1-0.1-0.2-0.1-0.3-0.1s-0.2,0.1-0.2,0.2c-0.3,0.7-0.4,1.4-0.4,2.1    c0,0.2,0,0.3,0,0.5c-0.1,0-0.2-0.1-0.3,0c-0.1,0-0.2,0.1-0.2,0.2c-0.2,0.8-0.2,1.5-0.2,2.1c0,0.1,0,0.2,0.1,0.4h-0.1    c-0.1,0-0.2,0.1-0.2,0.2c-0.1,0.8-0.2,1.5-0.1,2.1c0,0.2,0.1,0.3,0.1,0.5h-0.1c-0.1,0-0.2,0.1-0.2,0.2c-0.1,0.8-0.1,1.5,0.1,2.1    c0,0.1,0.1,0.3,0.1,0.4c-0.1,0-0.1,0-0.2,0c-0.1,0.1-0.1,0.2-0.1,0.3c0,0.8,0.1,1.5,0.3,2.1c0.1,0.2,0.1,0.4,0.2,0.5l0,0    c-0.1,0-0.2,0-0.3,0.1c-0.1,0.1-0.1,0.2-0.1,0.3c0.1,0.8,0.3,1.5,0.7,2c0.1,0.1,0.1,0.2,0.2,0.3c-0.1,0-0.1,0-0.1,0.1    c-0.1,0.1-0.1,0.2-0.1,0.3c0.2,0.8,0.5,1.4,0.8,2c0.1,0.1,0.2,0.3,0.3,0.4c-0.1,0-0.2,0.1-0.2,0.1c-0.2,0-0.2,0.1-0.2,0.2    c0.3,0.7,0.6,1.4,1,1.9c0.1,0.1,0.2,0.2,0.3,0.3c-0.1,0-0.1,0.1-0.2,0.1c-0.1,0.1-0.1,0.2,0,0.3c0.4,0.7,0.8,1.3,1.2,1.7    c0.1,0.1,0.2,0.2,0.3,0.3c-0.1,0-0.1,0.1-0.2,0.2c0,0.1,0,0.2,0,0.3c0.6,0.7,1.1,1.2,1.6,1.6c0.2,0.1,0.3,0.2,0.5,0.3h-0.1    c-0.1,0-0.2,0.1-0.2,0.2c0,0.1,0,0.2,0.1,0.3c0.5,0.6,1.1,1,1.7,1.3c0.5,0.3,0.9,0.4,1.4,0.5c0.4,0.1,0.8,0.1,1.1,0c0,0,0,0,0.1,0    c1,0.7,2,1.2,3.1,1.7c0.9,0.4,1.8,0.7,2.7,0.8c0.2,0,0.4,0.1,0.5,0.1c-0.4-0.1-0.8-0.4-1-0.7c0-0.1-0.1-0.1-0.1-0.2    c-0.6-0.2-1.3-0.4-1.9-0.6c-1-0.4-2-1-2.9-1.6l0,0c0-0.3,0-0.6-0.1-0.9c0.7,0.5,1.3,1,1.9,1.3c0.9,0.5,1.8,0.9,2.8,1.1    c0-0.1,0-0.1,0-0.2c0-0.2,0.1-0.3,0.1-0.4c-0.9-0.3-1.7-0.6-2.6-1.1c-1.8-1-3.4-2.4-4.8-4.2c-0.5-0.6-0.9-1.3-1.3-2    c1.1-0.5,3.4-1.5,5.5-2.6c0,0.1,0,0.2,0.1,0.3c0.2,0.4,0.6,0.6,1,0.6c0.1,0,0.2,0,0.3,0c0.1,0.3,0.4,0.6,0.9,0.7    c0.2,0.1,0.3,0.1,0.5,0.1c0.1,0.2,0.2,0.3,0.4,0.5c0.4,0.3,1,0.2,1.3,0.2c0.2,0.2,0.4,0.4,0.7,0.4c0.1,0,0.2,0,0.3,0    c0.2,0,0.4-0.1,0.6-0.1V49c0,0.3,0.2,0.5,0.5,0.5c0.3,0,0.5-0.2,0.5-0.5v-3.8c0.5,0.1,0.9,0,1.2-0.1c0.2-0.1,0.4-0.2,0.5-0.3    c0.5,0.1,0.9,0,1.2-0.4c0.1-0.1,0.2-0.2,0.3-0.3c0.7,0,1.1-0.2,1.3-0.5c0.1-0.1,0.2-0.3,0.2-0.4c0.4,0,0.7-0.1,1-0.4    c0.1-0.1,0.2-0.2,0.3-0.4c1.7,1.3,4.3,2.4,5.4,2.9c-0.4,0.7-0.8,1.3-1.3,1.9c-1.4,1.8-3,3.2-4.8,4.2c-0.8,0.5-1.7,0.8-2.6,1.1    c0.1,0.1,0.1,0.3,0.1,0.4c0,0.1,0,0.1,0,0.2c0.9-0.3,1.9-0.6,2.8-1.1c0.7-0.4,1.3-0.9,1.9-1.4c-0.1,0.3-0.1,0.6-0.1,1l0,0    c-0.3,0.2-1,0.8-2.1,1.3c-0.8,0.4-1.7,0.7-2.6,1h-0.1l-0.1,0.1c-0.3,0.3-0.7,0.5-1.1,0.7c0.5-0.1,1-0.2,1.4-0.3    c0.9-0.2,1.8-0.6,2.7-1c1.2-0.6,1.9-1.1,2.2-1.4l0,0c0.3,0.1,0.7,0.1,1.1,0c0.5-0.1,0.9-0.3,1.4-0.5c0.6-0.3,1.1-0.8,1.7-1.3    c0.1-0.1,0.1-0.2,0.1-0.3s-0.1-0.2-0.2-0.2l0,0c0.2-0.1,0.3-0.2,0.5-0.3c0.5-0.4,1-0.9,1.4-1.6c0.1-0.1,0.1-0.2,0-0.3    c0-0.1-0.1-0.1-0.2-0.2c0.1-0.1,0.2-0.2,0.3-0.3c0.5-0.5,0.9-1,1.3-1.7c0-0.1,0-0.2,0-0.3s-0.1-0.1-0.2-0.2    c0.1-0.1,0.2-0.2,0.3-0.3c0.4-0.5,0.8-1.1,1-1.9c0-0.1,0-0.2,0-0.3c-0.1-0.1-0.1-0.1-0.2-0.1c0.1-0.1,0.2-0.2,0.3-0.4    c0.4-0.5,0.7-1.2,0.8-2c0-0.1,0-0.2-0.1-0.3c-0.1-0.1-0.2-0.1-0.3-0.1c0.1-0.1,0.2-0.3,0.2-0.4C461.7,38.6,461.9,37.9,462,37.1     M461.7,34.7L461.7,34.7c0,0.5-0.1,1-0.3,1.5c-0.2,0.4-0.4,0.8-0.6,1.1c-0.3,0.4-0.6,0.6-0.8,0.6l0,0l0,0    c-0.4-0.6-0.6-1.3-0.6-2.1c0-0.3,0-0.5,0.1-0.8l0,0l0,0c0.4,0.5,0.6,1.1,0.6,1.1c0,0.1,0.1,0.1,0.2,0.2c0.1,0,0.2,0,0.2-0.1    C460.8,35.4,461.3,34.9,461.7,34.7C461.6,34.7,461.7,34.7,461.7,34.7 M461.6,31.9L461.6,31.9L461.6,31.9c0,0.5,0,1-0.1,1.5    c-0.1,0.4-0.3,0.8-0.5,1.2c-0.3,0.4-0.6,0.6-0.7,0.7l0,0l0,0c-0.8-0.9-0.8-2.1-0.8-2.8l0,0l0,0c0.4,0.4,0.7,1,0.7,1    c0,0.1,0.1,0.1,0.2,0.1s0.2-0.1,0.2-0.2C460.8,32.7,461.3,32.2,461.6,31.9 M461.3,29.1L461.3,29.1L461.3,29.1c0.1,0.5,0.1,1,0,1.5    c-0.1,0.5-0.2,0.9-0.4,1.2c-0.2,0.4-0.5,0.7-0.6,0.8l0,0l0,0c-0.7-0.6-1-2-1-2.7l0,0l0,0c0.4,0.4,0.8,0.9,0.8,0.9    c0,0.1,0.1,0.1,0.2,0.1c0.1,0,0.2-0.1,0.2-0.2C460.6,29.9,461,29.4,461.3,29.1 M460.9,26.4L460.9,26.4L460.9,26.4    c0.1,0.5,0.1,1,0.1,1.5s-0.2,0.9-0.4,1.3c-0.2,0.4-0.5,0.7-0.6,0.8l0,0l0,0c-0.6-0.5-0.9-1.3-1.1-1.9c-0.1-0.3-0.1-0.5-0.1-0.8    l0,0l0,0c0.5,0.4,0.8,0.9,0.8,0.9c0.1,0.1,0.1,0.1,0.2,0.1c0.1,0,0.2-0.1,0.2-0.2C460.2,27.3,460.6,26.7,460.9,26.4 M439.3,26.6    v-0.1c0.4-1.8,1.1-3.1,1.6-3.8c0.4-0.5,0.8-0.9,1-1c0.1,0,0.1-0.1,0.2-0.1c0.2-0.2,0.2-0.4,0.1-0.6c-0.1-0.2-0.4-0.2-0.6-0.1    c0,0-0.1,0.1-0.2,0.1c-0.4,0.3-0.6,0.2-0.7,0.2c-0.1-0.1-0.2-0.3-0.2-0.5c0.1-0.4,0.5-0.9,0.7-1.1l0,0c0.9-1.1,2.4-1.1,2.4-1.1    s0,0,0.1,0c0,0,0.5,0,1,0.1c0.8,0.3,1.4,0.8,1.8,1.6c0.6,1.1,1,2.2,1.3,3.4c-0.8-0.3-1.5-0.8-1.5-0.8c-0.2-0.2-0.5-0.1-0.6,0.1    c-0.1,0.1-0.1,0.2-0.1,0.3c0,0.1,0.1,0.2,0.2,0.3c0,0,1,0.8,2.3,1.1c0.1,0.4,0.2,0.8,0.2,1.3c-0.4-0.2-0.8-0.3-1.2-0.4    c-0.3-0.1-0.5-0.1-0.7-0.2c-0.8-0.3-1.5-0.9-1.5-0.9c-0.2-0.2-0.5-0.1-0.6,0.1c-0.2,0.2-0.1,0.5,0.1,0.6c0,0,0.8,0.6,1.8,1    c0.2,0.1,0.5,0.2,0.8,0.2c1.1,0.3,1.5,0.5,1.5,1c0,0.1-0.1,0.2-0.1,0.2c-0.3,0.4-1.1,0.4-1.3,0.4l0,0h-1c-0.2,0-1.2,0-2.1-0.6    C441.6,25.8,440.6,26.1,439.3,26.6 M443.1,27.9h-3c-0.3,0-0.5-0.1-0.6-0.2l-0.1-0.1C440.7,27,441.3,26.8,443.1,27.9 M444.3,33.3    v-4.6h1.6l0,0l0,0h0.9h0.1c0.1,0,0.3,0,0.6,0c0.6-0.1,1-0.3,1.3-0.6c0.1-0.1,0.2-0.3,0.3-0.6c0,0,0,0,0-0.1c0.1-0.2,0.1-0.5,0-0.8    v-0.1c-0.3-1.8-0.6-4.1-2-6.8c-1.2-2.3-3.4-2.2-3.6-2.2s-1.9,0.1-3,1.4c-0.1,0.1-0.8,0.8-0.9,1.5c-0.1,0.6,0.1,1.1,0.6,1.3    c0.1,0,0.1,0.1,0.2,0.1c-0.7,0.9-1.6,2.3-2,4.4c-0.1,0.4-0.1,0.7,0,1c0,0,0,0,0,0.1c0.1,0.3,0.2,0.6,0.3,0.8    c0.2,0.2,0.6,0.5,1.3,0.5h3.3v4.6V36c-0.9,0-1.5,0.3-2.3,0.9c-1.2,0.8-5,1.5-11.5,2.3c-0.5-1.9-0.7-3.9-0.7-5.9    c0-2.7,0.4-5.3,1.2-7.7s1.8-4.5,3.2-6.3c1.4-1.8,3-3.2,4.8-4.2s3.8-1.5,5.8-1.5s4,0.5,5.8,1.5c1.8,1,3.4,2.4,4.8,4.2    s2.5,3.9,3.2,6.3c0.8,2.4,1.2,5,1.2,7.7c0,2.1-0.2,4.1-0.7,6c-4-0.2-8.6-1.7-8.8-1.7c-0.3-0.1-0.6-0.2-0.9-0.3    c-1-0.4-1.7-0.6-2.5-0.6h-0.1c-0.5-0.2-0.9-0.4-1.5-0.5V33.3z M450.5,12.6c-0.2,0.1-0.6,0.2-1,0.3c-0.3,0.1-0.6,0.1-0.8,0.1    c-0.6,0-1.1-0.1-1.5-0.4l0,0l0,0c0.2-0.1,0.5-0.2,0.9-0.3s0.8-0.1,1.2,0C449.7,12.2,450.1,12.4,450.5,12.6L450.5,12.6L450.5,12.6     M451.1,14.2L451.1,14.2L451.1,14.2c-0.2,0.1-0.4,0.2-0.8,0.2h-0.1c-0.7,0-1.3-0.2-2-0.7l0,0l0,0c0.3-0.1,0.6-0.1,0.8-0.2    C449.9,13.4,450.5,13.7,451.1,14.2 M447.9,11.7c-0.3,0.1-0.7,0.3-1.4,0.4c-0.1,0-0.2,0.1-0.2,0.2c0,0.1,0,0.2,0.1,0.2    c0,0,0.5,0.4,0.9,0.9l0,0l0,0c-0.6,0-1.9-0.2-2.7-1.2l0,0c0.1-0.1,0.4-0.3,0.7-0.5C446.1,11.4,446.9,11.4,447.9,11.7    C447.9,11.7,448,11.7,447.9,11.7C448,11.7,448,11.7,447.9,11.7 M445,11.3c-0.2,0.2-0.6,0.4-1.3,0.6c-0.1,0-0.2,0.1-0.2,0.2    c0,0.1,0.1,0.2,0.2,0.2c0,0,0.6,0.2,1,0.6l0,0l0,0c-0.2,0-0.4,0-0.6,0c-0.7,0-1.6-0.1-2.3-0.7l0,0c0.1-0.2,0.3-0.4,0.6-0.6    C443.1,11.3,444,11.2,445,11.3C445,11.2,445,11.2,445,11.3L445,11.3 M442.1,11.3c-0.2,0.2-0.5,0.6-1.2,0.9c-0.1,0-0.1,0.1-0.1,0.2    c0,0.1,0.1,0.2,0.2,0.2c0,0,0.6,0.1,1.2,0.4l0,0l0,0c-0.3,0.1-0.5,0.1-0.8,0.2c-0.2,0-0.5,0.1-0.8,0.1c-0.4,0-0.9-0.1-1.4-0.3l0,0    c0.1-0.2,0.2-0.4,0.5-0.7C440.1,11.8,441,11.4,442.1,11.3L442.1,11.3L442.1,11.3 M438.2,13.1c-0.1,0.1-0.1,0.2-0.1,0.3    s0.1,0.1,0.2,0.1l0,0c0,0,0.3,0,0.6,0c0.2,0,0.4,0.1,0.6,0.1l0,0l0,0c-0.2,0.1-0.5,0.2-0.7,0.3c-0.5,0.2-1,0.3-1.4,0.3    c-0.3,0-0.6,0-0.8-0.1l0,0c0.1-0.5,0.6-1.7,2.6-2.4l0,0l0,0C439.1,12.1,438.8,12.6,438.2,13.1 M459.4,25.5    c0.1-0.8,0.3-1.4,0.6-1.8l0,0l0,0c0.2,0.5,0.3,1,0.3,1.5s0,0.9-0.2,1.3c-0.2,0.5-0.4,0.8-0.5,0.9l0,0l0,0c-0.6-0.4-1-0.9-1.3-1.7    c-0.1-0.2-0.2-0.5-0.2-0.8l0,0l0,0c0.5,0.3,0.9,0.8,1,0.8c0.1,0.1,0.2,0.1,0.2,0.1C459.4,25.7,459.4,25.6,459.4,25.5 M458.5,22.9    c0-0.8,0.2-1.4,0.4-1.8l0,0l0,0c0.2,0.5,0.4,1,0.4,1.4c0.1,0.5,0,0.9,0,1.3c-0.1,0.5-0.3,0.8-0.4,0.9l0,0l0,0    c-0.6-0.3-1.1-0.8-1.5-1.6c-0.1-0.2-0.2-0.5-0.3-0.7l0,0l0,0c0.6,0.3,1,0.7,1,0.7c0.1,0.1,0.2,0.1,0.3,0    C458.4,23.1,458.5,23,458.5,22.9 M457.2,20.8L457.2,20.8c0.1,0,0.1-0.1,0.1-0.2c-0.1-0.8,0-1.4,0.2-1.8l0,0l0,0    c0.3,0.5,0.5,0.9,0.6,1.4c0.1,0.4,0.2,0.9,0.1,1.3c0,0.5-0.2,0.8-0.3,1l0,0l0,0c-0.7-0.2-1.3-0.7-1.7-1.4    c-0.1-0.2-0.3-0.5-0.4-0.7l0,0l0,0c0.6,0.2,1.1,0.6,1.1,0.6C457,20.8,457.1,20.8,457.2,20.8 M455.5,18.5c0.1,0.1,0.2,0.1,0.3,0    c0.1-0.1,0.1-0.2,0.1-0.3c-0.2-0.7-0.2-1.4-0.1-1.8l0,0l0,0c0.3,0.4,0.6,0.8,0.8,1.2c0.2,0.4,0.3,0.8,0.3,1.3s-0.1,0.8-0.1,1l0,0    l0,0c-0.7-0.1-1.3-0.5-1.9-1.1c-0.2-0.2-0.4-0.4-0.5-0.7l0,0l0,0C454.9,18.2,455.5,18.5,455.5,18.5 M453.7,16.6    c0.1,0,0.2,0,0.3-0.1s0.1-0.2,0-0.3c-0.4-0.7-0.4-1.4-0.4-1.8l0,0l0,0c0.4,0.3,0.7,0.7,1,1.1c0.3,0.4,0.4,0.8,0.5,1.2    c0.1,0.5,0.1,0.9,0.1,1l0,0l0,0c-0.8,0-1.5-0.4-2-0.8c-0.2-0.2-0.5-0.4-0.7-0.6l0,0l0,0h0.1C453.2,16.4,453.7,16.6,453.7,16.6     M453,14.8c0.2,0.5,0.2,0.9,0.2,1.1l0,0h-0.1c-1,0-2.1-0.6-2.7-1l0,0l0,0c0.6-0.1,1.2,0,1.2,0c0.1,0,0.2,0,0.2-0.1s0-0.2,0-0.3    c-0.4-0.5-0.6-1-0.7-1.4l0,0l0,0C452.1,13.4,452.7,14,453,14.8 M435.7,12L435.7,12c0.7-0.2,1.2-0.3,1.5-0.4    c0.6-0.1,1.1-0.4,1.1-0.4c0.1,0,0.1-0.1,0.1-0.2c0-0.1-0.1-0.1-0.1-0.1l-2.8-0.4l2.8-0.4c0.1,0,0.1-0.1,0.1-0.2    c0-0.1-0.1-0.1-0.1-0.2c0,0-0.6-0.1-1.2-0.4c-0.2-0.1-0.3-0.2-0.5-0.2c-0.3-0.1-0.6-0.3-0.9-0.4h0.1c0.6,0,1.1,0.1,1.4,0.2    c0.6,0.1,1.1,0,1.2,0s0.1-0.1,0.1-0.1c0-0.1,0-0.1-0.1-0.2L436,7.2l2.7,0.7c0.1,0,0.2,0,0.2-0.1s0-0.2-0.1-0.2c0,0-0.5-0.3-1-0.8    c-0.1-0.1-0.2-0.3-0.4-0.4c0-0.2-0.1-0.4-0.4-0.6c0,0,0.1,0,0.1,0.1c0.5,0.3,1,0.5,1.2,0.7c0.5,0.3,1,0.5,1.1,0.5s0.1,0,0.2-0.1    c0-0.1,0-0.1,0-0.2l-1.7-2.2l2.2,1.6c0.1,0,0.2,0,0.2,0c0.1-0.1,0.1-0.1,0-0.2c0-0.1-0.4-0.5-0.6-1.1c-0.1-0.2-0.1-0.4-0.2-0.5    c-0.1-0.3-0.2-0.5-0.3-0.8l0.1,0.1c0.4,0.4,0.7,0.9,0.9,1.1c0.4,0.5,0.8,0.8,0.8,0.8c0.1,0,0.1,0,0.2,0c0.1,0,0.1-0.1,0.1-0.2    l-0.7-2.7l1.4,2.4c0,0.1,0.1,0.1,0.2,0.1c0.1,0,0.1-0.1,0.1-0.2c0,0-0.1-0.6-0.1-1.3c0-0.2,0-0.4,0-0.5c0-0.3,0.1-0.5,0-0.9v0.1    c0.2,0.6,0.3,1.1,0.4,1.4c0.1,0.6,0.4,1,0.4,1.1s0.1,0.1,0.2,0.1c0.1,0,0.1-0.1,0.1-0.1l0.4-2.7l0.4,2.7c0,0.1,0.1,0.1,0.2,0.1    c0.1,0,0.1-0.1,0.2-0.1c0,0,0.1-0.6,0.4-1.2c0.1-0.2,0.2-0.3,0.2-0.5c0.1-0.2,0.3-0.5,0.4-0.8v0.1c0,0.6-0.1,1.1-0.2,1.4    c-0.1,0.6,0,1.1,0,1.1c0,0.1,0.1,0.1,0.1,0.1c0.1,0,0.1,0,0.2-0.1l1.4-2.4l-0.7,2.7c0,0.1,0,0.2,0.1,0.2s0.2,0,0.2-0.1    s0.3-0.5,0.8-1c0.1-0.1,0.3-0.2,0.4-0.4c0.2-0.2,0.4-0.3,0.6-0.6c0,0,0,0.1-0.1,0.1c-0.3,0.5-0.5,1-0.7,1.2    c-0.3,0.5-0.5,1-0.5,1.1s0,0.1,0.1,0.2c0.1,0,0.1,0,0.2,0l2.2-1.7l-1.7,2.2c0,0.1,0,0.1,0,0.2c0.3,0.3,0.4,0.3,0.5,0.3    c0,0,0.5-0.4,1.1-0.6c0.2-0.1,0.3-0.1,0.5-0.2c0.3-0.1,0.5-0.2,0.8-0.3L450.7,6c-0.4,0.4-0.9,0.7-1.1,0.9    c-0.5,0.4-0.8,0.8-0.8,0.8c0,0.1,0,0.1,0,0.2S448.9,8,449,8l2.7-0.7l-2.4,1.4c-0.1,0-0.1,0.1-0.1,0.2c0,0.1,0.1,0.1,0.2,0.1    s0.6-0.1,1.3-0.1c0.2,0,0.4,0,0.5,0c0.3,0,0.5,0.1,0.9,0H452c-0.6,0.2-1.1,0.3-1.4,0.4c-0.6,0.1-1.1,0.4-1.1,0.4    c-0.1,0-0.1,0.1-0.1,0.2c0,0.1,0.1,0.1,0.1,0.1l2.7,0.4l-2.7,0.4c-0.1,0-0.1,0.1-0.1,0.2c0,0.1,0.1,0.1,0.1,0.2    c0.1,0,0.6,0.1,1.2,0.4c0.2,0.1,0.3,0.2,0.5,0.2c0.2,0.1,0.5,0.3,0.8,0.4h-0.1c-0.6,0-1.1-0.1-1.4-0.2h-0.1    c-0.5-0.2-1-0.3-1.5-0.3l0,0c0-0.1-0.1-0.2-0.2-0.2c-0.7-0.3-1.4-0.4-2.1-0.4c-0.2,0-0.5,0-0.7,0V11c0-0.1-0.1-0.2-0.2-0.2    c-0.8-0.1-1.5-0.1-2.1,0c-0.2,0-0.5,0.1-0.7,0.2c0-0.1,0-0.1-0.1-0.2c-0.1-0.1-0.2-0.1-0.3-0.1c-0.8,0.1-1.5,0.2-2.1,0.5    c-0.2,0.1-0.3,0.1-0.4,0.2c0-0.1,0-0.2-0.1-0.2c-0.1-0.1-0.2-0.1-0.3-0.1c-0.8,0.2-1.4,0.5-2,0.9l0,0c-0.1,0-0.3,0-0.4,0    c-0.1,0-0.5,0-0.5,0C436.3,12,436,11.9,435.7,12 M436.4,12.8C436.5,12.8,436.5,12.8,436.4,12.8C436.5,12.8,436.5,12.8,436.4,12.8    c0,0.4-0.1,1.1-0.6,1.8c-0.1,0.1,0,0.2,0,0.3c0.1,0.1,0.1,0.1,0.2,0.1c0,0,0.6-0.1,1.2-0.1l0,0l0,0c-0.5,0.4-1.5,1.1-2.6,1.1h-0.1    l0,0C434.5,15.4,434.7,14,436.4,12.8 M432.7,16.7c0.1-0.4,0.3-0.8,0.5-1.2c0.3-0.4,0.6-0.8,1-1.1l0,0l0,0c0,0.4,0,1.1-0.4,1.8    c0,0.1,0,0.2,0,0.3c0.1,0.1,0.2,0.1,0.3,0.1c0,0,0.6-0.2,1.2-0.2l0,0l0,0c-0.3,0.2-0.5,0.4-0.7,0.6c-0.5,0.4-1.2,0.8-1.8,0.8h-0.1    l0,0C432.6,17.6,432.6,17.2,432.7,16.7 M432.1,16.4L432.1,16.4L432.1,16.4c0.1,0.4,0.2,1.1-0.1,1.9c0,0.1,0,0.2,0.1,0.3    c0.1,0.1,0.2,0.1,0.3,0c0,0,0.5-0.3,1.2-0.4l0,0l0,0c-0.4,0.6-1.3,1.6-2.4,1.8l0,0l0,0C430.9,19.4,430.6,18.1,432.1,16.4     M429.6,20c0.1-0.4,0.4-0.9,0.6-1.3l0,0l0,0c0.1,0.4,0.3,1,0.1,1.9c0,0.1,0,0.2,0.1,0.2s0.2,0,0.3,0c0,0,0.5-0.5,1.1-0.5l0,0l0,0    c-0.1,0.2-0.2,0.5-0.5,0.8c-0.5,0.7-1.1,1.1-1.8,1.3l0,0l0,0c-0.1-0.1-0.2-0.5-0.2-1C429.4,20.9,429.5,20.5,429.6,20 M428.3,22.5    c0.1-0.5,0.2-0.9,0.4-1.4l0,0l0,0l0,0c0.2,0.4,0.4,1,0.4,1.8c0,0.1,0,0.2,0.1,0.2c0.1,0,0.2,0,0.3,0c0,0,0.5-0.4,1.1-0.7l0,0l0,0    c-0.1,0.2-0.1,0.5-0.2,0.7c-0.4,0.7-0.9,1.3-1.7,1.6l0,0l0,0c-0.1-0.1-0.3-0.5-0.4-0.9C428.3,23.4,428.3,23,428.3,22.5     M427.6,23.7L427.6,23.7L427.6,23.7c0.3,0.3,0.6,0.9,0.6,1.8c0,0.1,0.1,0.2,0.2,0.2s0.2,0,0.2-0.1c0,0,0.4-0.5,1-0.8l0,0l0,0    c0,0.2-0.1,0.5-0.2,0.7c-0.3,0.8-0.7,1.4-1.4,1.8l0,0l0,0c-0.1-0.1-0.3-0.4-0.5-0.9c-0.1-0.4-0.2-0.8-0.2-1.3    C427.4,24.7,427.5,24.2,427.6,23.7 M426.8,26.4L426.8,26.4L426.8,26.4c0.3,0.3,0.7,0.9,0.8,1.7c0,0.1,0.1,0.2,0.2,0.2    c0.1,0,0.2,0,0.2-0.1c0,0,0.4-0.5,0.9-0.9l0,0l0,0c0,0.2,0,0.5-0.1,0.7c-0.2,0.8-0.6,1.4-1.1,2l0,0l0,0c-0.1-0.1-0.4-0.4-0.6-0.8    c-0.2-0.4-0.3-0.8-0.4-1.3C426.7,27.4,426.7,26.9,426.8,26.4 M426.4,29.1L426.4,29.1L426.4,29.1c0.3,0.3,0.7,0.8,0.9,1.6    c0,0.1,0.1,0.2,0.2,0.2s0.2,0,0.2-0.1c0,0,0.3-0.5,0.7-0.9l0,0l0,0c0,0.3,0,0.5-0.1,0.8c-0.1,0.8-0.5,1.5-1,1.9l0,0l0,0    c-0.1-0.1-0.4-0.4-0.6-0.8c-0.2-0.4-0.3-0.8-0.4-1.2C426.3,30.1,426.3,29.6,426.4,29.1 M426.2,32L426.2,32    C426.2,31.9,426.2,31.9,426.2,32c0.1,0,0.1,0.1,0.2,0.2c0.3,0.3,0.6,0.7,0.8,1.4c0,0.1,0.1,0.2,0.2,0.2s0.2-0.1,0.2-0.2    c0,0,0.1-0.6,0.6-1l0,0l0,0c0.1,0.3,0.1,0.8,0,1.3c-0.1,0.6-0.4,1.2-0.8,1.6l0,0l0,0C427,35.1,426,34.1,426.2,32 M426.1,34.7    L426.1,34.7c0.1,0,0.1,0.1,0.2,0.2c0.3,0.2,0.7,0.7,1,1.3c0,0.1,0.1,0.1,0.2,0.1l0,0c0.1,0,0.2-0.1,0.2-0.1s0.3-0.6,0.7-1.1l0,0    l0,0c0.1,0.6,0.2,1.7-0.7,2.9l0,0l0,0C427.2,37.8,426.1,36.9,426.1,34.7L426.1,34.7 M426.2,37.6L426.2,37.6L426.2,37.6    c0.4,0.2,1,0.5,1.4,1.2c0.1,0.1,0.1,0.1,0.2,0.1c0.2,0,0.2,0,0.2-0.1l0,0l0,0c0,0,0.2-0.7,0.5-1.2l0,0l0,0    c0.1,0.2,0.2,0.5,0.3,0.7c0.2,0.8,0,1.5-0.4,2.3l0,0l0,0c-0.1,0-0.5-0.2-0.9-0.5c-0.3-0.3-0.6-0.6-0.8-1    C426.5,38.6,426.3,38.1,426.2,37.6 M426.9,40.3L426.9,40.3L426.9,40.3c0.1,0,0.2,0,0.2,0.1c0.3,0.2,0.8,0.5,1.3,1    c0.1,0.1,0.2,0.1,0.2,0.1c0.1,0,0.2-0.1,0.2-0.2c0,0,0.1-0.6,0.4-1.2l0,0l0,0l0,0c0.3,0.6,0.6,1.8,0.1,3l0,0l0,0    C428.8,42.9,427.5,42.4,426.9,40.3 M428.5,44.2c-0.3-0.4-0.5-0.8-0.8-1.3l0,0l0,0c0.1,0.1,0.2,0.1,0.3,0.1    c0.4,0.1,0.9,0.4,1.4,0.9c0,0.1,0.1,0.1,0.2,0.1s0.1-0.1,0.1-0.2c0,0,0-0.6,0.2-1.2l0,0l0,0c0.1,0.2,0.2,0.5,0.3,0.7    c0.3,0.8,0.3,1.5,0.1,2.2l0,0l0,0c-0.1,0-0.5-0.1-0.9-0.4C429.1,44.9,428.8,44.6,428.5,44.2 M428.9,45.5L428.9,45.5L428.9,45.5    c0.4,0,1.1,0.2,1.7,0.8c0.1,0.1,0.2,0.1,0.3,0c0.1,0,0.1-0.1,0.1-0.2c0,0-0.1-0.6,0.1-1.2l0,0l0,0c0.2,0.2,0.3,0.5,0.4,0.7    c0.3,0.5,0.5,1.3,0.4,2.1l0,0l0,0c-0.2,0-0.5-0.1-1-0.2c-0.4-0.2-0.8-0.4-1.1-0.7C429.5,46.4,429.1,46,428.9,45.5 M434.2,50.1    c0,0-0.2-0.6-0.3-1.2l0,0l0,0c0.5,0.4,1.4,1.4,1.4,2.6l0,0c-0.1,0-0.2,0-0.4,0c-0.2,0-0.3,0-0.6-0.1c-0.7,0-1.5-0.4-2.3-1.2l0,0    l0,0c0.4-0.1,1.1-0.1,1.9,0.2c0.1,0,0.2,0,0.3-0.1C434.2,50.3,434.3,50.2,434.2,50.1 M432.1,48.5c0.1,0.1,0.2,0,0.3,0    c0.1-0.1,0.1-0.2,0.1-0.2s-0.1-0.6-0.1-1.2l0,0l0,0c0.4,0.5,1.2,1.6,1.1,2.7l0,0h-0.1c-0.2,0-0.5,0-0.9-0.1s-0.8-0.3-1.2-0.6    c-0.4-0.3-0.7-0.6-1-1.1l0,0l0,0C430.8,47.9,431.4,48,432.1,48.5 M441.2,42.4c-0.1,0-0.1,0.1-0.2,0.1c-0.5,0.3-0.8,0.7-0.9,1.1    c-0.1,0-0.1,0-0.2,0c-0.4-0.1-0.4-0.3-0.4-0.4c0-0.2,0.1-0.4,0.4-0.6c0.3-0.3,0.6-0.5,0.9-0.5c0.1,0,0.2,0,0.2,0.1    C441.1,42.2,441.2,42.3,441.2,42.4L441.2,42.4 M441.7,44.3c-0.2,0-0.6,0.1-0.8-0.1c0,0-0.1-0.1-0.1-0.2c0-0.3,0.4-0.7,0.6-0.8    c0.4-0.3,0.7-0.4,0.9-0.4c0.1,0,0.2,0,0.3,0.1s0.1,0.1,0.1,0.2c0,0.1-0.1,0.3-0.3,0.3C442.1,43.7,441.8,44,441.7,44.3 M443.6,44.4    c-0.1,0.1-0.7,0.4-1,0.4c-0.1,0-0.1,0-0.2-0.1c0.2-0.3,0.5-0.6,0.9-0.8c0.4-0.3,0.6-0.1,0.6-0.1c0.1,0.1,0.1,0.1,0.1,0.2    S443.8,44.3,443.6,44.4C443.7,44.4,443.7,44.4,443.6,44.4 M439.5,41.9c-0.1,0-0.1,0.1-0.2,0.2c-0.2,0.2-0.5,0.5-0.6,0.8    c-0.1,0-0.1,0-0.2,0c-0.2,0-0.4-0.1-0.4-0.2c0,0-0.1-0.1,0.1-0.3c0.2-0.3,0.7-0.5,1-0.5h0.1l0,0C439.4,41.8,439.5,41.8,439.5,41.9     M449.5,42.3c-0.1,0.1-0.3,0.2-0.5,0.2c-0.3-0.4-1.2-1.5-2.2-2c-0.1,0-0.2-0.1-0.3,0c-0.1,0-0.2,0.1-0.2,0.2c0,0.1-0.1,0.2,0,0.3    c0,0.1,0.1,0.2,0.2,0.2c0.9,0.4,1.7,1.3,1.9,1.7c0,0.1-0.1,0.1-0.1,0.2c-0.1,0.2-0.4,0.2-0.6,0.2c-0.1-0.2-0.3-0.5-0.5-0.7    c-0.3-0.4-1-0.8-1-0.9c-0.1-0.1-0.2-0.1-0.3-0.1s-0.2,0.1-0.2,0.2c-0.1,0.1-0.1,0.2-0.1,0.3s0.1,0.2,0.2,0.2    c0.2,0.1,0.7,0.5,0.9,0.7c0.3,0.3,0.4,0.5,0.4,0.6s-0.1,0.2-0.2,0.2c-0.1,0.1-0.3,0.2-0.5,0.2c-0.1-0.2-0.3-0.6-0.7-1.1    c-0.1-0.2-0.4-0.2-0.5,0c-0.1,0.1-0.1,0.2-0.1,0.3s0,0.2,0.1,0.3c0.3,0.3,0.4,0.6,0.5,0.8c-0.1,0-0.1,0.1-0.2,0.1    c-0.2,0.1-0.4,0.1-0.6,0.1c0.1-0.1,0.2-0.3,0.2-0.5s0-0.5-0.3-0.9c-0.2-0.2-0.5-0.3-0.9-0.3c0-0.2-0.2-0.4-0.4-0.6    c-0.4-0.3-0.8-0.4-1.2-0.2c-0.1-0.2-0.2-0.4-0.6-0.6c-0.3-0.2-0.7-0.2-1-0.1c-0.3-0.3-0.7-0.3-0.8-0.3c-0.5-0.1-1.2,0.2-1.6,0.6    c-2.2,1.2-5.1,2.4-6.2,3c-1.1-1.1-1.6-2.3-2-3.6c-0.1-0.3-0.2-0.7-0.3-1.1c3.3-0.4,5.9-0.7,7.8-1.1c2-0.4,3.3-0.8,3.9-1.2    c0.8-0.5,1.3-0.8,2-0.7c0.2,0,0.3,0,0.5,0.1c-0.1,0.1-0.3,0.1-0.4,0.2c-0.3,0.2-0.5,0.4-0.7,0.5c-0.2,0.1-0.3,0.2-0.5,0.4    c-0.1,0.1-0.3,0.2-0.5,0.3c-0.5,0.2-0.8,0.4-0.9,0.7s-0.1,0.6,0.2,0.9c0.3,0.5,0.9,0.5,1.4,0.4c0.5,0,1.1-0.2,1.6-0.5    c0.2-0.1,0.3-0.2,0.4-0.3c0.2-0.1,0.4-0.2,0.5-0.3l0,0c0.4-0.1,0.8-0.1,1.4,0.1c0.5,0.2,0.9,0.5,1.4,0.7c1,0.7,1.8,1.5,2,1.8    C449.6,42.1,449.6,42.2,449.5,42.3 M450.9,42c-0.3-0.2-0.6-0.5-0.7-0.6l0,0l0,0c0,0,0-0.1-0.1-0.1c-0.3-0.4-1.1-1.2-2-1.8    c-0.7-0.5-2-1.3-3.3-1c-0.3,0.1-0.5,0.2-0.7,0.4c-0.1,0.1-0.2,0.2-0.4,0.2c-0.4,0.2-0.9,0.4-1.2,0.4c-0.4,0-0.6,0-0.7-0.1    c-0.1-0.1-0.1-0.2-0.1-0.2c0.1-0.1,0.4-0.2,0.5-0.3c0.2-0.1,0.4-0.2,0.6-0.3c0.2-0.2,0.4-0.3,0.6-0.4c0.2-0.1,0.3-0.3,0.6-0.5    c0.4-0.3,0.8-0.3,1.4-0.3l0,0c0.1,0,0.2,0,0.3,0c0.1,0,0.2,0,0.2,0c0.7,0,1.3,0.2,2.2,0.5c0.3,0.1,0.6,0.2,0.9,0.3    c0.1,0,1.3,0.4,3,0.8c1.5,0.4,3.7,0.8,5.7,0.9c-0.1,0.3-0.2,0.7-0.3,1c-0.4,1.3-1,2.6-1.6,3.8C455,44.3,452.5,43.2,450.9,42     M455.7,50.2c-1,0.9-1.8,1.2-2.4,1.4c-0.2,0-0.4,0.1-0.6,0.1c-0.2,0-0.3,0-0.4,0l0,0c0-0.7,0.2-1.4,0.8-2c0.2-0.2,0.4-0.4,0.6-0.6    l0,0l0,0c-0.1,0.6-0.3,1.1-0.3,1.2c0,0.1,0,0.2,0,0.3c0.1,0.1,0.2,0.1,0.3,0.1C454.6,50.1,455.2,50.1,455.7,50.2L455.7,50.2    L455.7,50.2 M457.4,47.9c-0.3,0.4-0.7,0.8-1,1.1c-0.4,0.3-0.8,0.5-1.2,0.6c-0.4,0.1-0.7,0.1-0.9,0.1h-0.1l0,0    c0-0.7,0.2-1.4,0.6-2.1c0.1-0.2,0.3-0.4,0.5-0.6l0,0l0,0c0.1,0.6-0.1,1.2-0.1,1.2c0,0.1,0,0.2,0.1,0.2c0.1,0.1,0.2,0.1,0.3,0    C456.3,48,457,47.9,457.4,47.9L457.4,47.9L457.4,47.9 M458,46.7c-0.3,0.3-0.7,0.6-1.1,0.7c-0.5,0.2-0.8,0.2-1,0.2l0,0    c-0.1-0.7,0-1.4,0.4-2.1c0.1-0.2,0.3-0.5,0.4-0.7l0,0l0,0c0.1,0.6,0.1,1.2,0.1,1.2c0,0.1,0,0.2,0.1,0.2s0.2,0,0.3,0    c0.6-0.5,1.3-0.7,1.7-0.8l0,0l0,0C458.6,46,458.3,46.4,458,46.7 M459.3,44.2c-0.3,0.4-0.6,0.7-1,0.9c-0.4,0.2-0.8,0.3-0.9,0.4l0,0    l0,0c-0.2-0.7-0.2-1.4,0.1-2.2c0.1-0.2,0.2-0.5,0.3-0.7l0,0l0,0c0.2,0.6,0.2,1.2,0.2,1.2c0,0.1,0.1,0.2,0.2,0.2    c0.1,0,0.2,0,0.2-0.1c0.5-0.6,1-0.8,1.4-0.9c0.1,0,0.2-0.1,0.2-0.1l0,0l0,0C459.8,43.4,459.6,43.8,459.3,44.2 M460.2,41.6    c-0.3,0.4-0.6,0.7-0.9,1c-0.4,0.3-0.8,0.4-0.9,0.4l0,0l0,0c-0.3-0.8-0.2-1.6-0.1-2.2c0.1-0.3,0.1-0.5,0.2-0.8l0,0l0,0l0,0    c0.2,0.6,0.3,1.2,0.3,1.2c0,0.1,0.1,0.2,0.2,0.2s0.2,0,0.2-0.1c0.5-0.6,1.1-1,1.5-1.1l0,0l0,0C460.7,40.8,460.5,41.2,460.2,41.6     M461,38.9c-0.2,0.4-0.5,0.8-0.8,1.1c-0.3,0.3-0.7,0.5-0.8,0.6l0,0l0,0c-0.4-0.6-0.5-1.4-0.4-2.2c0-0.3,0.1-0.5,0.2-0.8l0,0l0,0    c0.3,0.5,0.5,1.2,0.5,1.2c0,0.1,0.1,0.2,0.2,0.2s0.2,0,0.2-0.1c0.4-0.7,1-1.1,1.4-1.3l0,0l0,0C461.3,38,461.2,38.5,461,38.9"/>
		<path class="st5" d="M448.8,11.6c0.5,0,1,0.1,1.5,0.3h0.1c0.3,0,0.8,0.1,1.4,0.2h0.1c-0.3-0.1-0.5-0.2-0.8-0.4    c-0.2-0.1-0.3-0.2-0.5-0.2c-0.6-0.3-1.2-0.4-1.2-0.4c-0.1,0-0.1-0.1-0.1-0.2c0-0.1,0.1-0.1,0.1-0.2l2.7-0.4l-2.6-0.3    c-0.1,0-0.1-0.1-0.1-0.1c0-0.1,0-0.1,0.1-0.2c0,0,0.5-0.3,1.1-0.4c0.3-0.1,0.8-0.2,1.4-0.4h0.1c-0.3,0-0.6,0-0.9,0    c-0.2,0-0.3,0-0.5,0c-0.6,0-1.2,0.1-1.3,0.1s-0.2,0-0.2-0.1s0-0.2,0.1-0.2l2.4-1.4L449,8c-0.1,0-0.1,0-0.2-0.1c0-0.1,0-0.1,0-0.2    c0,0,0.3-0.4,0.8-0.8c0.2-0.2,0.7-0.5,1.1-0.9l0.1-0.1c-0.3,0.1-0.5,0.2-0.8,0.3c-0.2,0-0.3,0.1-0.5,0.2c-0.7,0.2-1.1,0.6-1.1,0.6    c-0.1,0-0.2,0-0.2,0c-0.1-0.1-0.1-0.1,0-0.2l1.7-2.2l-2.2,1.7c-0.1,0-0.1,0-0.2,0s-0.1-0.1-0.1-0.2c0,0,0.1-0.5,0.5-1.1    c0.1-0.2,0.4-0.7,0.7-1.2c0,0,0-0.1,0.1-0.1c-0.2,0.2-0.4,0.4-0.6,0.6c-0.1,0.1-0.3,0.2-0.4,0.4c-0.5,0.4-0.8,0.9-0.8,1    s-0.1,0.1-0.2,0.1c-0.1,0-0.1-0.1-0.1-0.2l0.7-2.7l-1.4,2.4c0,0.1-0.1,0.1-0.2,0.1c-0.1,0-0.1-0.1-0.1-0.1s-0.1-0.5,0-1.1    c0-0.3,0.1-0.8,0.2-1.4V2.7c-0.1,0.3-0.2,0.5-0.4,0.8c-0.1,0.1-0.2,0.3-0.2,0.5c-0.3,0.6-0.4,1.2-0.4,1.2c0,0.1-0.1,0.1-0.2,0.1    s-0.1-0.1-0.2-0.1L444,2.5l-0.4,2.7c0,0.1-0.1,0.1-0.1,0.1c-0.1,0-0.1,0-0.2-0.1c0,0-0.3-0.5-0.4-1.1c-0.1-0.3-0.2-0.8-0.4-1.4    V2.6c0,0.3,0,0.6,0,0.9c0,0.2,0,0.3,0,0.5c0,0.7,0.1,1.2,0.1,1.3c0,0.1,0,0.2-0.1,0.2s-0.2,0-0.2-0.1L440.9,3l0.7,2.7    c0,0.1,0,0.1-0.1,0.2c-0.1,0-0.1,0-0.2,0c0,0-0.4-0.3-0.8-0.8c-0.2-0.2-0.5-0.7-0.9-1.1l-0.1-0.1c0.2,0.3,0.2,0.5,0.3,0.8    c0,0.2,0.1,0.3,0.2,0.5c0.2,0.6,0.6,1.1,0.6,1.1c0,0.1,0,0.1,0,0.2c-0.1,0.1-0.1,0.1-0.2,0l-2.2-1.6l1.7,2.2c0,0.1,0,0.1,0,0.2    C439.6,7,439.5,7,439.4,7c0,0-0.5-0.1-1.1-0.5c-0.2-0.1-0.7-0.4-1.2-0.7c0,0-0.1,0-0.1-0.1c0.2,0.2,0.4,0.4,0.6,0.6    c0.1,0.1,0.2,0.3,0.4,0.4c0.5,0.5,1,0.8,1,0.8c0,0.2,0,0.2,0,0.3c0,0.1-0.1,0.1-0.2,0.1l-2.7-0.7l2.4,1.4c0.1,0,0.1,0.1,0.1,0.2    c0,0.1-0.1,0.1-0.1,0.1s-0.5,0.1-1.2,0c-0.3,0-0.8-0.1-1.4-0.2h-0.1c0.2,0.1,0.5,0.3,0.7,0.4c0.1,0.1,0.3,0.2,0.5,0.2    c0.6,0.3,1.2,0.4,1.2,0.4c0.1,0,0.1,0.1,0.1,0.2c0,0.1-0.1,0.1-0.1,0.2l-2.8,0.4l2.8,0.4c0.1,0,0.1,0.1,0.1,0.1    c0,0.1,0,0.1-0.1,0.2c0,0-0.5,0.3-1.1,0.4c-0.3,0.1-0.8,0.2-1.4,0.4h-0.1c0.3,0,0.6,0,0.9,0c0,0,0.4,0,0.5,0s0.3,0,0.4,0l0,0    c0.5-0.4,1.2-0.7,2-0.9c0.1,0,0.2,0,0.3,0.1c0.1,0.1,0.1,0.1,0.1,0.2c0.1-0.1,0.3-0.2,0.4-0.2c0.6-0.3,1.3-0.4,2.1-0.5    c0.1,0,0.2,0,0.3,0.1c0,0.1,0.1,0.1,0.1,0.2c0.2-0.1,0.5-0.2,0.7-0.2c0.6-0.1,1.3-0.1,2.1,0c0.1,0,0.2,0.1,0.2,0.2v0.1    c0.2,0,0.4,0,0.7,0c0.6,0,1.3,0.1,2.1,0.4C448.7,11.4,448.8,11.5,448.8,11.6L448.8,11.6"/>
		<path class="st3" d="M444.8,8.1c2.7-0.4,3,0.3,3,0.3s0.1,0.2,0.3,0.1c0,0,0.2,0,0.1-0.2c0,0-0.3-0.9-1.7-1c0,0-0.7-0.1-1.5,0    c-0.2,0-0.3,0.6-0.3,0.6C444.6,8.2,444.8,8.1,444.8,8.1"/>
		<path class="st3" d="M442.6,8.7c-0.3-0.1-1.1-0.1-1.1-0.1c-1.2,0-1.5,0.8-1.5,0.8c-0.1,0.2,0.1,0.3,0.1,0.3    c0.3,0.1,0.3-0.1,0.3-0.1s0.1-0.2,0.6-0.3c0,0.1,0,0.1,0,0.2c0,0.3,0.3,0.6,0.6,0.6c0.3,0,0.6-0.3,0.6-0.6c0-0.1,0-0.2,0-0.2    c0.2,0.1,0.3,0.2,0.4,0.4c0,0.1,0.1,0.1,0.4,0.1c0.2,0,0.2-0.2,0.2-0.2C443,8.8,442.6,8.7,442.6,8.7"/>
		<path class="st3" d="M444.8,9.6c0.2,0,0.3,0,0.4-0.1c0.1-0.2,0.3-0.3,0.4-0.4c0,0.1,0,0.2,0,0.2c0,0.3,0.3,0.6,0.6,0.6    c0.3,0,0.6-0.3,0.6-0.6c0-0.1,0-0.2,0-0.2c0.5,0.1,0.6,0.3,0.6,0.3s0.1,0.2,0.3,0.1c0,0,0.2,0,0.1-0.3c0,0-0.3-0.7-1.5-0.8    c0,0-0.7,0-1.1,0.1c0,0-0.4,0.2-0.5,0.8C444.6,9.5,444.5,9.6,444.8,9.6"/>
		<path class="st3" d="M439.6,8.6c0.2,0.1,0.3-0.1,0.3-0.1s0.3-0.8,3-0.3c0,0,0.2,0,0.2-0.2c0,0-0.1-0.5-0.3-0.6    c-0.8-0.1-1.5,0-1.5,0c-1.4,0.1-1.7,1-1.7,1C439.4,8.6,439.6,8.6,439.6,8.6"/>
		<path class="st6" d="M455.7,50.2c-0.4-0.1-1.1-0.1-1.9,0.2c-0.1,0-0.2,0-0.3-0.1s-0.1-0.2,0-0.3c0,0,0.2-0.6,0.3-1.2l0,0l0,0    c-0.2,0.2-0.4,0.4-0.6,0.6c-0.6,0.7-0.8,1.3-0.8,2l0,0c0.1,0,0.2,0,0.4,0c0.2,0,0.3,0,0.6-0.1C453.8,51.5,454.7,51.1,455.7,50.2    L455.7,50.2L455.7,50.2"/>
		<path class="st6" d="M434,49C434,49,434,48.9,434,49C433.9,49,433.9,49,434,49c0,0.6,0.3,1.2,0.3,1.2c0,0.1,0,0.2,0,0.3    s-0.3,0-0.4-0.1c-0.8-0.3-1.4-0.3-1.9-0.2l0,0l0,0c0.8,0.7,1.6,1.2,2.4,1.4c0.2,0,0.4,0.1,0.6,0.1s0.3,0,0.4,0l0,0    C435.4,50.3,434.5,49.4,434,49"/>
		<path class="st6" d="M457.4,47.9c-0.4,0-1.1,0.2-1.8,0.6c-0.1,0.1-0.2,0-0.3,0c-0.1-0.1-0.1-0.1-0.1-0.2c0,0,0.1-0.6,0.1-1.2l0,0    l0,0c-0.2,0.2-0.3,0.4-0.5,0.6c-0.5,0.7-0.7,1.4-0.6,2.1l0,0h0.1c0.2,0,0.5,0,0.9-0.1c0.4-0.1,0.8-0.3,1.2-0.6    C456.8,48.7,457.1,48.3,457.4,47.9L457.4,47.9L457.4,47.9"/>
		<path class="st6" d="M458.9,45.5c-0.4,0.1-1.1,0.3-1.7,0.8c-0.1,0.1-0.2,0.1-0.3,0c-0.1,0-0.1-0.1-0.1-0.2c0,0,0.1-0.6-0.1-1.2    l0,0l0,0c-0.2,0.2-0.3,0.4-0.4,0.7c-0.4,0.7-0.5,1.5-0.4,2.1l0,0l0,0c0.1,0,0.5,0,1-0.2c0.4-0.2,0.8-0.4,1.1-0.7    C458.3,46.4,458.6,46,458.9,45.5L458.9,45.5L458.9,45.5"/>
		<path class="st6" d="M460,42.9c-0.1,0-0.2,0-0.2,0.1c-0.3,0.1-0.9,0.4-1.4,0.9c-0.1,0.1-0.2,0.1-0.3,0.1s-0.1-0.1-0.2-0.2    c0,0,0-0.6-0.2-1.2l0,0l0,0c-0.1,0.2-0.2,0.5-0.3,0.7c-0.3,0.8-0.3,1.5-0.1,2.2l0,0l0,0c0.2,0,0.5-0.1,0.9-0.4    c0.4-0.2,0.7-0.5,1-0.9C459.6,43.8,459.8,43.4,460,42.9L460,42.9L460,42.9"/>
		<path class="st6" d="M460.8,40.3c-0.4,0.2-1,0.5-1.5,1.1c-0.1,0.1-0.2,0.1-0.2,0.1c-0.1,0-0.2-0.1-0.2-0.2c0,0-0.1-0.7-0.3-1.2    l0,0l0,0l0,0c-0.1,0.3-0.2,0.5-0.2,0.8c-0.1,0.6-0.2,1.4,0.1,2.2l0,0l0,0c0.1,0,0.5-0.2,0.9-0.4c0.3-0.2,0.6-0.6,0.9-1    C460.5,41.2,460.7,40.8,460.8,40.3C460.9,40.3,460.9,40.3,460.8,40.3C460.9,40.3,460.9,40.3,460.8,40.3"/>
		<path class="st6" d="M461.4,37.5c-0.4,0.2-0.9,0.6-1.4,1.3c0,0.1-0.1,0.1-0.2,0.1c-0.1,0-0.2-0.1-0.2-0.2c0,0-0.2-0.7-0.5-1.2l0,0    l0,0c-0.1,0.3-0.1,0.5-0.2,0.8c-0.1,0.8,0,1.6,0.4,2.2l0,0l0,0c0.2-0.1,0.5-0.2,0.8-0.6c0.3-0.3,0.6-0.6,0.8-1.1    C461.2,38.5,461.3,38,461.4,37.5L461.4,37.5L461.4,37.5"/>
		<path class="st6" d="M460.4,36.1c0,0.1-0.1,0.1-0.2,0.1c-0.1,0-0.2-0.1-0.2-0.2c0,0-0.2-0.6-0.6-1.1l0,0l0,0    c-0.1,0.3-0.1,0.5-0.1,0.8c0,0.8,0.2,1.5,0.6,2.1l0,0l0,0c0.1-0.1,0.5-0.3,0.8-0.6c0.3-0.3,0.5-0.7,0.6-1.1    c0.2-0.4,0.3-0.9,0.3-1.5l0,0l0,0C461.3,34.9,460.8,35.4,460.4,36.1"/>
		<path class="st6" d="M460.3,33.6c-0.1,0-0.2,0-0.2-0.1c0,0-0.3-0.5-0.7-1l0,0l0,0c0,0.7,0,1.9,0.8,2.8l0,0l0,0    c0.1-0.1,0.4-0.3,0.7-0.7c0.2-0.3,0.4-0.7,0.5-1.2c0.1-0.4,0.2-0.9,0.1-1.5l0,0l0,0c-0.3,0.3-0.8,0.8-1,1.5    C460.5,33.5,460.4,33.6,460.3,33.6"/>
		<path class="st6" d="M460.2,30.9c-0.1,0-0.2,0-0.2-0.1c0,0-0.3-0.5-0.8-0.9l0,0l0,0c0.1,0.7,0.3,2.1,1,2.7l0,0l0,0    c0.1-0.1,0.4-0.4,0.6-0.8c0.2-0.4,0.3-0.8,0.4-1.2c0.1-0.5,0.1-1,0-1.5l0,0l0,0c-0.3,0.3-0.7,0.8-0.9,1.6    C460.4,30.8,460.3,30.9,460.2,30.9"/>
		<path class="st6" d="M459.9,28.3c-0.1,0-0.2,0-0.2-0.1c0,0-0.4-0.5-0.8-0.9l0,0l0,0c0,0.3,0.1,0.5,0.1,0.8    c0.1,0.6,0.4,1.3,1.1,1.9l0,0l0,0c0.1-0.1,0.4-0.4,0.6-0.8c0.2-0.4,0.3-0.8,0.4-1.3c0-0.5,0-1-0.1-1.5l0,0l0,0    c-0.3,0.3-0.6,0.9-0.8,1.7C460,28.2,459.9,28.3,459.9,28.3"/>
		<path class="st6" d="M459.3,25.7c-0.1,0-0.2,0-0.2-0.1c0,0-0.4-0.5-1-0.8l0,0l0,0c0.1,0.3,0.1,0.5,0.2,0.8    c0.3,0.8,0.8,1.4,1.3,1.7l0,0l0,0c0.1-0.1,0.3-0.4,0.5-0.9c0.1-0.4,0.2-0.8,0.2-1.3s-0.1-0.9-0.3-1.5l0,0l0,0    c-0.2,0.4-0.5,1-0.6,1.8C459.4,25.6,459.4,25.7,459.3,25.7"/>
		<path class="st6" d="M458.1,23.1c0,0-0.5-0.4-1-0.7l0,0l0,0c0.1,0.3,0.2,0.5,0.3,0.7c0.4,0.7,0.9,1.3,1.5,1.6l0,0l0,0    c0.1-0.1,0.3-0.4,0.4-0.9c0.1-0.4,0.1-0.8,0-1.3c-0.1-0.5-0.2-0.9-0.4-1.4l0,0l0,0c-0.2,0.4-0.4,1-0.4,1.8c0,0.1,0,0.2-0.1,0.2    C458.3,23.2,458.2,23.2,458.1,23.1"/>
		<path class="st6" d="M455.8,20.2L455.8,20.2c0.1,0.3,0.2,0.5,0.4,0.7c0.5,0.7,1,1.2,1.7,1.4l0,0l0,0c0.1-0.1,0.2-0.5,0.3-1    c0-0.4,0-0.8-0.1-1.3c-0.1-0.4-0.3-0.9-0.6-1.4l0,0l0,0c-0.1,0.4-0.3,1-0.2,1.8c0,0.1,0,0.2-0.1,0.2c-0.1,0-0.2,0-0.3,0    C456.9,20.7,456.4,20.3,455.8,20.2L455.8,20.2"/>
		<path class="st6" d="M454.3,18.1C454.3,18.1,454.3,18.2,454.3,18.1c0.2,0.3,0.3,0.5,0.5,0.7c0.6,0.6,1.2,1,1.9,1.1l0,0l0,0    c0.1-0.2,0.1-0.5,0.1-1c0-0.4-0.1-0.8-0.3-1.3c-0.2-0.4-0.5-0.8-0.8-1.2l0,0l0,0c-0.1,0.4-0.1,1.1,0.1,1.8c0,0.1,0,0.2-0.1,0.3    c-0.1,0.1-0.2,0.1-0.3,0C455.5,18.5,454.9,18.2,454.3,18.1L454.3,18.1"/>
		<path class="st6" d="M454,16.5c-0.1,0.1-0.2,0.1-0.3,0.1c0,0-0.5-0.2-1.1-0.2h-0.1l0,0l0,0c0.2,0.2,0.4,0.4,0.7,0.6    c0.5,0.4,1.2,0.8,2,0.8l0,0l0,0c0-0.1,0-0.5-0.1-1c-0.1-0.4-0.3-0.8-0.5-1.2c-0.2-0.4-0.6-0.8-1-1.1l0,0l0,0    c0,0.4,0.1,1.1,0.4,1.8C454.1,16.3,454,16.4,454,16.5"/>
		<path class="st6" d="M433.4,49.8h0.1l0,0c0.1-1.1-0.7-2.2-1.1-2.7l0,0l0,0c-0.1,0.6,0.1,1.2,0.1,1.2c0,0.1,0,0.2-0.1,0.2    c-0.1,0.1-0.2,0.1-0.3,0c-0.7-0.4-1.4-0.6-1.8-0.6l0,0l0,0c0.3,0.4,0.7,0.8,1,1.1c0.4,0.3,0.8,0.5,1.2,0.6    C432.9,49.7,433.2,49.8,433.4,49.8"/>
		<path class="st6" d="M431.9,47.7L431.9,47.7L431.9,47.7c0.2-0.8-0.1-1.6-0.4-2.1c-0.1-0.2-0.3-0.5-0.4-0.7l0,0l0,0    c-0.2,0.6-0.1,1.1-0.1,1.2s0,0.2-0.1,0.2s-0.2,0-0.3,0c-0.7-0.5-1.3-0.7-1.7-0.8l0,0l0,0c0.3,0.5,0.6,0.9,0.9,1.2    c0.3,0.3,0.7,0.6,1.1,0.7C431.3,47.6,431.7,47.7,431.9,47.7"/>
		<path class="st6" d="M430.4,45.5L430.4,45.5L430.4,45.5c0.2-0.7,0.2-1.4-0.1-2.2c-0.1-0.3-0.2-0.5-0.3-0.7l0,0l0,0    c-0.2,0.6-0.2,1.2-0.2,1.2c0,0.1-0.1,0.2-0.1,0.2c-0.1,0-0.2,0-0.2-0.1c-0.5-0.5-1-0.8-1.4-0.9c-0.2,0-0.3,0-0.4,0l0,0l0,0    c0.2,0.5,0.5,0.9,0.8,1.3c0.3,0.4,0.6,0.7,1,0.9S430.3,45.4,430.4,45.5"/>
		<path class="st6" d="M429.3,43.1L429.3,43.1L429.3,43.1c0.6-1.2,0.2-2.4-0.1-3l0,0l0,0l0,0c-0.3,0.6-0.4,1.2-0.4,1.2    c0,0.1-0.1,0.2-0.2,0.2s-0.2,0-0.2-0.1c-0.4-0.6-0.9-0.9-1.3-1c-0.1,0-0.1-0.1-0.2-0.1l0,0l0,0C427.5,42.4,428.7,42.9,429.3,43.1"/>
		<path class="st6" d="M427.5,40c0.4,0.3,0.7,0.5,0.9,0.5l0,0l0,0c0.4-0.7,0.6-1.5,0.4-2.3c-0.1-0.3-0.1-0.5-0.3-0.7l0,0l0,0    c-0.3,0.5-0.5,1.2-0.5,1.2l0,0l0,0c0,0.1-0.1,0.2-0.2,0.2c-0.1,0-0.2,0-0.2-0.1c-0.5-0.7-1-1.1-1.4-1.2l0,0l0,0    c0.1,0.5,0.3,1,0.5,1.4C426.9,39.4,427.2,39.8,427.5,40"/>
		<path class="st6" d="M427.7,38L427.7,38L427.7,38c0.9-1.2,0.8-2.3,0.7-2.9l0,0l0,0c-0.4,0.5-0.7,1.1-0.7,1.1    c0,0.1-0.1,0.1-0.2,0.1l0,0c-0.1,0-0.2-0.1-0.2-0.1c-0.3-0.6-0.7-1.1-1-1.3c-0.1-0.1-0.1-0.1-0.2-0.2l0,0l0,0    C426.1,36.9,427.2,37.8,427.7,38"/>
		<path class="st6" d="M427.4,35.4C427.4,35.4,427.5,35.4,427.4,35.4C427.5,35.4,427.5,35.4,427.4,35.4c0.4-0.4,0.7-0.9,0.8-1.6    c0.1-0.5,0-1,0-1.3l0,0l0,0c-0.5,0.4-0.6,1-0.6,1c0,0.1-0.1,0.2-0.2,0.2s-0.2-0.1-0.2-0.2c-0.2-0.7-0.6-1.1-0.8-1.4    c-0.1,0-0.1-0.1-0.2-0.1l0,0l0,0C426,34.1,427,35.1,427.4,35.4"/>
		<path class="st6" d="M426.8,31.8c0.2,0.4,0.5,0.7,0.6,0.8l0,0l0,0c0.5-0.5,0.8-1.1,1-1.9c0-0.3,0.1-0.5,0.1-0.8l0,0l0,0    c-0.5,0.4-0.7,0.9-0.7,0.9c0,0.1-0.1,0.1-0.2,0.1s-0.2-0.1-0.2-0.2c-0.2-0.8-0.6-1.3-0.9-1.6l0,0l0,0c-0.1,0.5-0.1,1,0,1.5    C426.5,31.1,426.6,31.5,426.8,31.8"/>
		<path class="st6" d="M427.1,29.1c0.2,0.4,0.5,0.7,0.6,0.8l0,0l0,0c0.6-0.5,1-1.2,1.1-2c0.1-0.2,0.1-0.5,0.1-0.7l0,0l0,0    c-0.5,0.4-0.8,0.9-0.9,0.9c-0.1,0.1-0.1,0.1-0.2,0.1c-0.1,0-0.2-0.1-0.2-0.2c-0.2-0.8-0.5-1.4-0.8-1.7l0,0l0,0    c-0.1,0.5-0.1,1-0.1,1.5C426.8,28.3,426.9,28.8,427.1,29.1"/>
		<path class="st6" d="M428,27.3C428,27.3,428.1,27.3,428,27.3C428.1,27.3,428.1,27.3,428,27.3c0.7-0.4,1.2-1,1.5-1.8    c0.1-0.2,0.1-0.5,0.2-0.7l0,0l0,0c-0.6,0.3-1,0.8-1,0.8c-0.1,0.1-0.2,0.1-0.2,0.1c-0.1,0-0.2-0.1-0.2-0.2    c-0.1-0.8-0.4-1.4-0.6-1.8l0,0l0,0c-0.2,0.5-0.2,1-0.3,1.5c0,0.5,0.1,0.9,0.2,1.3C427.7,26.9,428,27.2,428,27.3"/>
		<path class="st6" d="M428.7,24.7C428.7,24.7,428.7,24.8,428.7,24.7L428.7,24.7c0.8-0.4,1.3-0.9,1.7-1.6c0.1-0.2,0.2-0.4,0.3-0.7    l0,0l0,0c-0.6,0.2-1.1,0.7-1.1,0.7c-0.1,0.1-0.2,0.1-0.3,0c-0.1,0-0.1-0.1-0.1-0.2c0-0.8-0.2-1.4-0.4-1.8l0,0l0,0l0,0    c-0.2,0.5-0.4,1-0.4,1.4c-0.1,0.5-0.1,0.9,0,1.3C428.4,24.3,428.6,24.6,428.7,24.7"/>
		<path class="st6" d="M429.7,22.3L429.7,22.3L429.7,22.3c0.7-0.2,1.3-0.6,1.8-1.3c0.2-0.3,0.4-0.6,0.5-0.8l0,0l0,0    c-0.7,0.1-1.1,0.5-1.1,0.5c-0.1,0.1-0.2,0.1-0.3,0c-0.1,0-0.1-0.1-0.1-0.2c0.2-0.8,0-1.5-0.1-1.9l0,0l0,0c-0.4,0.5-0.6,1-0.8,1.4    c-0.1,0.4-0.2,0.9-0.2,1.3C429.5,21.8,429.6,22.2,429.7,22.3"/>
		<path class="st6" d="M431.1,19.9L431.1,19.9c1.1-0.2,2-1.2,2.4-1.8l0,0l0,0c-0.7,0.1-1.2,0.4-1.2,0.4c-0.1,0.1-0.2,0.1-0.3,0    s-0.1-0.2-0.1-0.3c0.3-0.8,0.2-1.4,0.1-1.8l0,0l0,0C430.6,18.1,430.9,19.4,431.1,19.9C431,19.9,431,19.9,431.1,19.9"/>
		<path class="st6" d="M432.6,17.8C432.7,17.8,432.7,17.8,432.6,17.8c0.7,0,1.4-0.4,1.9-0.8c0.2-0.2,0.5-0.4,0.7-0.6l0,0l0,0    c-0.6,0-1.2,0.2-1.2,0.2c-0.1,0-0.2,0-0.3-0.1c-0.1-0.1-0.1-0.2,0-0.3c0.4-0.7,0.4-1.4,0.4-1.8l0,0l0,0c-0.4,0.4-0.7,0.7-1,1.1    c-0.3,0.4-0.4,0.8-0.5,1.2C432.6,17.2,432.6,17.6,432.6,17.8L432.6,17.8"/>
		<path class="st6" d="M437.3,14.8c-0.6,0-1.2,0.1-1.2,0.1c-0.1,0-0.2,0-0.2-0.1c-0.1-0.1-0.1-0.2,0-0.3c0.5-0.7,0.6-1.3,0.6-1.8    l0,0l0,0c-1.8,1.3-1.9,2.6-1.9,3.1l0,0h0.1C435.8,15.9,436.8,15.2,437.3,14.8L437.3,14.8L437.3,14.8"/>
		<path class="st6" d="M439.6,13.7c-0.2-0.1-0.4-0.1-0.6-0.1c-0.3,0-0.6,0-0.6,0l0,0c-0.1,0-0.2-0.1-0.2-0.1c0-0.1,0-0.2,0.1-0.3    c0.6-0.5,0.9-1,1-1.3l0,0l0,0c-2.1,0.7-2.5,1.9-2.6,2.4l0,0c0.2,0.1,0.5,0.1,0.8,0.1c0.4,0,0.9-0.1,1.4-0.3    C439.1,14,439.4,13.9,439.6,13.7L439.6,13.7L439.6,13.7"/>
		<path class="st6" d="M442.1,13c-0.5-0.3-1.2-0.4-1.2-0.4c-0.1,0-0.2-0.1-0.2-0.2c0-0.1,0-0.2,0.1-0.2c0.7-0.3,1-0.7,1.2-0.9l0,0    l0,0c-1.1,0.1-1.9,0.5-2.4,1c-0.3,0.3-0.4,0.5-0.5,0.7l0,0c0.5,0.2,1,0.3,1.4,0.3c0.3,0,0.6,0,0.8-0.1    C441.6,13.2,441.8,13.2,442.1,13C442.1,13.1,442.1,13.1,442.1,13C442.1,13.1,442.1,13,442.1,13"/>
		<path class="st6" d="M443.7,12.3c-0.1,0-0.2-0.1-0.2-0.2c0-0.1,0.1-0.2,0.2-0.2c0.7-0.2,1.1-0.5,1.3-0.6l0,0l0,0    c-1.1-0.1-1.9,0.1-2.6,0.5c-0.3,0.2-0.5,0.4-0.6,0.6l0,0c0.7,0.5,1.6,0.7,2.3,0.7c0.2,0,0.4,0,0.6,0l0,0l0,0    C444.3,12.6,443.7,12.3,443.7,12.3"/>
		<path class="st6" d="M446.4,12.5c-0.1-0.1-0.1-0.2-0.1-0.2c0-0.1,0.1-0.2,0.2-0.2c0.7-0.1,1.1-0.2,1.4-0.4l0,0l0,0    c-1-0.3-1.9-0.3-2.6,0c-0.4,0.1-0.6,0.3-0.7,0.5l0,0c0.9,1,2.1,1.2,2.7,1.2l0,0l0,0C447,12.9,446.4,12.5,446.4,12.5"/>
		<path class="st6" d="M453.2,15.9L453.2,15.9c0-0.2,0-0.7-0.2-1.1c-0.3-0.8-0.9-1.4-1.9-1.7l0,0l0,0c0.1,0.4,0.4,0.9,0.7,1.4    c0.1,0.1,0.1,0.2,0,0.3c-0.1,0.1-0.2,0.1-0.2,0.1s-0.6-0.1-1.2,0l0,0l0,0c0.6,0.4,1.7,1,2.7,1H453.2"/>
		<path class="st6" d="M451.1,14.2L451.1,14.2c-0.5-0.6-1.2-0.8-2-0.8c-0.3,0-0.6,0.1-0.8,0.2l0,0l0,0c0.6,0.5,1.3,0.7,2,0.7h0.1    C450.6,14.4,450.9,14.3,451.1,14.2L451.1,14.2"/>
		<path class="st6" d="M447.2,12.6L447.2,12.6c0.4,0.3,0.9,0.4,1.5,0.4c0.2,0,0.5,0,0.8-0.1c0.4-0.1,0.8-0.2,1-0.3l0,0l0,0    c-0.4-0.2-0.8-0.3-1.2-0.4c-0.4-0.1-0.8-0.1-1.2,0S447.4,12.4,447.2,12.6L447.2,12.6"/>
		<path class="st7" d="M439.5,27.6c0.1,0.2,0.3,0.2,0.6,0.2h3c-1.8-1.1-2.5-0.9-3.7-0.3C439.4,27.6,439.4,27.6,439.5,27.6"/>
		<path class="st7" d="M446.8,26.3c-0.3-0.1-0.6-0.1-0.8-0.2c-0.9-0.4-1.7-1-1.8-1c-0.2-0.1-0.2-0.4-0.1-0.6    c0.2-0.2,0.4-0.2,0.6-0.1c0,0,0.7,0.6,1.5,0.9c0.2,0.1,0.4,0.1,0.7,0.2c0.4,0.1,0.8,0.2,1.2,0.4c-0.1-0.5-0.2-0.9-0.2-1.3    c-1.2-0.3-2.2-1.1-2.3-1.1c-0.1-0.1-0.1-0.2-0.2-0.3c0-0.1,0-0.2,0.1-0.3c0.2-0.2,0.4-0.2,0.6-0.1c0,0,0.7,0.5,1.5,0.8    c-0.3-1.2-0.8-2.3-1.3-3.4c-0.4-0.8-1-1.3-1.8-1.6c-0.6-0.2-1-0.1-1-0.1l0,0c0,0-1.5,0-2.4,1.1l0,0c-0.2,0.2-0.6,0.7-0.7,1.1    c0,0.2,0,0.4,0.2,0.5c0.1,0,0.3,0.1,0.7-0.2c0.1-0.1,0.2-0.1,0.2-0.1c0.2-0.1,0.5-0.1,0.6,0.1s0.1,0.4-0.1,0.6    c-0.1,0-0.1,0.1-0.2,0.1c-0.2,0.2-0.6,0.5-1,1c-0.5,0.7-1.3,2-1.6,3.8v0.1c1.3-0.5,2.3-0.8,4.5,0.7c0.9,0.6,1.9,0.6,2.1,0.6h1l0,0    c0.3,0,1,0,1.3-0.4c0.1-0.1,0.1-0.1,0.1-0.2C448.4,26.8,447.9,26.5,446.8,26.3"/>
		<path class="st8" d="M442.5,43.4c0.1-0.1,0.2-0.2,0.3-0.3c0-0.1,0-0.1-0.1-0.2c-0.1-0.1-0.2-0.1-0.3-0.1c-0.2,0-0.5,0.2-0.9,0.4    c-0.3,0.2-0.7,0.5-0.6,0.8c0,0.1,0.1,0.2,0.1,0.2c0.2,0.1,0.6,0.1,0.8,0.1C441.8,44,442.1,43.7,442.5,43.4"/>
		<path class="st8" d="M444,44c0,0,0-0.1-0.1-0.2c0,0-0.2-0.1-0.6,0.1c-0.3,0.2-0.7,0.4-0.9,0.8c0.1,0.1,0.2,0.1,0.2,0.1    c0.4,0.1,0.9-0.2,1-0.4l0,0C443.8,44.3,444,44.1,444,44"/>
		<path class="st8" d="M439.3,41.8L439.3,41.8c-0.4,0-0.9,0.2-1.1,0.5c-0.1,0.2-0.1,0.3-0.1,0.3c0,0.1,0.2,0.1,0.4,0.2    c0.1,0,0.1,0,0.2,0c0.1-0.4,0.3-0.6,0.6-0.8c0.1-0.1,0.1-0.1,0.2-0.2C439.5,41.8,439.4,41.8,439.3,41.8    C439.4,41.8,439.4,41.8,439.3,41.8"/>
		<path class="st8" d="M439.5,43.2c0,0.1,0,0.3,0.4,0.4c0.1,0,0.1,0,0.2,0c0.1-0.4,0.4-0.7,0.9-1.1c0.1,0,0.1-0.1,0.2-0.1v-0.1    c0-0.1-0.1-0.1-0.2-0.2c-0.1,0-0.2-0.1-0.2-0.1c-0.2,0-0.5,0.2-0.9,0.5C439.6,42.9,439.5,43,439.5,43.2"/>
		<path class="st8" d="M449,42.5c0.2,0,0.4-0.1,0.5-0.2c0.1-0.1,0.2-0.2,0.2-0.4c-0.2-0.3-1-1.2-2-1.8c-0.4-0.3-0.9-0.6-1.4-0.7    c-0.5-0.2-1-0.2-1.4-0.1l0,0c-0.1,0-0.3,0.1-0.5,0.3c-0.1,0.1-0.3,0.2-0.4,0.3c-0.5,0.3-1.1,0.4-1.6,0.5c-0.5,0-1,0.1-1.4-0.4    c-0.2-0.3-0.3-0.6-0.2-0.9c0.1-0.3,0.5-0.5,0.9-0.7c0.2-0.1,0.4-0.2,0.5-0.3c0.2-0.1,0.3-0.2,0.5-0.4c0.2-0.1,0.4-0.3,0.7-0.5    c0.1-0.1,0.3-0.2,0.4-0.2c-0.1,0-0.3,0-0.5-0.1c-0.7-0.1-1.2,0.2-2,0.7c-0.7,0.4-1.9,0.8-3.9,1.2c-1.9,0.4-4.5,0.8-7.8,1.1    c0.3,0.4,0.4,0.7,0.5,1.1c0.4,1.3,0.9,2.5,1.5,3.6c1.2-0.5,4-1.8,6.2-3c0.4-0.4,1.1-0.7,1.6-0.6c0.1,0,0.5,0.1,0.8,0.3    c0.4-0.1,0.7-0.1,1,0.1c0.4,0.2,0.5,0.4,0.6,0.6c0.5-0.1,0.9-0.1,1.2,0.3c0.2,0.2,0.3,0.4,0.4,0.6c0.4-0.1,0.8,0.1,0.9,0.3    c0.3,0.3,0.4,0.6,0.3,0.8c0,0.2-0.1,0.3-0.2,0.5c0.2,0,0.4,0,0.6-0.1c0.1,0,0.1-0.1,0.2-0.1c-0.1-0.2-0.3-0.5-0.5-0.8    c-0.1-0.1-0.1-0.2-0.1-0.3s0.1-0.2,0.1-0.3c0.2-0.1,0.4-0.1,0.5,0c0.4,0.4,0.6,0.8,0.7,1.1c0.2,0,0.4,0,0.5-0.2    c0.1-0.1,0.1-0.2,0.2-0.2c0-0.1-0.1-0.3-0.4-0.6c-0.2-0.3-0.7-0.6-0.9-0.7c-0.1-0.1-0.1-0.1-0.2-0.3c0-0.1,0-0.2,0.1-0.3    c0.1-0.1,0.1-0.1,0.2-0.2c0.1,0,0.2,0,0.3,0.1c0,0,0.7,0.5,1,0.9c0.2,0.3,0.4,0.5,0.5,0.7c0.3,0,0.5-0.1,0.6-0.2    c0-0.1,0.1-0.1,0.1-0.2c-0.3-0.4-1-1.3-1.9-1.7c-0.1,0-0.2-0.1-0.2-0.2c0-0.1,0-0.2,0-0.3s0.1-0.2,0.2-0.2s0.2,0,0.3,0    C447.8,41.1,448.6,42.1,449,42.5"/>
		<path class="st8" d="M444,38.9c0.3-0.2,0.5-0.3,0.7-0.4c1.3-0.3,2.6,0.5,3.3,1c1,0.6,1.7,1.4,2,1.8c0,0,0,0,0.1,0.1l0,0l0,0    c0.1,0.1,0.3,0.4,0.7,0.6c1.6,1.2,4.1,2.3,5.2,2.7c0.6-1.2,1.2-2.4,1.6-3.8c0.1-0.3,0.2-0.6,0.3-1c-2.1-0.1-4.3-0.6-5.7-0.9    c-1.7-0.4-3-0.8-3-0.8c-0.3-0.1-0.7-0.2-0.9-0.3c-0.9-0.3-1.6-0.6-2.2-0.5c-0.1,0-0.2,0-0.2,0c-0.1,0-0.2,0-0.3,0l0,0    c-0.6,0-1.1,0-1.4,0.3c-0.3,0.2-0.5,0.3-0.6,0.5c-0.2,0.1-0.3,0.3-0.6,0.4c-0.2,0.1-0.4,0.2-0.6,0.3s-0.5,0.2-0.5,0.3    c0,0,0,0.1,0.1,0.2c0.1,0.1,0.3,0.1,0.7,0.1c0.3,0,0.8-0.1,1.2-0.4C443.8,39.1,443.9,39,444,38.9"/>
	</g>
</g>
<g>
	<path class="st0" d="M5.2,41.9l1.7-2c1.5,1.3,3,2,4.9,2c1.7,0,2.8-0.8,2.8-2l0,0c0-1.1-0.6-1.7-3.5-2.4c-3.4-0.8-5.3-1.7-5.3-4.6   l0,0c0-2.7,2.2-4.5,5.3-4.5c2.3,0,4.1,0.7,5.7,2l-1.5,2.1c-1.4-1-2.8-1.6-4.2-1.6c-1.6,0-2.5,0.8-2.5,1.9l0,0   c0,1.2,0.7,1.7,3.7,2.5c3.3,0.8,5,2,5,4.6l0,0c0,2.9-2.3,4.7-5.6,4.7C9.3,44.4,7.1,43.5,5.2,41.9z"/>
	<path class="st0" d="M19.8,39.9v-7.5h2.7v6.7c0,1.8,0.9,2.9,2.5,2.9s2.7-1.1,2.7-2.9v-6.6h2.7v11.8h-2.7v-1.8   c-0.8,1.1-1.9,2.1-3.7,2.1C21.3,44.4,19.8,42.6,19.8,39.9z"/>
	<path class="st0" d="M36.2,42.3v1.8h-2.7V27.9h2.7v6.5c0.9-1.2,2.1-2.2,4-2.2c2.8,0,5.5,2.2,5.5,6.1l0,0c0,3.9-2.7,6.1-5.5,6.1   C38.3,44.4,37,43.4,36.2,42.3z M43,38.3L43,38.3c0-2.3-1.5-3.8-3.4-3.8c-1.8,0-3.4,1.5-3.4,3.8l0,0c0,2.3,1.6,3.8,3.4,3.8   C41.4,42.1,43,40.6,43,38.3z"/>
	<path class="st0" d="M47.3,42.6l1.2-1.8c1.3,1,2.7,1.4,3.9,1.4s1.8-0.5,1.8-1.3l0,0c0-0.9-1.2-1.2-2.6-1.7   c-1.7-0.5-3.7-1.2-3.7-3.5l0,0c0-2.2,1.9-3.6,4.2-3.6c1.5,0,3.1,0.5,4.3,1.3l-1.1,1.9c-1.1-0.7-2.3-1.1-3.3-1.1s-1.7,0.5-1.7,1.2   l0,0c0,0.9,1.3,1.2,2.7,1.7c1.7,0.5,3.7,1.3,3.7,3.4l0,0c0,2.5-1.9,3.7-4.4,3.7C50.6,44.4,48.8,43.8,47.3,42.6z"/>
	<path class="st0" d="M58.5,38.3L58.5,38.3c0-3.4,2.4-6.2,5.8-6.2c3.7,0,5.6,2.9,5.6,6.3c0,0.2,0,0.5,0,0.8h-8.7   c0.3,1.9,1.7,3,3.4,3c1.3,0,2.3-0.5,3.2-1.4l1.6,1.4c-1.1,1.3-2.7,2.2-4.8,2.2C61.2,44.4,58.5,41.9,58.5,38.3z M67.2,37.4   c-0.2-1.7-1.2-3.1-3-3.1c-1.7,0-2.8,1.3-3.1,3.1H67.2z"/>
	<path class="st0" d="M71.7,38.3L71.7,38.3c0-3.4,2.6-6.2,6.1-6.2c2.2,0,3.6,0.8,4.7,2l-1.7,1.8c-0.8-0.9-1.7-1.5-3-1.5   c-2,0-3.4,1.7-3.4,3.7l0,0c0,2.1,1.4,3.8,3.5,3.8c1.3,0,2.2-0.6,3.1-1.4l1.6,1.6c-1.2,1.3-2.5,2.2-4.8,2.2   C74.3,44.4,71.7,41.7,71.7,38.3z"/>
	<path class="st0" d="M84.9,32.4h2.7v2.7c0.7-1.8,2.1-3,4.2-2.9v2.9h-0.2c-2.4,0-4,1.5-4,4.7v4.5h-2.7V32.4z"/>
	<path class="st0" d="M92.8,38.3L92.8,38.3c0-3.4,2.4-6.2,5.8-6.2c3.7,0,5.6,2.9,5.6,6.3c0,0.2,0,0.5,0,0.8h-8.7   c0.3,1.9,1.7,3,3.4,3c1.3,0,2.3-0.5,3.2-1.4l1.6,1.4c-1.1,1.3-2.7,2.2-4.8,2.2C95.4,44.4,92.8,41.9,92.8,38.3z M101.5,37.4   c-0.2-1.7-1.2-3.1-3-3.1c-1.7,0-2.8,1.3-3.1,3.1H101.5z"/>
	<path class="st0" d="M107.2,40.9v-6.2h-1.5v-2.3h1.5v-3.2h2.7v3.2h3.2v2.3h-3.2v5.8c0,1,0.5,1.5,1.4,1.5c0.6,0,1.1-0.1,1.7-0.4v2.2   c-0.7,0.4-1.4,0.6-2.4,0.6C108.6,44.4,107.2,43.5,107.2,40.9z"/>
	<path class="st0" d="M114.8,40.8L114.8,40.8c0-2.6,2-3.8,4.9-3.8c1.3,0,2.3,0.2,3.2,0.5v-0.3c0-1.7-1-2.6-2.9-2.6   c-1.3,0-2.3,0.3-3.4,0.7l-0.7-2.1c1.3-0.6,2.6-1,4.4-1s3.1,0.5,3.9,1.3c0.9,0.8,1.3,2.1,1.3,3.6v7h-2.6v-1.5c-0.8,1-2,1.7-3.8,1.7   C116.8,44.4,114.8,43.1,114.8,40.8z M122.9,39.9v-0.8c-0.7-0.3-1.6-0.5-2.7-0.5c-1.7,0-2.8,0.7-2.8,2l0,0c0,1.1,1,1.8,2.3,1.8   C121.5,42.4,122.9,41.4,122.9,39.9z"/>
	<path class="st0" d="M128.4,32.4h2.7v2.7c0.7-1.8,2.1-3,4.2-2.9v2.9h-0.2c-2.4,0-4,1.5-4,4.7v4.5h-2.7V32.4z"/>
	<path class="st0" d="M137.6,32.4h2.7v11.8h-2.7V32.4z M140.1,27.2l2.5,1.1l-2.7,2.6h-2L140.1,27.2z"/>
	<path class="st0" d="M142.7,40.8L142.7,40.8c0-2.6,2-3.8,4.9-3.8c1.3,0,2.3,0.2,3.2,0.5v-0.3c0-1.7-1-2.6-2.9-2.6   c-1.3,0-2.3,0.3-3.4,0.7l-0.7-2.1c1.3-0.6,2.6-1,4.4-1c1.8,0,3.1,0.5,3.9,1.3c0.9,0.8,1.3,2.1,1.3,3.6v7h-2.6v-1.5   c-0.8,1-2,1.7-3.8,1.7C144.7,44.4,142.7,43.1,142.7,40.8z M150.8,39.9v-0.8c-0.7-0.3-1.6-0.5-2.7-0.5c-1.7,0-2.8,0.7-2.8,2l0,0   c0,1.1,1,1.8,2.3,1.8C149.5,42.4,150.8,41.4,150.8,39.9z"/>
	<path class="st0" d="M162.2,38.3L162.2,38.3c0-3.9,2.7-6.2,5.5-6.2c1.9,0,3.2,1,4,2.1v-6.3h2.7v16.3h-2.7v-2   c-0.9,1.2-2.1,2.2-4,2.2C164.9,44.4,162.2,42.2,162.2,38.3z M171.7,38.3L171.7,38.3c0-2.3-1.6-3.8-3.4-3.8c-1.9,0-3.4,1.4-3.4,3.8   l0,0c0,2.3,1.6,3.8,3.4,3.8S171.7,40.5,171.7,38.3z"/>
	<path class="st0" d="M176.9,38.3L176.9,38.3c0-3.4,2.4-6.2,5.8-6.2c3.7,0,5.6,2.9,5.6,6.3c0,0.2,0,0.5,0,0.8h-8.7   c0.3,1.9,1.7,3,3.4,3c1.3,0,2.3-0.5,3.2-1.4l1.6,1.4c-1.1,1.3-2.7,2.2-4.8,2.2C179.5,44.4,176.9,41.9,176.9,38.3z M185.6,37.4   c-0.2-1.7-1.2-3.1-3-3.1c-1.7,0-2.8,1.3-3.1,3.1H185.6z"/>
	<path class="st0" d="M196.8,36.4L196.8,36.4c0-4.4,3.3-8.1,8.1-8.1c2.7,0,4.4,0.8,6,2.1l-1.7,2.1c-1.2-1-2.4-1.7-4.4-1.7   c-2.9,0-5.1,2.5-5.1,5.5l0,0c0,3.2,2.1,5.6,5.3,5.6c1.5,0,2.8-0.5,3.8-1.2v-2.9h-4v-2.4h6.6V42c-1.5,1.3-3.7,2.4-6.5,2.4   C200,44.4,196.8,40.9,196.8,36.4z"/>
	<path class="st0" d="M213.8,38.3L213.8,38.3c0-3.4,2.7-6.2,6.3-6.2s6.3,2.7,6.3,6.1l0,0c0,3.3-2.7,6.1-6.3,6.1   C216.4,44.4,213.8,41.7,213.8,38.3z M223.7,38.3L223.7,38.3c0-2.1-1.5-3.8-3.6-3.8c-2.2,0-3.5,1.7-3.5,3.7l0,0   c0,2.1,1.5,3.8,3.6,3.8C222.3,42.1,223.7,40.4,223.7,38.3z"/>
	<path class="st0" d="M231.5,42.3v1.8h-2.7V27.9h2.7v6.5c0.9-1.2,2.1-2.2,4-2.2c2.8,0,5.5,2.2,5.5,6.1l0,0c0,3.9-2.7,6.1-5.5,6.1   C233.6,44.4,232.4,43.4,231.5,42.3z M238.3,38.3L238.3,38.3c0-2.3-1.5-3.8-3.4-3.8c-1.8,0-3.4,1.5-3.4,3.8l0,0   c0,2.3,1.6,3.8,3.4,3.8C236.8,42.1,238.3,40.6,238.3,38.3z"/>
	<path class="st0" d="M243.6,28h2.9v2.6h-2.9V28z M243.7,32.4h2.7v11.8h-2.7V32.4z"/>
	<path class="st0" d="M249,38.3L249,38.3c0-3.4,2.4-6.2,5.8-6.2c3.7,0,5.6,2.9,5.6,6.3c0,0.2,0,0.5,0,0.8h-8.7c0.3,1.9,1.7,3,3.4,3   c1.3,0,2.3-0.5,3.2-1.4l1.6,1.4c-1.1,1.3-2.7,2.2-4.8,2.2C251.7,44.4,249,41.9,249,38.3z M257.8,37.4c-0.2-1.7-1.2-3.1-3-3.1   c-1.7,0-2.8,1.3-3.1,3.1H257.8z"/>
	<path class="st0" d="M262.9,32.4h2.7v2.7c0.7-1.8,2.1-3,4.2-2.9v2.9h-0.2c-2.4,0-4,1.5-4,4.7v4.5h-2.7V32.4z"/>
	<path class="st0" d="M271.9,32.4h2.7v1.8c0.8-1.1,1.9-2.1,3.7-2.1c2.7,0,4.2,1.8,4.2,4.5v7.5h-2.7v-6.7c0-1.8-0.9-2.9-2.5-2.9   s-2.7,1.1-2.7,2.9V44h-2.7V32.4z"/>
	<path class="st0" d="M284.8,38.3L284.8,38.3c0-3.4,2.7-6.2,6.3-6.2c3.6,0,6.3,2.7,6.3,6.1l0,0c0,3.3-2.7,6.1-6.3,6.1   C287.5,44.4,284.8,41.7,284.8,38.3z M294.7,38.3L294.7,38.3c0-2.1-1.5-3.8-3.6-3.8c-2.2,0-3.5,1.7-3.5,3.7l0,0   c0,2.1,1.5,3.8,3.6,3.8C293.3,42.1,294.7,40.4,294.7,38.3z"/>
	<path class="st0" d="M306.6,28.5h5.8c4.9,0,8.3,3.4,8.3,7.8l0,0c0,4.4-3.4,7.8-8.3,7.8h-5.8V28.5z M309.4,31v10.6h3.1   c3.3,0,5.4-2.2,5.4-5.3l0,0c0-3.1-2.1-5.3-5.4-5.3C312.5,31,309.4,31,309.4,31z"/>
	<path class="st0" d="M323.6,28h2.9v2.6h-2.9V28z M323.7,32.4h2.7v11.8h-2.7V32.4z"/>
	<path class="st0" d="M329.6,46.4l1-2c1.3,0.8,2.6,1.3,4.2,1.3c2.4,0,3.7-1.3,3.7-3.6v-0.9c-1,1.3-2.2,2.2-4.1,2.2   c-2.8,0-5.4-2.1-5.4-5.5l0,0c0-3.5,2.6-5.5,5.4-5.5c2,0,3.2,0.9,4.1,2v-1.8h2.7V42c0,2-0.5,3.5-1.5,4.4c-1.1,1.1-2.7,1.6-4.8,1.6   C332.9,47.8,331.1,47.3,329.6,46.4z M338.6,37.7L338.6,37.7c0-2-1.6-3.3-3.5-3.3s-3.3,1.3-3.3,3.2l0,0c0,1.9,1.5,3.2,3.3,3.2   C337,40.9,338.6,39.6,338.6,37.7z"/>
	<path class="st0" d="M344.4,28h2.9v2.6h-2.9V28z M344.5,32.4h2.7v11.8h-2.7V32.4z"/>
	<path class="st0" d="M351,40.9v-6.2h-1.5v-2.3h1.5v-3.2h2.7v3.2h3.2v2.3h-3.2v5.8c0,1,0.5,1.5,1.4,1.5c0.6,0,1.1-0.1,1.7-0.4v2.2   c-0.7,0.4-1.4,0.6-2.4,0.6C352.5,44.4,351,43.5,351,40.9z"/>
	<path class="st0" d="M358.6,40.8L358.6,40.8c0-2.6,2-3.8,4.9-3.8c1.3,0,2.3,0.2,3.2,0.5v-0.3c0-1.7-1-2.6-2.9-2.6   c-1.3,0-2.3,0.3-3.4,0.7l-0.7-2.1c1.3-0.6,2.6-1,4.4-1s3.1,0.5,3.9,1.3c0.9,0.8,1.3,2.1,1.3,3.6v7h-2.6v-1.5c-0.8,1-2,1.7-3.8,1.7   C360.6,44.4,358.6,43.1,358.6,40.8z M366.7,39.9v-0.8c-0.7-0.3-1.6-0.5-2.7-0.5c-1.7,0-2.8,0.7-2.8,2l0,0c0,1.1,1,1.8,2.3,1.8   C365.3,42.4,366.7,41.4,366.7,39.9z"/>
	<path class="st0" d="M372.4,27.9h2.7v16.3h-2.7V27.9z"/>
</g>
</svg>