<?xml version="1.0" encoding="utf-8"?>
<!-- Generator: Adobe Illustrator 22.1.0, SVG Export Plug-In . SVG Version: 6.00 Build 0)  -->
<svg version="1.1" id="Capa_1" xmlns="http://www.w3.org/2000/svg" xmlns:xlink="http://www.w3.org/1999/xlink" x="0px" y="0px"
	 viewBox="0 0 100 100" style="enable-background:new 0 0 100 100;" xml:space="preserve">
<style type="text/css">
	.st0{fill:#00AFDF;enable-background:new    ;}
	.st1{opacity:0.15;fill:#0094D4;}
	.st2{fill:none;stroke:#1460AA;stroke-width:3;stroke-linecap:round;stroke-linejoin:round;stroke-miterlimit:10;}
	.st3{opacity:0.15;}
	.st4{fill:#1460AA;}
	.st5{fill:#FFFFFF;}
</style>
<title>plantilla svg celestes</title>
<g>
	<g>
		<path class="st0" d="M78.7,81.5H21.3c-1.6,0-2.8-1.3-2.8-2.8V21.3c0-1.6,1.3-2.8,2.8-2.8h57.4c1.6,0,2.8,1.3,2.8,2.8v57.4
			C81.5,80.3,80.3,81.5,78.7,81.5z"/>
		<path class="st1" d="M75.7,52c-0.2,24-12.5,25.6-24.5,29.5h27.9c1.3,0,2.4-1.1,2.4-2.4V20.9c0-1.3-1.1-2.4-2.4-2.4h-3.5
			C75.7,18.5,75.8,44.8,75.7,52z"/>
		<path class="st2" d="M78.7,81.5H21.3c-1.6,0-2.8-1.3-2.8-2.8V21.3c0-1.6,1.3-2.8,2.8-2.8h57.4c1.6,0,2.8,1.3,2.8,2.8v57.4
			C81.5,80.3,80.3,81.5,78.7,81.5z"/>
	</g>
	<g>
		<g class="st3">
			<g>
				<path class="st4" d="M65.3,29.6c0-0.1-0.1-0.1-0.1-0.2c-0.4-0.5-0.9-0.7-1.5-0.7c-0.5,0-0.9,0.3-1.2,0.7
					c-0.1,0.3-0.2,0.5-0.2,0.8c0,0.1,0,0.2,0,0.3c-0.1,0.1-0.2,0.3-0.3,0.4c-0.3,0.3-2.5,1.3-2.8,0.6c-0.1-0.2,0.6-1.1,0.7-1.4
					c0.2-0.5,0.2-1.1,0-1.5c-0.3-0.5-0.8-0.8-1.3-1c-1.5-0.7-3-1.5-4.3-2.6c-0.7-0.8-1.6-1.5-2.5-2.1c-1-0.6-2.2-0.4-3,0.5
					c-1.3-1-3.2-0.8-4.2,0.5c-0.4,0.5-0.6,1.2-0.6,1.9c0,0.3,0,0.6-0.2,0.8c-0.2,0.1-0.4,0.2-0.6,0.2c-0.7,0.3-1.1,0.9-1.1,1.7
					c0,0.7,0,1.4,0,2.2c-0.2,1.1-0.5,2.1-1,3c-1.1,2.3-1.4,4.8-0.8,7.3c0.3,0.6,0.4,1.3,0.5,2c0,0.5,0,0.9-0.2,1.4
					c-0.2,0.9-0.4,1.8-0.7,2.7c-0.2,0.6-0.3,1.2-0.4,1.8c0,0.6,0.1,1.1,0.2,1.7c0,0.6,0,1.1-0.2,1.7c-0.3,1.4-0.3,2.8,0.1,4.2
					c-0.3,0.3-0.4,0.7-0.4,1.1c0,0.4,0.1,0.8,0.3,1.2c0.4,1.1,0.7,2.3,0.8,3.4c0,1.3-0.1,2.5-0.2,3.8c0,0.6-0.1,1.2-0.3,1.8
					c-0.2,0.4-0.3,0.9-0.4,1.3c-0.2,1,0.1,2.1,0.9,2.7c0.2,0.1,0.5,0.2,0.7,0.2c0,0.5,0.3,1,0.6,1.3c0.5,0.4,1.1,0.5,1.7,0.4
					c0.6-0.1,1.2-0.1,1.8,0c0,0.5,0.1,1.1,0.2,1.7c0.1,0.6,0,1.7,0.4,2.2c0.4,0.4,0.9,0.6,1.4,0.5c1.3,0,2.6-0.1,3.9-0.4
					c0.1,0,0.2-0.1,0.3-0.1c0.2-0.2,0.1-0.5,0-0.7c-0.2-0.5-0.6-1-1.1-1.2c-0.2,0-0.5,0-0.8-0.1c-1.1-0.2-1.7-1.4-2.2-2.4l-0.8-1.7
					c-0.2-0.3-0.2-0.6-0.1-0.9c0.2-0.5,1-0.4,1.1-1c0.2-0.6-0.1-1.2,0.4-1.8c0.5-0.5,0.8-0.5,1.1-0.8c0.3-0.4,0.4-0.9,0.4-1.4
					c0-0.7,0-1.5-0.6-1.8c-0.3-0.1-0.7-0.2-1-0.2c-0.3-0.1-0.7-0.5-0.4-0.8c0.2-0.3,0.4-0.2,0.7-0.2c1.5-0.1,1.7-1.9,1.8-3.1
					c0-0.2,0-0.5,0-0.7h0.2c0.6,0.3,1.4-0.1,1.6-0.7c0,0,0,0,0,0c0.2-0.7,0.1-1.4-0.3-2c0.2,0.3,1.7-0.9,1.7-1
					c0.5-0.8,0-1.8,0.4-2.6c1.3,0.1,2.6-0.1,3.8-0.7c1.2-0.5,2.2-1.5,2.8-2.6c0.4-0.6,0.6-1.4,0.5-2.2c-0.1-0.2-0.2-0.4-0.3-0.6
					c-0.3-0.6-0.7-1.2-1-1.8c-0.6-1.3-0.6-2.8-0.1-4.1c0.3-1.4,0.9-2.7,1.9-3.8c0.8-1,1.7-1.8,2.8-2.3l0.2-0.1
					c0.6-0.2,1.1-0.6,1.5-1.1c0.2-0.3,0.3-0.7,0.4-1.1C65.8,31,65.7,30.2,65.3,29.6z"/>
				<path class="st4" d="M53.6,73.3c-0.3-0.2-0.7-0.2-1,0c-0.3,0.2-0.4,0.6-0.2,0.9c0.1,0.2,0.3,0.3,0.5,0.3c0,0.2,0,0.5,0,0.7
					c0,0.4,0.3,0.7,0.7,0.7c0.4,0,0.6-0.7,0.6-1.1C54.2,74.2,54.2,73.6,53.6,73.3z"/>
				<path class="st4" d="M55.8,73.1h-0.1c-1.2-0.1-1.4,1.6-1,2.4c0.2,0.3,0.6,0.5,1,0.4c0.3-0.1,0.5-0.5,0.4-0.8
					c-0.1-0.2-0.1-0.4,0-0.6c0.1-0.1,0.2-0.2,0.3-0.3c0.1-0.2,0.1-0.4,0-0.6C56.3,73.3,56.1,73.2,55.8,73.1z"/>
			</g>
		</g>
		<g>
			<g>
				<path class="st5" d="M64.5,29.2c0-0.1-0.1-0.1-0.1-0.2c-0.4-0.5-0.9-0.7-1.5-0.7c-0.5,0-0.9,0.3-1.2,0.7
					c-0.1,0.3-0.2,0.5-0.2,0.8c0,0.1,0,0.2,0,0.3c-0.1,0.1-0.2,0.3-0.3,0.4c-0.3,0.3-2.5,1.3-2.8,0.6c-0.1-0.2,0.6-1.1,0.7-1.4
					c0.2-0.5,0.2-1.1,0-1.5c-0.3-0.5-0.8-0.8-1.3-1c-1.5-0.7-3-1.5-4.3-2.6c-0.7-0.8-1.6-1.5-2.5-2.1c-1-0.6-2.2-0.4-3,0.5
					c-1.3-1-3.2-0.8-4.2,0.5C43.2,24,43,24.6,43,25.3c0,0.3,0,0.6-0.2,0.8c-0.2,0.1-0.4,0.2-0.6,0.2c-0.7,0.3-1.1,0.9-1.1,1.7
					c0,0.7,0,1.4,0,2.2c-0.2,1.1-0.5,2.1-1,3c-1.1,2.3-1.4,4.8-0.8,7.3c0.3,0.6,0.4,1.3,0.5,2c0,0.5,0,0.9-0.2,1.4
					c-0.2,0.9-0.4,1.8-0.7,2.7c-0.2,0.6-0.3,1.2-0.4,1.8c0,0.6,0.1,1.1,0.2,1.7c0,0.6,0,1.1-0.2,1.7c-0.3,1.4-0.3,2.8,0.1,4.2
					c-0.3,0.3-0.4,0.7-0.4,1.1c0,0.4,0.1,0.8,0.3,1.2c0.4,1.1,0.7,2.3,0.8,3.4c0,1.3-0.1,2.5-0.2,3.8c0,0.6-0.1,1.2-0.3,1.8
					c-0.2,0.4-0.3,0.9-0.4,1.3c-0.2,1,0.1,2.1,0.9,2.7c0.2,0.1,0.5,0.2,0.7,0.2c0,0.5,0.3,1,0.6,1.3c0.5,0.4,1.1,0.5,1.7,0.4
					c0.6-0.1,1.2-0.1,1.8,0c0,0.5,0.1,1.1,0.2,1.7c0.1,0.6,0,1.7,0.4,2.2c0.4,0.4,0.9,0.6,1.4,0.5c1.3,0,2.6-0.1,3.9-0.4
					c0.1,0,0.2-0.1,0.3-0.1c0.2-0.2,0.1-0.5,0-0.7c-0.2-0.5-0.6-1-1.1-1.2c-0.2,0-0.5,0-0.8-0.1c-1.1-0.2-1.7-1.4-2.2-2.4l-0.8-1.7
					c-0.2-0.3-0.2-0.6-0.1-0.9c0.2-0.5,1-0.4,1.1-1s-0.1-1.2,0.4-1.8c0.5-0.5,0.8-0.5,1.1-0.8c0.3-0.4,0.4-0.9,0.4-1.4
					c0-0.7,0-1.5-0.6-1.8c-0.3-0.1-0.7-0.2-1-0.2c-0.3-0.1-0.7-0.5-0.4-0.8s0.4-0.2,0.7-0.2c1.5-0.1,1.7-1.9,1.8-3.1
					c0-0.2,0-0.5,0-0.7H49c0.6,0.3,1.4-0.1,1.6-0.7c0,0,0,0,0,0c0.2-0.7,0.1-1.4-0.3-2c0.2,0.3,1.7-0.9,1.7-1c0.5-0.8,0-1.8,0.4-2.6
					c1.3,0.1,2.6-0.1,3.8-0.7c1.2-0.5,2.2-1.5,2.8-2.6c0.4-0.6,0.6-1.4,0.5-2.2c-0.1-0.2-0.2-0.4-0.3-0.6c-0.3-0.6-0.7-1.2-1-1.8
					c-0.6-1.3-0.6-2.8-0.1-4.1c0.3-1.4,0.9-2.7,1.9-3.8c0.8-1,1.7-1.8,2.8-2.3l0.2-0.1c0.6-0.2,1.1-0.6,1.5-1.1
					c0.2-0.3,0.3-0.7,0.4-1.1C65.1,30.6,64.9,29.8,64.5,29.2z"/>
				<path class="st5" d="M52.8,72.9c-0.3-0.2-0.7-0.2-1,0c-0.3,0.2-0.4,0.6-0.2,0.9c0.1,0.2,0.3,0.3,0.5,0.3c0,0.2,0,0.5,0,0.7
					c0,0.4,0.3,0.7,0.7,0.7c0.4,0,0.6-0.7,0.6-1.1C53.4,73.8,53.5,73.3,52.8,72.9z"/>
				<path class="st5" d="M55.1,72.8h-0.1c-1.2-0.1-1.4,1.6-1,2.4c0.2,0.3,0.6,0.5,1,0.4c0.3-0.1,0.5-0.5,0.4-0.8
					c-0.1-0.2-0.1-0.4,0-0.6c0.1-0.1,0.2-0.2,0.3-0.3c0.1-0.2,0.1-0.4,0-0.6C55.5,73,55.3,72.8,55.1,72.8z"/>
			</g>
		</g>
	</g>
</g>
</svg>
